<?xml version="1.0" encoding="UTF-8" standalone="no"?>
<svg
   xmlns:dc="http://purl.org/dc/elements/1.1/"
   xmlns:cc="http://creativecommons.org/ns#"
   xmlns:rdf="http://www.w3.org/1999/02/22-rdf-syntax-ns#"
   xmlns:svg="http://www.w3.org/2000/svg"
   xmlns="http://www.w3.org/2000/svg"
   xmlns:sodipodi="http://sodipodi.sourceforge.net/DTD/sodipodi-0.dtd"
   xmlns:inkscape="http://www.inkscape.org/namespaces/inkscape"
   width="210mm"
   height="297mm"
   viewBox="0 0 210 297"
   version="1.1"
   id="svg8"
   inkscape:version="1.0 (4035a4f, 2020-05-01)"
   sodipodi:docname="SpringenDrehen1.svg">
  <defs
     id="defs2">
    <inkscape:path-effect
       split_items="false"
       mirror_copies="false"
       copies_to_360="true"
       gap="-0.01"
       rotation_angle="60"
       starting_angle="0"
       num_copies="9"
       method="normal"
       lpeversion="1"
       is_visible="true"
       id="path-effect861"
       origin="104.5,107"
       starting_point="0,0"
       effect="copy_rotate" />
    <inkscape:path-effect
       split_items="false"
       mirror_copies="false"
       copies_to_360="true"
       gap="-0.01"
       rotation_angle="60"
       starting_angle="0"
       num_copies="9"
       method="normal"
       lpeversion="1"
       is_visible="true"
       id="path-effect857"
       origin="104.5,107"
       starting_point="0,0"
       effect="copy_rotate" />
    <inkscape:path-effect
       split_items="false"
       mirror_copies="false"
       copies_to_360="true"
       gap="-0.01"
       rotation_angle="40"
       starting_angle="0"
       num_copies="9"
       method="normal"
       lpeversion="1"
       is_visible="true"
       id="path-effect853"
       origin="104.5,107"
       starting_point="0,0"
       effect="copy_rotate" />
    <inkscape:path-effect
       split_items="false"
       mirror_copies="false"
       copies_to_360="true"
       gap="-0.01"
       rotation_angle="40"
       starting_angle="0"
       num_copies="9"
       method="normal"
       lpeversion="1"
       is_visible="true"
       id="path-effect843"
       origin="105,107"
       starting_point="0,0"
       effect="copy_rotate" />
  </defs>
  <sodipodi:namedview
     inkscape:snap-global="false"
     id="base"
     pagecolor="#ffffff"
     bordercolor="#666666"
     borderopacity="1.0"
     inkscape:pageopacity="0.0"
     inkscape:pageshadow="2"
     inkscape:zoom="0.61937212"
     inkscape:cx="660.43996"
     inkscape:cy="339.21535"
     inkscape:document-units="mm"
     inkscape:current-layer="layer1"
     showgrid="false"
     inkscape:window-width="1280"
     inkscape:window-height="756"
     inkscape:window-x="0"
     inkscape:window-y="22"
     inkscape:window-maximized="1"
     inkscape:document-rotation="0" />
  <metadata
     id="metadata5">
    <rdf:RDF>
      <cc:Work
         rdf:about="">
        <dc:format>image/svg+xml</dc:format>
        <dc:type
           rdf:resource="http://purl.org/dc/dcmitype/StillImage" />
        <dc:title />
      </cc:Work>
    </rdf:RDF>
  </metadata>
  <g
     inkscape:label="Ebene 1"
     inkscape:groupmode="layer"
     id="layer1"
     style="opacity:1">
    <g
       style="display:inline"
       id="g878">
      <path
         sodipodi:nodetypes="csssssssssssssssc"
         d="m 112.25,107 c 0,1.00102 -0.20287,1.95465 -0.56974,2.82203 -0.36687,0.86738 -0.89774,1.6485 -1.55374,2.30449 -0.65599,0.656 -1.43711,1.18687 -2.30449,1.55374 -0.86738,0.36687 -1.82101,0.56974 -2.82203,0.56974 -1.00102,0 -1.95465,-0.20287 -2.82203,-0.56974 -0.86738,-0.36687 -1.6485,-0.89774 -2.304494,-1.55374 -0.655996,-0.65599 -1.186865,-1.43711 -1.553735,-2.30449 C 97.952871,108.95465 97.75,108.00102 97.75,107 c 0,-1.00102 0.202871,-1.95465 0.569741,-2.82203 0.36687,-0.86738 0.897739,-1.6485 1.553735,-2.30449 0.655994,-0.656 1.437114,-1.18687 2.304494,-1.55374 C 103.04535,99.952871 103.99898,99.75 105,99.75 c 1.00102,0 1.95465,0.202871 2.82203,0.56974 0.86738,0.36687 1.6485,0.89774 2.30449,1.55374 0.656,0.65599 1.18687,1.43711 1.55374,2.30449 0.36687,0.86738 0.56974,1.82101 0.56974,2.82203"
         inkscape:label="path815"
         style="opacity:1;fill:none;fill-opacity:1;fill-rule:nonzero;stroke:#000000;stroke-width:0.5;stroke-miterlimit:4;stroke-dasharray:none;stroke-opacity:0.990991"
         id="path815" />
      <path
         sodipodi:nodetypes="csssssssssssssssssssssssssssssssc"
         d="m 204.75,107 c 0,6.8863 -0.69781,13.60962 -2.02657,20.1031 -1.32875,6.49349 -3.28847,12.75714 -5.81228,18.7241 -2.52381,5.96696 -5.61172,11.63724 -9.19688,16.94397 -3.58516,5.30674 -7.66757,10.24993 -12.18037,14.76273 -4.5128,4.5128 -9.45599,8.59521 -14.76273,12.18037 -5.30673,3.58516 -10.97701,6.67307 -16.94397,9.19688 -5.96696,2.52381 -12.23061,4.48353 -18.7241,5.81228 -6.49348,1.32876 -13.2168,2.02657 -20.1031,2.02657 -6.8863,0 -13.60962,-0.69781 -20.103104,-2.02657 -6.493485,-1.32875 -12.757135,-3.28847 -18.724098,-5.81228 -5.966962,-2.52381 -11.637237,-5.61172 -16.943972,-9.19688 -5.306734,-3.58516 -10.249928,-7.66757 -14.762727,-12.18037 -4.5128,-4.5128 -8.595206,-9.45599 -12.180366,-14.76273 C 18.700574,157.46444 15.612662,151.79416 13.088849,145.8272 10.565037,139.86024 8.6053247,133.59659 7.2765655,127.1031 5.9478062,120.60962 5.25,113.8863 5.25,107 c 0,-6.8863 0.6978062,-13.60962 2.0265655,-20.103104 1.3287592,-6.493485 3.2884715,-12.757135 5.8122835,-18.724098 2.523813,-5.966962 5.611725,-11.637237 9.196884,-16.943972 3.58516,-5.306734 7.667566,-10.249928 12.180366,-14.762727 4.512799,-4.5128 9.455993,-8.595206 14.762727,-12.180366 5.306735,-3.585159 10.97701,-6.673071 16.943972,-9.196884 C 72.139761,12.565037 78.403411,10.605325 84.896896,9.2765655 91.39038,7.9478062 98.1137,7.25 105,7.25 c 6.8863,0 13.60962,0.6978062 20.1031,2.0265655 6.49349,1.3287595 12.75714,3.2884715 18.7241,5.8122835 5.96696,2.523813 11.63724,5.611725 16.94397,9.196884 5.30674,3.58516 10.24993,7.667566 14.76273,12.180366 4.5128,4.512799 8.59521,9.455993 12.18037,14.762727 3.58516,5.306735 6.67307,10.97701 9.19688,16.943972 2.52381,5.966963 4.48353,12.230613 5.81228,18.724098 C 204.05219,93.39038 204.75,100.1137 204.75,107"
         inkscape:label="path815"
         style="opacity:1;fill:none;fill-opacity:1;fill-rule:nonzero;stroke:#000000;stroke-width:0.5;stroke-miterlimit:4;stroke-dasharray:none;stroke-opacity:0.990991"
         id="path815-7" />
      <ellipse
         ry="0.33072916"
         rx="0.30710566"
         cy="107.0145"
         cx="105.00651"
         id="path17"
         style="display:none;fill:#000000;fill-opacity:1;stroke:#000000;stroke-width:0.392906;stroke-linecap:round;stroke-opacity:0.990991" />
    </g>
    <g
       style="display:inline"
       id="g873">
      <path
         sodipodi:type="star"
         style="fill:#000000;fill-rule:evenodd;stroke-width:0.980001;stroke-linecap:round;stroke-dashoffset:28.3465"
         id="path841"
         sodipodi:sides="3"
         sodipodi:cx="89.516472"
         sodipodi:cy="78.130608"
         sodipodi:r1="8.9012232"
         sodipodi:r2="2.0472813"
         sodipodi:arg1="0.72297935"
         sodipodi:arg2="1.7701769"
         inkscape:flatsided="false"
         inkscape:rounded="0.16"
         inkscape:randomized="0"
         inkscape:transform-center-x="0.8814991"
         inkscape:transform-center-y="-1.4178225"
         inkscape:path-effect="#path-effect853"
         d="m 96.190946,84.019849 c -0.854777,0.968748 -5.813615,-3.626633 -7.079963,-3.882518 -1.266349,-0.255885 -7.62041,2.053552 -8.031981,0.82892 -0.411572,-1.224633 6.047564,-3.221422 6.902341,-4.190169 0.854777,-0.968747 2.031776,-7.626244 3.298125,-7.370359 1.266348,0.255885 -0.233949,6.848054 0.177622,8.072687 0.411571,1.224632 5.588633,5.572692 4.733856,6.541439 z M 83.363539,94.73714 c -0.0321,1.291544 -6.784642,0.958758 -7.919201,1.576731 -1.134559,0.617974 -4.517574,6.471419 -5.620035,5.797849 -1.10246,-0.67357 2.562013,-6.355053 2.594112,-7.646596 0.0321,-1.291544 -3.345625,-7.148043 -2.211066,-7.766017 1.134559,-0.617974 4.222629,5.396294 5.32509,6.069864 1.10246,0.67357 7.863199,0.676626 7.8311,1.968169 z m -2.937422,16.45522 c 0.8056,1.01001 -4.58106,5.09553 -5.052956,6.29821 -0.471897,1.20268 0.699083,7.86123 -0.578413,8.0539 -1.277496,0.19266 -2.122332,-6.51508 -2.927931,-7.5251 -0.8056,-1.01001 -7.157571,-3.32519 -6.685674,-4.52787 0.471896,-1.20267 6.703392,1.41955 7.980888,1.22689 1.277497,-0.19266 6.458487,-4.53604 7.264086,-3.52603 z m 8.327016,14.49357 c 1.266348,0.25588 -0.233949,6.84805 0.177622,8.07268 0.411571,1.22464 5.588633,5.5727 4.733856,6.54144 -0.854777,0.96875 -5.813615,-3.62663 -7.079963,-3.88251 -1.266349,-0.25589 -7.62041,2.05355 -8.031981,0.82892 -0.411572,-1.22464 6.047564,-3.22143 6.902341,-4.19017 0.854777,-0.96875 2.031776,-7.62625 3.298125,-7.37036 z m 15.695147,5.75021 c 1.13456,-0.61797 4.22263,5.3963 5.32509,6.06987 1.10246,0.67357 7.8632,0.67662 7.8311,1.96817 -0.0321,1.29154 -6.78464,0.95875 -7.9192,1.57673 -1.13456,0.61797 -4.51757,6.47141 -5.62003,5.79784 -1.10246,-0.67357 2.56201,-6.35505 2.59411,-7.64659 0.0321,-1.29155 -3.34563,-7.14804 -2.21107,-7.76602 z m 15.71935,-5.68373 c 0.4719,-1.20267 6.70339,1.41955 7.98089,1.22689 1.2775,-0.19267 6.45849,-4.53604 7.26409,-3.52603 0.8056,1.01001 -4.58106,5.09553 -5.05296,6.29821 -0.4719,1.20268 0.69908,7.86123 -0.57841,8.0539 -1.2775,0.19266 -2.12234,-6.51509 -2.92794,-7.5251 -0.80559,-1.01001 -7.15757,-3.32519 -6.68567,-4.52787 z m 8.38829,-14.45819 c -0.41157,-1.22463 6.04757,-3.22142 6.90234,-4.19017 0.85478,-0.96874 2.03178,-7.62624 3.29813,-7.370355 1.26635,0.255885 -0.23395,6.848055 0.17762,8.072685 0.41157,1.22463 5.58863,5.57269 4.73386,6.54144 -0.85478,0.96875 -5.81362,-3.62663 -7.07997,-3.88252 -1.26635,-0.25588 -7.62041,2.05356 -8.03198,0.82892 z m -2.86774,-16.467502 c -1.10246,-0.67357 2.56201,-6.355051 2.59411,-7.646595 0.0321,-1.291544 -3.34562,-7.148043 -2.21107,-7.766017 1.13456,-0.617974 4.22263,5.396294 5.32509,6.069864 1.10246,0.67357 7.8632,0.676626 7.8311,1.96817 -0.0321,1.291543 -6.78464,0.958757 -7.9192,1.576731 -1.13456,0.617973 -4.51757,6.471417 -5.62003,5.797847 z M 112.90625,84.055226 c -1.27749,0.192664 -2.12233,-6.515081 -2.92793,-7.525094 -0.8056,-1.010012 -7.15757,-3.325193 -6.68567,-4.527868 0.47189,-1.202676 6.70339,1.419547 7.98088,1.226883 1.2775,-0.192663 6.45849,-4.536041 7.26409,-3.526029 0.8056,1.010013 -4.58106,5.095535 -5.05296,6.298211 -0.47189,1.202676 0.69909,7.861234 -0.57841,8.053897 z"
         transform="translate(-1.8435656,-5.1380808)" />
      <path
         sodipodi:type="star"
         style="fill:#000000;fill-rule:evenodd;stroke-width:0.723693;stroke-linecap:round;stroke-dashoffset:28.3465"
         id="path855"
         sodipodi:sides="11"
         sodipodi:cx="83.948921"
         sodipodi:cy="149.83418"
         sodipodi:r1="2.7456901"
         sodipodi:r2="7.6269174"
         sodipodi:arg1="0.15264933"
         sodipodi:arg2="0.43824866"
         inkscape:flatsided="false"
         inkscape:rounded="0.03"
         inkscape:randomized="0"
         d="m 86.662684,150.25168 c -0.02305,0.1498 4.256698,2.68178 4.192382,2.81902 -0.06431,0.13724 -4.748527,-1.53168 -4.848901,-1.41812 -0.100375,0.11356 2.131085,4.5574 2.002783,4.63808 -0.128302,0.0807 -3.166627,-3.85578 -3.312462,-3.81452 -0.145835,0.0413 -0.671133,4.98608 -0.822686,4.98459 -0.151553,-0.001 -0.579346,-4.95569 -0.72434,-4.99982 -0.144994,-0.0441 -3.26027,3.83171 -3.386958,3.74852 -0.126687,-0.0832 2.191874,-4.48221 2.093756,-4.59773 -0.09812,-0.11551 -4.814295,1.46081 -4.875895,1.32233 -0.0616,-0.13848 4.267189,-2.58566 4.247098,-2.73588 -0.02009,-0.15023 -4.839815,-1.3739 -4.816769,-1.52369 0.02305,-0.1498 4.987702,0.13181 5.052017,-0.005 0.06432,-0.13724 -3.328728,-3.7724 -3.228354,-3.88596 0.100375,-0.11356 4.124655,2.80745 4.252957,2.72677 0.128301,-0.0807 -0.760794,-4.97318 -0.614959,-5.01445 0.145835,-0.0413 1.952059,4.59173 2.103612,4.59323 0.151553,0.001 2.048688,-4.59503 2.193681,-4.5509 0.144994,0.0441 -0.840302,4.91817 -0.713614,5.00136 0.126688,0.0832 4.207725,-2.75797 4.305843,-2.64246 0.09812,0.11551 -3.365873,3.68313 -3.304273,3.82161 0.0616,0.13847 5.03084,-0.0453 5.05093,0.10493 0.02009,0.15022 -4.822803,1.27872 -4.845848,1.42851 z m 31.974786,1.34664 c 0.0786,0.12956 4.98463,-0.68179 5.02358,-0.53532 0.0389,0.14647 -4.62213,1.87896 -4.62603,2.03047 -0.004,0.15151 4.56195,2.12133 4.51552,2.26561 -0.0464,0.14427 -4.90422,-0.91823 -4.98941,-0.79288 -0.0852,0.12535 2.69087,4.25095 2.57382,4.34723 -0.11706,0.0963 -3.62927,-3.42389 -3.76871,-3.36449 -0.13943,0.0594 -0.0345,5.03092 -0.18505,5.04863 -0.15052,0.0177 -1.20204,-4.84249 -1.35145,-4.86791 -0.14942,-0.0254 -2.74898,4.21362 -2.88518,4.14713 -0.1362,-0.0665 1.60683,-4.72363 1.49488,-4.82579 -0.11196,-0.10216 -4.59064,2.05851 -4.66927,1.92894 -0.0786,-0.12956 3.90553,-3.10505 3.86658,-3.25152 -0.0389,-0.14647 -4.9748,-0.75016 -4.9709,-0.90167 0.004,-0.15151 4.96426,-0.50064 5.01068,-0.64492 0.0464,-0.14427 -3.7795,-3.32065 -3.69431,-3.446 0.0852,-0.12536 4.44687,2.26271 4.56393,2.16643 0.11705,-0.0963 -1.38424,-4.83686 -1.2448,-4.89626 0.13943,-0.0594 2.51763,4.30768 2.66815,4.28997 0.15052,-0.0177 1.45051,-4.8174 1.59993,-4.79198 0.14941,0.0254 -0.21094,4.98498 -0.0747,5.05146 0.1362,0.0665 3.82473,-3.26845 3.93668,-3.16629 0.11195,0.10216 -2.87253,4.07959 -2.7939,4.20916 z m 25.35971,-19.52142 c 0.14352,0.0487 3.3802,-3.72634 3.50418,-3.63917 0.12399,0.0872 -2.33298,4.41041 -2.23858,4.52898 0.0944,0.11857 4.85822,-1.30732 4.9154,-1.16696 0.0572,0.14036 -4.34708,2.44897 -4.33176,2.59975 0.0153,0.15079 4.79378,1.52676 4.766,1.67576 -0.0278,0.14899 -4.98101,-0.29001 -5.04965,-0.15488 -0.0686,0.13513 3.20736,3.87611 3.10344,3.98643 -0.10393,0.11031 -4.03351,-2.93691 -4.1643,-2.86034 -0.1308,0.0766 0.60262,4.99483 0.45555,5.03144 -0.14707,0.0366 -1.80539,-4.65135 -1.95682,-4.65765 -0.15143,-0.006 -2.19345,4.52771 -2.33697,4.479 -0.14352,-0.0487 0.99592,-4.88904 0.87194,-4.9762 -0.12399,-0.0872 -4.29311,2.62308 -4.38752,2.50451 -0.0944,-0.11856 3.48104,-3.57448 3.42386,-3.71484 -0.0572,-0.14036 -5.02974,-0.11435 -5.04505,-0.26514 -0.0153,-0.15078 4.86094,-1.12505 4.88873,-1.27404 0.0278,-0.149 -4.16947,-2.81549 -4.10083,-2.95061 0.0686,-0.13513 4.69754,1.68156 4.80146,1.57125 0.10393,-0.11032 -1.98541,-4.62272 -1.85461,-4.69929 0.13079,-0.0766 3.04269,3.95431 3.18976,3.91769 0.14707,-0.0366 0.829,-4.96228 0.98043,-4.95597 0.15143,0.006 0.42182,4.97158 0.56534,5.02028 z m 6.87854,-31.25517 c 0.14125,-0.0549 0.19413,-5.0273 0.34514,-5.04022 0.15101,-0.01292 1.04779,4.87818 1.19632,4.90833 0.14854,0.0301 2.88128,-4.124271 3.01531,-4.053498 0.13402,0.07077 -1.75589,4.670268 -1.64724,4.775928 0.10866,0.10567 4.65364,-1.911817 4.72812,-1.779822 0.0745,0.131996 -4.00208,2.979572 -3.9678,3.127212 0.0343,0.14763 4.9485,0.90762 4.93979,1.05893 -0.009,0.15131 -4.97764,0.34289 -5.02862,0.48561 -0.051,0.14273 3.67224,3.4389 3.58312,3.56149 -0.0891,0.12258 -4.37285,-2.40266 -4.4929,-2.31015 -0.12005,0.0925 1.23008,4.87835 1.08883,4.93329 -0.14125,0.0549 -2.37969,-4.38539 -2.5307,-4.37247 -0.15101,0.0129 -1.60263,4.76896 -1.75116,4.73881 -0.14853,-0.0301 0.369,-4.97578 0.23498,-5.04655 -0.13403,-0.0708 -3.92651,3.14546 -4.03517,3.0398 -0.10865,-0.10567 3.00053,-3.9864 2.92605,-4.1184 -0.0745,-0.13199 -5.00376,0.5233 -5.03804,0.37567 -0.0343,-0.14764 4.67942,-1.73137 4.68812,-1.88268 0.009,-0.15131 -4.49234,-2.265 -4.44136,-2.40773 0.051,-0.14273 4.87262,1.07336 4.96174,0.95078 0.0891,-0.12259 -2.55464,-4.334193 -2.43459,-4.426703 0.12005,-0.09251 3.5188,3.537313 3.66006,3.482373 z M 136.05454,72.457433 c 0.0729,-0.132883 -3.08276,-3.975922 -2.97539,-4.082886 0.10737,-0.106964 3.93829,3.063399 4.07145,2.991019 0.13316,-0.07238 -0.44384,-5.011427 -0.29568,-5.04336 0.14816,-0.03193 1.6569,4.706296 1.80805,4.717397 0.15116,0.0111 2.336,-4.45584 2.4779,-4.402603 0.14191,0.05324 -1.15054,4.854977 -1.02938,4.946037 0.12116,0.09106 4.37418,-2.485556 4.46477,-2.364052 0.0906,0.121505 -3.59269,3.462238 -3.54,3.604344 0.0527,0.142106 5.02358,0.273875 5.0341,0.42507 0.0105,0.151195 -4.89419,0.970262 -4.92669,1.118297 -0.0325,0.148035 4.07804,2.946353 4.00515,3.079235 -0.0729,0.132882 -4.64182,-1.829764 -4.7492,-1.7228 -0.10737,0.106964 1.83775,4.683384 1.70459,4.755764 -0.13316,0.07238 -2.91571,-4.048854 -3.06386,-4.016922 -0.14816,0.03193 -0.98602,4.933475 -1.13718,4.922373 -0.15115,-0.0111 -0.26387,-4.982461 -0.40577,-5.035698 -0.1419,-0.05324 -3.49673,3.61722 -3.61788,3.526161 -0.12116,-0.09106 2.47174,-4.334172 2.38114,-4.455676 -0.0906,-0.121504 -4.89725,1.152526 -4.94994,1.01042 -0.0527,-0.142106 4.42259,-2.309814 4.41207,-2.461009 -0.0105,-0.151195 -4.74294,-1.678088 -4.71044,-1.826123 0.0325,-0.148035 4.9693,0.447894 5.04219,0.315012 z M 106.46865,60.25599 c -0.0296,-0.148647 -4.91721,-1.064169 -4.90371,-1.215127 0.0135,-0.150958 4.98602,-0.184785 5.0415,-0.325826 0.0555,-0.14104 -3.56129,-3.553679 -3.46832,-3.673375 0.093,-0.119696 4.29441,2.540195 4.41734,2.45154 0.12293,-0.08865 -1.07468,-4.914922 -0.93176,-4.965354 0.14293,-0.05043 2.23936,4.458682 2.3907,4.450559 0.15134,-0.0081 1.75313,-4.715712 1.90063,-4.680867 0.1475,0.03485 -0.52668,4.961568 -0.39497,5.036557 0.13171,0.07499 4.02433,-3.019297 4.12958,-2.910238 0.10524,0.109058 -3.1255,3.889191 -3.05524,4.023483 0.0703,0.134292 5.01783,-0.364276 5.04741,-0.215629 0.0296,0.148646 -4.73199,1.582024 -4.74549,1.732983 -0.0135,0.150958 4.41822,2.406399 4.36274,2.54744 -0.0555,0.14104 -4.83611,-1.227424 -4.92908,-1.107728 -0.093,0.119696 2.41584,4.41306 2.29291,4.501715 -0.12293,0.08866 -3.4048,-3.647174 -3.54772,-3.596742 -0.14293,0.05043 -0.35355,5.018606 -0.50489,5.026728 -0.15134,0.0081 -0.89249,-4.908972 -1.03999,-4.943817 -0.1475,-0.03484 -3.01068,4.030779 -3.14239,3.95579 -0.13171,-0.07499 1.90318,-4.612207 1.79793,-4.721265 -0.10525,-0.109058 -4.71195,1.763209 -4.78221,1.628916 -0.0703,-0.134292 4.09461,-2.851097 4.06503,-2.999743 z m -30.507049,9.670599 c -0.118207,-0.09486 -4.450835,2.34552 -4.537529,2.221203 -0.08669,-0.124318 3.700736,-3.346506 3.652578,-3.490212 -0.04816,-0.143706 -5.012364,-0.433126 -5.018085,-0.584578 -0.0057,-0.151453 4.922515,-0.814491 4.959696,-0.961421 0.03718,-0.146929 -3.982505,-3.074257 -3.905435,-3.204759 0.07707,-0.130503 4.58143,1.976118 4.692144,1.872615 0.110715,-0.103503 -1.688227,-4.739334 -1.552837,-4.807453 0.13539,-0.06812 2.785774,4.139325 2.934871,4.112109 0.149097,-0.02722 1.14205,-4.899706 1.292776,-4.883814 0.150725,0.01589 0.105654,4.988325 0.245796,5.046037 0.140142,0.05771 3.609735,-3.504455 3.727941,-3.409598 0.118206,0.09486 -2.60801,4.253567 -2.521316,4.377884 0.08669,0.124318 4.931354,-0.996565 4.979511,-0.852859 0.04816,0.143706 -4.493649,2.168331 -4.487929,2.319784 0.0057,0.151452 4.687303,1.827727 4.650122,1.974656 -0.03718,0.146929 -4.952586,-0.605334 -5.029656,-0.474832 -0.07707,0.130503 2.955067,4.07173 2.844352,4.175233 -0.110714,0.103503 -3.839112,-3.18681 -3.974502,-3.118691 -0.13539,0.06812 0.284617,5.022986 0.13552,5.050202 -0.149097,0.02722 -1.506748,-4.756496 -1.657473,-4.772389 -0.150725,-0.01589 -2.476196,4.379481 -2.616339,4.321769 -0.140142,-0.05771 1.304,-4.816029 1.185794,-4.910886 z m -17.153613,27.01766 c -0.151524,0.0033 -1.901865,4.657711 -2.048186,4.618211 -0.146321,-0.0395 0.683835,-4.942363 0.554572,-5.021493 -0.129264,-0.07913 -4.118102,2.890092 -4.219836,2.77775 -0.101733,-0.112343 3.24732,-3.788068 3.181358,-3.924522 -0.06596,-0.136453 -5.02687,0.204887 -5.051716,0.05538 -0.02485,-0.14951 4.779803,-1.431092 4.798085,-1.581546 0.01828,-0.150454 -4.339642,-2.545369 -4.279714,-2.684578 0.05993,-0.139209 4.794734,1.380246 4.891455,1.26356 0.09672,-0.116686 -2.274609,-4.487489 -2.148932,-4.572199 0.125677,-0.08471 3.287369,3.753366 3.431821,3.707494 0.144452,-0.04587 0.512597,-5.004862 0.664121,-5.008178 0.151525,-0.0033 0.736288,4.934818 0.882609,4.974325 0.146321,0.03951 3.137057,-3.933227 3.26632,-3.854097 0.129264,0.07913 -2.048559,4.5495 -1.946825,4.661843 0.101734,0.112343 4.765523,-1.61282 4.831485,-1.476367 0.06596,0.136454 -4.183003,2.719749 -4.158156,2.869259 0.02485,0.14951 4.88097,1.219645 4.862688,1.370099 -0.01828,0.150454 -4.989373,0.0265 -5.049302,0.165705 -0.05993,0.139209 3.446743,3.664883 3.350022,3.781569 -0.09672,0.116686 -4.211652,-2.675169 -4.33733,-2.590459 -0.125677,0.08471 0.9182,4.946548 0.773748,4.992418 -0.144453,0.0459 -2.096763,-4.527488 -2.248287,-4.524171 z m 4.226188,31.722861 c -0.113943,0.0999 1.537008,4.79051 1.399525,4.8543 -0.137483,0.0638 -2.653039,-4.22563 -2.802925,-4.20316 -0.149885,0.0225 -1.296933,4.86101 -1.447078,4.84034 -0.150145,-0.0207 0.05267,-4.98917 -0.08557,-5.0513 -0.138241,-0.0621 -3.719107,3.38817 -3.834244,3.28961 -0.115137,-0.0986 2.741654,-4.16868 2.658948,-4.29569 -0.0827,-0.127 -4.96049,0.8396 -5.004064,0.69444 -0.04357,-0.14516 4.560184,-2.02466 4.559272,-2.17622 -9.12e-4,-0.15156 -4.626953,-1.97553 -4.58513,-2.1212 0.04182,-0.14568 4.930888,0.76216 5.012059,0.63417 0.08117,-0.12799 -2.824391,-4.16344 -2.710449,-4.26337 0.113943,-0.0999 3.736069,3.30701 3.873552,3.24322 0.137483,-0.0638 -0.125104,-5.02949 0.02478,-5.05196 0.149885,-0.0225 1.355075,4.80191 1.50522,4.82257 0.150145,0.0207 2.613902,-4.29871 2.752142,-4.23658 0.138241,0.0621 -1.456145,4.77223 -1.341008,4.87079 0.115137,0.0986 4.523013,-2.20312 4.605718,-2.07612 0.08271,0.12701 -3.80505,3.22741 -3.761476,3.37257 0.04357,0.14516 4.996099,0.59194 4.997011,0.7435 9.12e-4,0.15156 -4.945879,0.6579 -4.987703,0.80357 -0.04182,0.14568 3.88296,3.19907 3.801789,3.32706 -0.08117,0.12799 -4.516426,-2.12048 -4.630368,-2.02054 z"
         inkscape:transform-center-x="-0.97945104"
         inkscape:transform-center-y="-0.41194962"
         inkscape:path-effect="#path-effect857"
         transform="matrix(0.74228152,0,0,0.74228152,26.577139,32.416704)" />
      <path
         sodipodi:type="star"
         style="fill:#000000;fill-rule:evenodd;stroke-width:0.980001;stroke-linecap:round;stroke-dashoffset:28.3465"
         id="path859"
         sodipodi:sides="3"
         sodipodi:cx="127.60023"
         sodipodi:cy="68.315201"
         sodipodi:r1="3.8898094"
         sodipodi:r2="6.9460883"
         sodipodi:arg1="0.74541948"
         sodipodi:arg2="1.792617"
         inkscape:flatsided="false"
         inkscape:rounded="-0.39"
         inkscape:randomized="0"
         d="m 130.45847,70.953581 c 1.59509,-1.728011 -6.68047,3.620138 -4.38642,4.137519 2.29404,0.51738 -2.88481,-7.865168 -2.18585,-5.619776 0.69896,2.245391 0.2051,-7.595528 -1.38998,-5.867517 -1.59509,1.728012 8.25383,1.434271 5.95979,0.916891 -2.29405,-0.517381 6.47537,3.975389 5.77641,1.729997 -0.69896,-2.245391 -5.36903,6.430897 -3.77395,4.702886 z m -29.24332,-8.252524 c 0.11117,-2.349036 -2.790556,7.067311 -0.70065,5.989063 2.08991,-1.078247 -7.26552,-4.170752 -5.286777,-2.899963 1.978743,1.270788 -4.725192,-5.95035 -4.836355,-3.601315 -0.111164,2.349036 7.244737,-4.206749 5.15483,-3.128501 -2.089906,1.078247 7.515752,-1.116961 5.537012,-2.38775 -1.978747,-1.270788 0.0208,8.377501 0.13194,6.028466 z M 73.508849,75.1765 c -1.424775,-1.87092 2.405088,7.207611 3.312965,5.03826 0.907877,-2.169352 -8.246619,1.475204 -5.913967,1.176773 2.332652,-0.298431 -7.444518,-1.520938 -6.019743,0.349983 1.424774,1.87092 2.845744,-7.879384 1.937867,-5.710033 -0.907877,2.169351 5.03943,-5.686673 2.706778,-5.388242 -2.332652,0.298431 5.400875,6.404179 3.9761,4.533259 z m -13.2052,27.36601 c -2.294045,-0.51738 6.475368,3.97539 5.77641,1.73 -0.698958,-2.24539 -5.369033,6.4309 -3.773946,4.70289 1.595087,-1.72801 -6.680472,3.62013 -4.386427,4.13751 2.294045,0.51739 -2.884804,-7.86516 -2.185846,-5.61977 0.698958,2.24539 0.205105,-7.595529 -1.389982,-5.86752 -1.595088,1.72801 8.253836,1.43427 5.959791,0.91689 z m 7.474764,29.45172 c -2.089906,1.07825 7.515751,-1.11696 5.537008,-2.38775 -1.978743,-1.27078 0.02078,8.3775 0.131946,6.02847 0.111164,-2.34904 -2.790558,7.06731 -0.700652,5.98906 2.089906,-1.07824 -7.26552,-4.17075 -5.286777,-2.89996 1.978743,1.27079 -4.725192,-5.95035 -4.836355,-3.60132 -0.111164,2.34904 7.244737,-4.20674 5.15483,-3.1285 z m 24.657203,17.75664 c -0.907877,2.16936 5.03943,-5.68667 2.706778,-5.38824 -2.332652,0.29843 5.400876,6.40418 3.9761,4.53326 -1.424775,-1.87092 2.405086,7.20761 3.312966,5.03826 0.90788,-2.16935 -8.24662,1.47521 -5.913968,1.17677 2.332652,-0.29843 -7.444518,-1.52093 -6.019743,0.34999 1.424774,1.87092 2.845744,-7.87939 1.937867,-5.71004 z m 30.302264,-2.24696 c 0.69896,2.24539 0.2051,-7.59553 -1.38998,-5.86752 -1.59509,1.72801 8.25383,1.43427 5.95979,0.91689 -2.29405,-0.51738 6.47536,3.97539 5.77641,1.73 -0.69896,-2.24539 -5.36904,6.43089 -3.77395,4.70288 1.59509,-1.72801 -6.68047,3.62014 -4.38643,4.13752 2.29405,0.51738 -2.8848,-7.86517 -2.18584,-5.61977 z m 21.76855,-21.1992 c 1.97875,1.27079 -4.72519,-5.95035 -4.83635,-3.60131 -0.11116,2.34903 7.24474,-4.20675 5.15483,-3.12851 -2.08991,1.07825 7.51575,-1.11696 5.53701,-2.38775 -1.97875,-1.27078 0.0208,8.37751 0.13194,6.02847 0.11117,-2.34904 -2.79055,7.06731 -0.70065,5.98906 2.08991,-1.07824 -7.26552,-4.17075 -5.28678,-2.89996 z m 3.04911,-30.232084 c 2.33265,-0.298431 -7.44452,-1.520938 -6.01975,0.349982 1.42478,1.87092 2.84575,-7.879384 1.93787,-5.710033 -0.90788,2.169352 5.03943,-5.686672 2.70678,-5.388241 -2.33265,0.298431 5.40087,6.404178 3.9761,4.533258 -1.42478,-1.87092 2.40509,7.207611 3.31296,5.03826 0.90788,-2.169351 -8.24662,1.475205 -5.91396,1.176774 z"
         inkscape:transform-center-x="-1.4521988"
         inkscape:transform-center-y="-0.52883328"
         inkscape:path-effect="#path-effect861"
         transform="matrix(0.7078454,0.16828193,-0.16828193,0.7078454,56.586341,11.30103)" />
    </g>
    <path
       d="m 108.50397,44.023668 c -1.48555,-0.768078 -3.13355,-1.168914 -4.80591,-1.168921 -1.69839,2.9e-5 -3.37124,0.413455 -4.87412,1.204579 l -1.624706,1.058334 c -0.686951,0.544499 -1.302762,1.173157 -1.832964,1.871202 2.632522,-0.383109 5.31509,-0.596218 8.03827,-0.619083 2.90463,-0.02439 5.76882,0.169116 8.5788,0.557588 -0.5345,-0.69268 -1.15377,-1.315591 -1.8433,-1.854149 z m 25.46873,7.641394 c -0.30031,-0.829294 -0.70878,-1.586924 -1.21336,-2.250508 -0.0985,-0.129351 -0.20049,-0.254973 -0.30593,-0.376722 -1.80179,-0.905129 -3.64963,-1.727168 -5.53764,-2.463414 -0.98893,0.02017 -1.99388,0.233841 -2.97243,0.632003 l -1.15032,0.561723 c -0.57635,0.32944 -1.13051,0.721849 -1.65365,1.170988 4.73247,1.441696 9.23625,3.457522 13.42502,5.962943 -0.017,-0.686605 -0.0965,-1.358315 -0.23719,-2.00453 z m -20.45302,-1.956469 c -0.22658,-0.61632 -0.51068,-1.209944 -0.84852,-1.773018 -3.02641,-0.462243 -6.11869,-0.69351 -9.25887,-0.667144 -2.96132,0.02487 -5.874823,0.276572 -8.726081,0.732774 -0.334781,0.567277 -0.615251,1.164896 -0.837676,1.784903 l -0.294556,0.965832 c -0.141756,0.560474 -0.236822,1.131731 -0.28422,1.707907 3.314715,-0.662009 6.728301,-1.026044 10.213333,-1.053166 3.62545,-0.02822 7.18245,0.310682 10.63707,0.975135 -0.0516,-0.5746 -0.15065,-1.143948 -0.2961,-1.702223 z m 20.78068,7.977809 c 0.12349,-0.578797 0.20474,-1.161076 0.24288,-1.740461 -4.39713,-2.681854 -9.15329,-4.812168 -14.16451,-6.291088 l -3e-5,-2e-6 c -0.0147,0.01494 -0.0293,0.02993 -0.0439,0.04496 -0.38975,0.405539 -0.75428,0.842666 -1.08985,1.306896 l -0.52558,0.78755 c -0.28933,0.470625 -0.54887,0.96137 -0.77618,1.467612 5.55849,1.492094 10.79809,3.842441 15.55822,6.896735 0.22221,-0.505864 0.41159,-1.025106 0.56637,-1.552876 z M 82.74482,50.269798 c -2.806835,0.21525 -5.551299,1.452086 -7.568015,3.410646 -0.06901,0.06696 -0.137059,0.134669 -0.204121,0.203089 2.493293,-1.379643 5.088303,-2.591136 7.772136,-3.613735 z m 5.189347,0.908474 c -0.839521,-0.40434 -1.763457,-0.683508 -2.739885,-0.827858 v 4e-6 c -4.114877,1.390661 -8.038375,3.222363 -11.714014,5.437394 -0.508796,0.829356 -0.881477,1.704347 -1.105358,2.595188 l -0.212908,1.229398 c -0.06166,0.649922 -0.04172,1.293574 0.05943,1.919264 C 77.68983,57.68198 83.859694,54.783017 90.479749,53.094451 90.156956,52.724563 89.7946,52.384334 89.396611,52.077456 89.274604,51.98327 89.149332,51.89229 89.020923,51.804607 h -2e-6 z M 114.038,54.926897 c 0.0828,-0.531884 0.12444,-1.069365 0.12454,-1.607656 v -0.01447 c -3.46433,-0.681349 -7.03524,-1.02775 -10.6748,-0.999423 v 2e-6 c -3.500562,0.02725 -6.927956,0.400579 -10.253639,1.079005 0.0036,0.543629 0.04956,1.086151 0.137459,1.622639 l 0.182936,0.88005 c 0.133606,0.528378 0.308287,1.04551 0.522449,1.546677 3.07518,-0.624798 6.244355,-0.967314 9.481585,-0.990121 3.33832,-0.02352 6.61345,0.294378 9.79166,0.916739 0.21069,-0.502988 0.38174,-1.021677 0.51159,-1.551326 z m 18.23093,7.425902 c 0.3068,-0.438132 0.58703,-0.897869 0.83819,-1.375109 -4.73862,-3.054363 -9.96225,-5.39851 -15.50603,-6.875033 -0.18632,0.508102 -0.33992,1.026072 -0.45941,1.549259 l -0.16898,0.886251 c -0.0836,0.547606 -0.12925,1.095258 -0.13642,1.637626 4.91071,1.337497 9.54579,3.412333 13.76918,6.095753 0.15782,-0.146901 0.31224,-0.298908 0.46302,-0.455787 0.22715,-0.236471 0.44583,-0.483772 0.65526,-0.741039 z m -58.661022,2.380218 c 0.329103,0.4268 0.708008,0.819373 1.131715,1.172538 5.207945,-3.733848 11.129656,-6.516844 17.499706,-8.065659 0.0013,-0.551394 -0.05719,-1.094166 -0.174665,-1.621089 L 91.813,55.353744 c -0.188236,-0.521795 -0.437117,-1.018691 -0.743108,-1.48363 -6.772352,1.676845 -13.073478,4.643827 -18.62832,8.609293 0.161151,0.526725 0.382668,1.031023 0.661458,1.50585 z M 112.01487,59.66976 c 0.35374,-0.463205 0.66816,-0.955153 0.93999,-1.470713 -3.05128,-0.583168 -6.19135,-0.88192 -9.39116,-0.859377 -3.09971,0.02183 -6.136249,0.342283 -9.085747,0.927592 0.276156,0.514593 0.594906,1.005164 0.952912,1.466574 l 0.681615,0.792719 c 0.489798,0.515662 1.030891,0.980048 1.614887,1.385953 1.935495,-0.271732 3.906843,-0.419732 5.907133,-0.432014 2.06275,-0.01267 4.09808,0.121764 6.0973,0.387572 0.58156,-0.410453 1.11971,-0.879174 1.60611,-1.398881 z m 16.38918,6.192385 c 0.51371,-0.277652 1.01134,-0.60526 1.48673,-0.97875 -4.01046,-2.518116 -8.39277,-4.48056 -13.02866,-5.771742 0.0423,0.605163 0.13399,1.195882 0.27388,1.76475 l 0.31574,1.033528 c 0.27918,0.754352 0.64843,1.448566 1.09864,2.06551 2.28729,0.80006 4.49668,1.779418 6.6089,2.922817 0.75718,-0.08178 1.51717,-0.274559 2.26136,-0.573608 z m 16.82016,-5.0829 v 8e-6 c -0.5691,0.163167 -1.14163,0.377087 -1.70946,0.63872 3.07384,2.688622 5.87913,5.676596 8.3628,8.917802 0.30578,-0.539064 0.564,-1.086315 0.77101,-1.634008 l 0.33021,-1.037668 c 0.19684,-0.762195 0.28655,-1.50617 0.26665,-2.211234 -1.47849,-1.752566 -3.04888,-3.426108 -4.70152,-5.015714 -0.25848,-0.0267 -0.52356,-0.03946 -0.79426,-0.03824 v 3e-6 c -0.23999,0.0011 -0.48414,0.01314 -0.73174,0.03617 -0.23857,0.02226 -0.48012,0.05467 -0.72399,0.09715 z m 5.04103,0.08424 c 0.92092,0.927174 1.81537,1.87984 2.68046,2.859256 -0.45,-1.321093 -1.38243,-2.315712 -2.68046,-2.859256 z m -72.019887,6.771679 c 0.817158,0.200319 1.676779,0.299712 2.556433,0.295587 2.846427,-1.709623 5.887691,-3.118112 9.078515,-4.178038 0.572705,-0.664894 1.05249,-1.381703 1.426787,-2.131652 l 0.450617,-1.0604 c 0.206998,-0.58774 0.348275,-1.184014 0.42168,-1.779735 -6.054762,1.510315 -11.693284,4.156606 -16.675984,7.68687 0.504463,0.327018 1.052757,0.603329 1.636591,0.824754 z m 25.394317,-5.25859 c -1.57397,0.0097 -3.13008,0.105187 -4.664317,0.280085 1.464147,0.740583 3.081917,1.126485 4.722707,1.126545 1.66648,-8.2e-5 3.30885,-0.398183 4.79041,-1.161169 -1.59607,-0.169994 -3.21339,-0.255505 -4.8488,-0.245461 z m 36.85098,0.940501 v 8e-6 c -0.42036,0.342705 -0.82284,0.708724 -1.20355,1.094507 3.46652,2.904995 6.58156,6.218115 9.25835,9.862965 0.41618,-0.345461 0.81416,-0.713718 1.19011,-1.101225 l 0.61908,-0.679032 c 0.36821,-0.429786 0.70756,-0.876318 1.01441,-1.334802 -2.57212,-3.39648 -5.50007,-6.51606 -8.72401,-9.302273 -0.48498,0.267732 -0.96038,0.568356 -1.4211,0.898652 z M 56.084432,75.871872 c -0.08772,0.961932 -0.01737,1.869832 0.208256,2.68769 3.354859,-5.518057 7.6409,-10.436124 12.629719,-14.521076 -0.24354,-0.02505 -0.492714,-0.03694 -0.746723,-0.03566 v 2e-6 c -0.648232,0.0037 -1.324721,0.09321 -2.015381,0.266649 l -2.241725,0.839744 c -1.679561,0.835444 -3.232492,2.07479 -4.508068,3.544387 -1.275576,1.469598 -2.273797,3.169447 -2.843938,4.925896 -0.213042,0.833842 -0.48214,2.292368 -0.48214,2.292368 z m 15.57786,-10.80606 c -0.468054,-0.351848 -1.002433,-0.620339 -1.591117,-0.799436 -5.34031,4.256268 -9.888537,9.473817 -13.368176,15.362889 0.271991,0.537485 0.624447,1.009163 1.049546,1.404564 l 0.722437,0.553972 c 0.450995,0.28297 0.953443,0.496151 1.4981,0.63562 3.375163,-5.873512 7.895167,-11.043097 13.242086,-15.182017 -0.225934,-0.508698 -0.520245,-0.964551 -0.877466,-1.35909 z m 74.817138,10.645375 c 0.46256,-0.264904 0.91553,-0.559565 1.35444,-0.881081 -2.64668,-3.607149 -5.7297,-6.884514 -9.16172,-9.755994 -0.35717,0.408752 -0.6883,0.833377 -0.99012,1.26969 l -0.49144,0.765327 c -0.28949,0.486351 -0.54058,0.980748 -0.75034,1.47743 2.85143,2.43775 5.43154,5.184008 7.6848,8.182446 0.51645,-0.169744 1.03367,-0.380369 1.54564,-0.62942 z M 88.293833,65.272034 c -1.820674,0.697638 -3.585593,1.514295 -5.287531,2.436543 1.921252,-0.378528 3.756627,-1.224286 5.287531,-2.436543 z m 31.705037,0.203086 c 0.90111,0.699141 1.94388,1.160973 3.06752,1.358575 -1.00317,-0.490125 -2.02597,-0.943885 -3.06752,-1.358575 z m 21.34026,11.799788 c 0.19007,-0.0046 0.38259,-0.01596 0.57723,-0.03411 0.41812,-0.03916 0.84512,-0.109458 1.27744,-0.210322 -2.09609,-2.7491 -4.47462,-5.277279 -7.08794,-7.541657 l 4e-5,2e-6 c -0.0143,0.04447 -0.0283,0.08891 -0.0419,0.133323 -0.17243,0.568544 -0.2867,1.130217 -0.34106,1.676385 l -0.0206,1.201475 c 0.0905,1.284158 0.55156,2.368806 1.31229,3.178428 0.76073,0.809621 1.90194,1.263384 3.11018,1.528264 0.48872,-0.02452 1.21435,0.06821 1.21435,0.06821 z m -77.248986,4.752165 0.0036,-0.0011 c 0.943505,-0.284648 1.894741,-0.718915 2.8174,-1.286227 1.738979,-2.421858 3.707281,-4.673388 5.871993,-6.720001 0.432587,-0.985269 0.725905,-1.978123 0.86868,-2.940392 l 1.7e-5,6.6e-5 0.09974,-1.254695 c 0.0053,-0.665416 -0.06964,-1.297897 -0.223242,-1.88464 v 3e-6 c -5.062377,3.968258 -9.358083,8.88133 -12.604914,14.447181 0.612106,0.0584 1.257908,0.03412 1.924431,-0.07235 z m 96.511936,-0.182946 c -0.0259,-2.51e-4 -0.052,-4.27e-4 -0.078,-5.3e-4 l -3e-5,2.5e-5 c -0.53516,0.0015 -1.09034,0.0338 -1.65881,0.09663 1.27658,2.788055 2.34388,5.684634 3.1781,8.671306 0.50666,-0.303302 0.98021,-0.623901 1.41438,-0.957564 l 0.75758,-0.632002 c 0.505,-0.458691 0.9296,-0.930678 1.264,-1.405083 -0.57501,-1.82962 -1.22986,-3.626305 -1.96422,-5.384684 -0.57164,-0.17236 -1.21273,-0.288671 -1.90841,-0.346233 z m -5.17643,0.81236 c -0.52051,0.158294 -1.03499,0.337678 -1.53841,0.536403 1.43351,3.002571 2.59787,6.149266 3.46233,9.408211 0.52178,-0.145345 1.03953,-0.312284 1.54822,-0.499195 l 0.84595,-0.332796 c 0.45379,-0.190515 0.89562,-0.396056 1.32188,-0.61495 0.0573,-0.02957 0.11434,-0.05937 0.17105,-0.0894 -0.85439,-3.103763 -1.96549,-6.109046 -3.30368,-8.995833 -0.53823,0.08841 -1.08169,0.202322 -1.6247,0.340548 z m 9.263,0.06253 c 0.50258,1.25276 0.97089,2.521601 1.39475,3.809588 0.54291,-1.345263 0.25617,-2.557327 -0.80822,-3.41633 -0.17574,-0.141853 -0.3716,-0.273169 -0.58653,-0.393258 z m -108.074535,0.40876 c -0.744326,0.09461 -1.529903,0.44428 -2.311487,1.02888 -2.417856,5.124027 -4.061508,10.655126 -4.768184,16.433103 0.188201,0.40843 0.410117,0.76571 0.662491,1.0666 0.237993,0.28379 0.502003,0.51614 0.788582,0.69402 l 0.875917,0.3576 c 0.512464,0.11236 1.064321,0.0814 1.637625,-0.092 0.600033,-6.647668 2.537132,-12.969254 5.537647,-18.684127 -0.41593,-0.399461 -0.89507,-0.658715 -1.421101,-0.768932 v -4e-6 z m 98.261705,9.993186 c 0.52845,-0.07432 1.06392,-0.17388 1.60093,-0.297656 -0.85371,-3.214769 -2.00502,-6.318199 -3.42201,-9.279535 -0.30315,0.135972 -0.60015,0.278605 -0.88987,0.427363 -0.18867,0.09709 -0.37412,0.196703 -0.55604,0.298691 l -0.77928,0.464572 v -4e-6 c -0.48188,0.30565 -0.92992,0.626716 -1.33842,0.959114 1.13611,2.432236 2.07815,4.966695 2.80706,7.583001 0.53629,0.01493 1.0959,-0.0025 1.67174,-0.05219 z M 52.533742,85.90535 c -0.580629,0.723976 -1.120756,1.560417 -1.600416,2.478403 -1.675775,3.208755 -2.44437,7.078525 -2.000912,10.07432 0.701008,-4.35855 1.921431,-8.56656 3.601328,-12.552723 z m 6.034776,11.586381 c 1.483375,-2.84032 2.267957,-6.225076 2.102712,-9.071281 l -0.225824,-1.679489 c -0.176397,-0.793247 -0.443842,-1.481387 -0.792718,-2.039668 -2.770516,5.379812 -4.58478,11.296597 -5.209501,17.509527 0.608262,-0.33621 1.217757,-0.81656 1.807126,-1.4242 M 147.09438,88.733608 c -0.47036,1.291889 -0.16619,2.450521 0.86093,3.279386 0.14802,0.119388 0.31032,0.23132 0.48627,0.33538 l 1.09916,0.489888 c 0.53847,0.177521 1.14367,0.303142 1.80248,0.374137 -0.67849,-2.373138 -1.53593,-4.676349 -2.55747,-6.894672 -0.46619,0.449508 -0.85451,0.909488 -1.15652,1.369944 z M 54.782715,124.56651 c 0.03257,-0.0105 0.06495,-0.0224 0.09715,-0.0356 0.43611,-0.17875 0.832778,-0.60071 1.16737,-1.24179 -1.740685,-5.01045 -2.709283,-10.35654 -2.749184,-15.8967 -0.0042,-0.58141 0.006,-1.15992 0.02222,-1.73736 -0.225046,-0.1138 -0.448413,-0.17176 -0.667142,-0.17312 h -1.2e-5 c -0.168186,-10e-4 -0.333121,0.0314 -0.493511,0.0971 -0.763836,0.4411 -1.206491,1.46147 -1.388547,1.85113 -2.64e-4,-0.0451 7.94e-4,-0.0898 5.29e-4,-0.13487 h -1e-5 c -0.858693,2.08448 -1.079822,5.59707 -0.574125,9.11985 0.590033,4.11065 2.041891,7.37212 3.594611,8.07496 z M 156.23232,112.29186 c 0.51495,0.12779 1.0493,0.2414 1.5968,0.33951 0.26366,-2.11709 0.39653,-4.26858 0.39533,-6.44508 -0.20759,-0.005 -0.41372,-0.007 -0.61805,-0.006 v 3.2e-4 c -0.34247,0.001 -0.6794,0.009 -1.00924,0.0248 l -0.90279,0.0605 c -0.57825,0.052 -1.12386,0.12735 -1.62832,0.2248 -0.01,1.69201 -0.10894,3.36663 -0.29249,5.01984 0.48546,0.1956 1.01392,0.37758 1.57716,0.54312 z m 4.51859,-5.93297 c -0.54231,-0.062 -1.08653,-0.1082 -1.62678,-0.13798 -2.4e-4,2.21376 -0.13677,4.40161 -0.40617,6.55464 0.0288,0.004 0.0575,0.008 0.0863,0.0124 0.50659,0.0718 1.0181,0.12981 1.52962,0.17363 l 0.90175,0.0626 c 0.55385,0.0293 1.10111,0.0413 1.63556,0.0357 0.25125,-2.0695 0.38653,-4.16933 0.40721,-6.29108 -0.529,-0.11237 -1.073,-0.2099 -1.62574,-0.29146 v -5e-5 z m -106.5444,0.029 c -0.0045,0.33276 -0.0086,0.66588 -0.0062,0.99994 0.03648,5.06415 0.863341,9.96374 2.356964,14.58671 0.32417,-1.12131 0.512128,-2.52238 0.546219,-4.07159 -0.636029,-2.67484 -1.044495,-5.43032 -1.201478,-8.24549 -0.48007,-1.41362 -1.065565,-2.54266 -1.695513,-3.26957 z m 98.9583,0.31316 c -0.66445,0.18459 -1.21718,0.4132 -1.63918,0.67799 -0.0235,0.92465 -0.0757,1.84348 -0.15451,2.75591 0.38663,0.34426 0.90587,0.67863 1.53996,0.99167 0.15317,-1.45939 0.23843,-2.93567 0.25373,-4.42557 z m 12.63282,0.75913 c -0.50753,-0.17573 -1.05034,-0.33705 -1.62057,-0.48163 -0.0269,2.04113 -0.16081,4.06117 -0.39791,6.05441 0.57829,-0.0288 1.13197,-0.0793 1.65313,-0.15089 l 0.92449,-0.15607 c 0.64286,-0.13078 1.21037,-0.29725 1.68775,-0.49506 0.11696,-1.1933 0.1987,-2.3952 0.24598,-3.60443 -0.44469,-0.29113 -0.98285,-0.56933 -1.60042,-0.82734 z m 3.3631,1.8743 c -0.0396,0.79456 -0.0944,1.58578 -0.16381,2.3735 0.30546,-0.22866 0.51691,-0.47831 0.62942,-0.74311 0.21814,-0.51419 0.0583,-1.07377 -0.46561,-1.63039 z m -22.2529,22.18521 c 0.27285,0.3448 0.57484,0.68825 0.9033,1.02733 0.0725,0.0748 0.14621,0.14944 0.22118,0.22376 1.55265,-2.49335 2.89617,-5.1232 4.00595,-7.86361 -0.562,-0.13434 -1.10842,-0.2302 -1.63194,-0.28629 l -0.9493,-0.0584 c -0.0414,-4.6e-4 -0.0825,-6.4e-4 -0.1235,-5.3e-4 v 3e-5 c -0.46806,8.8e-4 -0.90672,0.0393 -1.31052,0.11472 -0.14567,0.0273 -0.28665,0.0593 -0.42271,0.0961 -0.64075,1.44813 -1.3518,2.86074 -2.13165,4.23179 0.18863,0.55465 0.47947,1.13337 0.86506,1.72134 z m -0.55966,-6.17947 c -0.74914,0.53127 -1.13973,1.30925 -1.13533,2.26136 0.39932,-0.74214 0.77646,-1.49687 1.13533,-2.26136 z m 4.35891,9.60665 c 0.44493,0.29953 0.90473,0.58343 1.37511,0.84904 1.80854,-2.85093 3.36419,-5.86984 4.64158,-9.0196 -0.47599,-0.26575 -0.96088,-0.51183 -1.45005,-0.73587 l -0.82733,-0.35657 c -0.5127,-0.20685 -1.02452,-0.38731 -1.53014,-0.5395 -1.15968,2.88146 -2.57258,5.64331 -4.21215,8.25634 0.39807,0.35304 0.82153,0.69596 1.26607,1.02526 z m 8.17573,-6.77991 c -0.44007,-0.3247 -0.8991,-0.63493 -1.37253,-0.92759 -1.28008,3.13521 -2.83234,6.1413 -4.63124,8.98395 0.48912,0.24862 0.98424,0.47552 1.48053,0.67851 l 0.85783,0.32659 c 0.54188,0.19063 1.07864,0.35007 1.60403,0.47646 1.53706,-2.50021 2.89956,-5.11296 4.06952,-7.82123 -0.39168,-0.391 -0.81659,-0.77371 -1.26969,-1.1436 z m -90.669404,9.48728 c -0.788932,-3.11941 -2.678613,-6.29836 -5.014164,-8.43515 -0.451385,-0.41274 -0.912337,-0.77987 -1.376143,-1.09605 l -1.397314,-0.79328 c -0.70641,-0.31863 -1.391222,-0.5002 -2.030884,-0.53846 h -1.6e-5 c 2.461916,5.5586 5.918893,10.61206 10.132197,14.93293 0.100856,-0.71543 0.102776,-1.50679 0.0057,-2.34921 z m -12.89172,-9.35351 v 8e-5 c -0.274793,0.42485 -0.483294,0.92935 -0.620633,1.50171 -0.05498,0.22903 -0.09844,0.46842 -0.130225,0.71727 2.667973,5.4967 6.22826,10.50924 10.485665,14.84354 0.659347,-0.0142 1.253365,-0.19006 1.759066,-0.5209 l 0.678511,-0.59841 c 0.342695,-0.3992 0.611267,-0.89636 0.798401,-1.47795 -4.551611,-4.56537 -8.263948,-9.95939 -10.855669,-15.91737 -0.553099,0.10602 -1.045532,0.34083 -1.461926,0.69711 z m -0.774112,4.17656 c 0.321413,3.61871 2.468377,7.80177 5.364014,10.45104 1.22115,1.11722 2.498352,1.88793 3.699515,2.23243 -3.572946,-3.78587 -6.634673,-8.05234 -9.063529,-12.68347 z m 106.092236,5.50148 c 0.0759,-0.0112 0.15068,-0.0236 0.22427,-0.0372 2.54585,-0.4754 3.45613,-2.36623 2.34249,-4.86585 v -1e-5 l -0.53381,-0.99581 c -0.30652,-0.49126 -0.67841,-0.98723 -1.10898,-1.47898 -1.10725,2.51929 -2.37768,4.95674 -3.79977,7.29723 0.62712,0.10572 1.22598,0.15875 1.78594,0.15813 0.70905,-0.0302 0.61547,-0.0217 1.08986,-0.0775 z m -23.8032,0.79685 c -2.47042,0.17929 -4.29064,1.74443 -4.93769,4.24573 1.74265,-1.30073 3.39288,-2.7199 4.93769,-4.24573 z m -4.98058,8.45841 c 0.10694,0.54479 0.25352,1.09532 0.43822,1.64589 3.68392,-2.41378 7.0462,-5.28953 10.00352,-8.5354 -0.24974,-0.1555 -0.50164,-0.30051 -0.75499,-0.4346 -0.23736,-0.12553 -0.47579,-0.24138 -0.71469,-0.34726 l -0.90177,-0.3514 c -0.62257,-0.20925 -1.23923,-0.34714 -1.83968,-0.41134 h 2e-5 c -1.96763,2.01473 -4.11214,3.8565 -6.40633,5.4994 -0.0563,0.62303 -0.0478,1.27653 0.0253,1.94975 z m 1.90273,4.76198 c 0.28073,0.45795 0.58523,0.90339 0.91105,1.33273 4.19403,-2.70229 8.01691,-5.94428 11.36572,-9.6206 -0.33975,-0.42437 -0.69937,-0.82994 -1.0759,-1.21336 l -0.64958,-0.62425 c -0.40519,-0.36713 -0.82464,-0.70729 -1.2547,-1.01751 -3.07604,3.39297 -6.58676,6.38989 -10.43967,8.89248 0.2025,0.49584 0.43449,0.98695 0.69401,1.46916 z m -47.303056,-1.02839 c -0.08993,-0.22705 -0.188528,-0.45321 -0.29559,-0.678 -0.268058,-0.56171 -0.588127,-1.11309 -0.956014,-1.64692 -3.345976,-1.5775 -6.483939,-3.54372 -9.351883,-5.83686 -0.479341,-0.0629 -0.953432,-0.0938 -1.418518,-0.0925 v 3e-5 c -0.38217,0.001 -0.757494,0.0241 -1.123963,0.0687 l -1.124479,0.21242 c -0.599185,0.1558 -1.16083,0.37506 -1.675866,0.65422 4.797007,4.42226 10.434868,7.94729 16.612939,10.28878 -0.02894,-0.60685 -0.127471,-1.22675 -0.29404,-1.85001 z m -8.510593,-7.69201 c 1.855095,1.36193 3.815482,2.58587 5.861659,3.66179 -1.627083,-1.68538 -3.686283,-2.97177 -5.861659,-3.66179 z m 69.539939,2.57142 c -0.27332,-0.48204 -0.57321,-0.95245 -0.8971,-1.40715 -3.35291,3.6591 -7.16915,6.89186 -11.35073,9.59528 0.35711,0.41951 0.73351,0.8182 1.12603,1.19269 l 0.69505,0.62374 c 0.44352,0.37381 0.90152,0.71515 1.36943,1.02061 3.69172,-2.48554 7.10622,-5.3594 10.18232,-8.55865 -0.19071,-0.54447 -0.41782,-1.08632 -0.67903,-1.62006 z m -79.437009,0.17777 c -0.282859,0.49302 -0.497808,1.02754 -0.641305,1.59473 5.248389,4.76643 11.391781,8.56394 18.113108,11.08873 0.373199,-0.41353 0.686288,-0.8745 0.93431,-1.37563 l 0.340547,-0.83457 c 0.166502,-0.50926 0.271901,-1.04664 0.314709,-1.60455 -6.482987,-2.40923 -12.390853,-6.09424 -17.388602,-10.74302 -0.438486,0.32513 -0.8271,0.6999 -1.160137,1.1188 z m 52.050049,1.66708 c -1.71044,0.64937 -3.46954,1.19338 -5.26892,1.62626 -0.81133,0.57314 -1.53492,1.28227 -2.14664,2.10374 3.59821,-0.65037 7.059,-1.73094 10.32753,-3.18585 -0.94747,-0.34094 -1.92905,-0.52436 -2.91197,-0.54415 z m 29.17083,3.53149 c -0.0622,-0.62937 -0.18093,-1.2736 -0.3545,-1.92339 v 3e-5 c -2.93124,3.00087 -6.15968,5.7118 -9.633,8.08374 0.0465,0.0253 0.093,0.0503 0.13952,0.0749 0.5258,0.27803 1.05624,0.50823 1.58492,0.68782 l 1.125,0.30589 c 0.91324,0.18557 1.79343,0.20791 2.60811,0.0662 1.40676,-1.08421 2.76776,-2.22501 4.08399,-3.41478 0.21142,-0.54747 0.35679,-1.14368 0.43356,-1.77818 0.0348,-0.2886 0.0553,-0.58455 0.0615,-0.88677 v -5e-5 z m -38.35166,3.92848 c -0.1408,0.54512 -0.24206,1.10375 -0.30283,1.6707 6.03797,-0.72009 11.77272,-2.53005 17.00362,-5.22035 -0.35069,-0.44148 -0.73101,-0.85307 -1.1374,-1.23094 l -0.74673,-0.63304 c -0.5084,-0.39236 -1.04623,-0.73333 -1.60661,-1.01854 -3.80173,1.77254 -7.87006,3.04586 -12.11813,3.73207 -0.31763,0.55521 -0.58697,1.14424 -0.8046,1.75959 z m -13.589869,-4.53409 c -0.953476,-1.9e-4 -1.894986,0.11174 -2.799313,0.33279 2.8102,0.66112 5.711822,1.05615 8.674922,1.15756 -0.3784,-0.20588 -0.76946,-0.39209 -1.17099,-0.55759 -1.48882,-0.6136 -3.097181,-0.93248 -4.704619,-0.93276 z m 9.024769,4.01113 c -0.5023,-0.58353 -1.07583,-1.11892 -1.70945,-1.59577 -4.03162,-0.007 -7.960855,-0.54946 -11.717634,-1.55856 v -1e-5 c -0.71992,0.29898 -1.393191,0.67142 -2.006595,1.11001 l -0.837676,0.67332 v -4e-5 c -0.444929,0.40223 -0.843684,0.84198 -1.191141,1.31361 5.114359,1.72295 10.567324,2.64321 16.197976,2.60243 0.94409,-0.007 1.88211,-0.0428 2.8143,-0.10232 -0.2391,-0.54504 -0.53387,-1.07264 -0.88057,-1.57613 z m 22.61263,-0.89194 c -0.23842,-0.48636 -0.5084,-0.95395 -0.80771,-1.39888 h -5e-5 c -5.40683,2.79875 -11.34634,4.67374 -17.60461,5.39812 -0.0163,0.54024 0.004,1.08297 0.06,1.62367 l 0.12552,0.88928 c 0.096,0.53644 0.22766,1.06604 0.39378,1.5844 6.64168,-0.78308 12.95042,-2.76611 18.70583,-5.71748 -0.13401,-0.53014 -0.30312,-1.05025 -0.50591,-1.55598 z m -61.210788,-1.32097 v 9e-5 c 0.118974,0.3293 0.256291,0.65723 0.411345,0.98237 0.439607,0.92175 1.018245,1.81359 1.715659,2.64428 2.475359,1.75411 5.082047,3.33107 7.801591,4.70824 1.308342,0.2642 2.590409,0.29509 3.772895,0.0909 0.05398,-0.009 0.107725,-0.0192 0.161232,-0.0295 l 1.378725,-0.39413 c 0.663737,-0.2576 1.265993,-0.60091 1.793174,-1.02216 -6.4868,-2.49406 -12.434684,-6.15582 -17.562753,-10.72079 -0.06695,0.71775 -0.02893,1.46604 0.113172,2.22725 z m 62.452528,6.33094 c -0.0177,-0.57504 -0.0763,-1.14975 -0.17518,-1.71876 h -1e-5 c -5.72968,2.90673 -11.99488,4.8698 -18.58595,5.67201 0.0172,0.0423 0.0346,0.0845 0.0522,0.1266 0.2039,0.48639 0.43861,0.95736 0.70229,1.40922 l 0.53742,0.83819 c 0.36697,0.5218 0.77355,1.00845 1.21492,1.45418 5.60381,-0.87787 10.97094,-2.53801 15.98507,-4.86379 0.1377,-0.62484 0.22417,-1.26474 0.25838,-1.91203 z M 87.471662,157.6932 c -0.116796,0.54037 -0.177326,1.09172 -0.180867,1.64744 5.642888,1.90345 11.661045,2.9195 17.875395,2.87011 1.11387,-0.009 2.21944,-0.0557 3.31814,-0.13126 0.10696,-0.53756 0.15849,-1.08524 0.154,-1.63659 l -0.0568,-0.8971 c -0.0636,-0.53746 -0.17994,-1.07189 -0.34778,-1.59732 -1.03897,0.072 -2.08463,0.11639 -3.13831,0.12402 -5.815197,0.0421 -11.443022,-0.92348 -16.713705,-2.72541 -0.102095,0.17603 -0.197402,0.35527 -0.285771,0.53743 -0.147852,0.30545 -0.276027,0.61873 -0.383955,0.93845 z m 41.145808,7.29671 c 0.4133,-0.68216 0.75196,-1.41878 1.00924,-2.19522 -4.67634,2.09936 -9.64636,3.63385 -14.82235,4.50774 0.62191,0.50704 1.29104,0.9355 1.99419,1.27692 l 1.55185,0.5948 c 2.1075,0.60232 4.30266,0.42803 6.2482,-0.49609 1.14221,-0.54276 2.169,-1.33022 3.0241,-2.31924 z m -40.413037,-1.77768 v 1e-5 c 0.361136,0.73096 0.823109,1.42487 1.375111,2.06551 4.98017,1.31404 10.188699,2.00275 15.531866,1.96887 0.65813,-0.48336 1.23983,-1.04024 1.73168,-1.65778 l 0.64492,-0.93023 c 0.12478,-0.20876 0.23993,-0.42217 0.3452,-0.63975 0.16058,-0.33175 0.29793,-0.67273 0.41134,-1.02113 -1.01815,0.0644 -2.04281,0.10343 -3.07371,0.11162 -6.192563,0.0492 -12.192609,-0.94043 -17.828885,-2.80086 v 5e-5 c 0.06907,0.61558 0.207379,1.22731 0.412895,1.82625 z m 2.641701,3.30937 c 0.901319,0.75129 1.933177,1.37058 3.051492,1.83141 3.192426,1.31587 6.824204,1.23578 9.747724,-0.21497 -4.379439,-0.0789 -8.66234,-0.63721 -12.799216,-1.61644 z"
       style="display:inline;fill:#000000;fill-rule:evenodd;stroke-width:0.962361;stroke-linecap:round;stroke-dashoffset:28.3465"
       id="path916"
       sodipodi:nodetypes="cccccscccccccccccccccsccccscccccssccccccccccccssccccccscccscssccccsccccccccccccccccccccccccsccccscccccccccccccsccccccsscccccccccccccccccccccscccccccccccssccsccccccccccccccccccccccccccccccccccscccccccccsscccccsccccccccccccccccccccscccccccccsccccccccscccccccccccccccccccccccccscssccssccccccccccccccccccccccccccccccssccccccccccccccccccccccccssccccccccccccccccccccccccccccccsscccccsccccccccccccccscccccccccccccccssccccccccccccccccccccccccccccccccccccccccccccccccccccccccccccscccccccccccscccsccsscccccccccssccccccccssccscccccccsccccccccccccccccsccccccsccccccsccccccscscccccccc" />
    <path
       d="m 122.2458,37.921671 c 0.34206,0.880298 1.36565,1.55359 2.28252,1.048685 1.62922,-0.824298 2.67451,-2.41808 3.72209,-3.852171 0.55504,-0.86798 1.20146,-1.700978 1.63559,-2.633591 0.2478,-0.817104 0.63316,-1.606455 0.59761,-2.481315 0.12971,-2.249678 0.35991,-4.587116 -0.32888,-6.771481 -0.23984,-0.872338 -1.11807,-1.629393 -2.05212,-1.299724 -0.93988,0.251818 -2.09719,1.004165 -1.8279,2.137026 0.43407,1.45399 1.74929,2.402702 2.87356,3.319577 1.18536,0.867426 2.39916,1.727962 3.69159,2.419137 0.83428,0.250828 1.63882,0.648875 2.5313,0.614162 2.24968,0.12972 4.58712,0.359923 6.77148,-0.328867 0.87234,-0.239839 1.6294,-1.118071 1.29973,-2.052118 -0.25182,-0.939887 -1.00417,-2.097191 -2.13703,-1.827905 -1.45399,0.43407 -2.4027,1.749291 -3.31957,2.873562 -0.86743,1.185359 -1.72797,2.399159 -2.41914,3.691591 -0.2508,0.834281 -0.64885,1.638823 -0.61415,2.531304 -0.12971,2.249684 -0.35991,4.587115 0.32888,6.771482 0.23984,0.872334 1.11807,1.629394 2.05211,1.29973 0.93989,-0.251823 2.0972,-1.004168 1.82791,-2.13703 -0.43407,-1.453986 -1.74929,-2.402695 -2.87356,-3.319574 -1.18537,-0.86742 -2.39917,-1.727961 -3.69159,-2.419143 -0.83428,-0.250828 -1.63882,-0.648875 -2.5313,-0.61417 -2.24968,-0.129711 -4.58712,-0.359914 -6.77148,0.328875 -0.87234,0.239836 -1.6294,1.118073 -1.29973,2.052124 0.0586,0.225437 0.14774,0.441959 0.25208,0.649834 z m 25.01315,11.730931 c 0.08,0.854126 0.80696,1.696806 1.73351,1.483594 1.62831,-0.315184 2.93774,-1.4478 4.20947,-2.440327 0.70068,-0.620365 1.47251,-1.187451 2.08362,-1.894338 0.41961,-0.652288 0.95251,-1.246134 1.13891,-2.019318 0.67255,-1.933246 1.4547,-3.918189 1.39591,-5.997835 0.007,-0.82176 -0.57181,-1.70149 -1.46981,-1.645648 -0.88376,-0.01363 -2.08188,0.356003 -2.12821,1.412696 0.0178,1.378217 0.93105,2.534017 1.68539,3.614537 0.82,1.052503 1.66656,2.106056 2.62392,3.031187 0.66654,0.426526 1.2705,0.974279 2.05887,1.165803 1.93325,0.67255 3.91819,1.454705 5.99783,1.395908 0.82176,0.0073 1.70149,-0.571803 1.64565,-1.469807 0.0136,-0.883754 -0.356,-2.081879 -1.41269,-2.128213 -1.37822,0.01781 -2.53402,0.93106 -3.61454,1.685395 -1.0525,0.82 -2.10606,1.666558 -3.03119,2.623917 -0.4265,0.666549 -0.97425,1.270513 -1.16578,2.058879 -0.67256,1.933252 -1.45471,3.918189 -1.39591,5.997837 -0.007,0.821758 0.5718,1.70149 1.4698,1.645653 0.88376,0.01362 2.08189,-0.356006 2.12822,-1.412699 -0.0178,-1.378213 -0.93106,-2.534012 -1.6854,-3.614535 -0.82,-1.052499 -1.66656,-2.106056 -2.62391,-3.031193 -0.66654,-0.426525 -1.2705,-0.974278 -2.05887,-1.165808 -1.93325,-0.672543 -3.91819,-1.454698 -5.99783,-1.395901 -0.82177,-0.0073 -1.7015,0.571804 -1.64566,1.469811 -0.005,0.211528 0.0192,0.422854 0.0587,0.630405 z m 16.99646,20.122603 c -0.16712,0.899153 0.33241,1.975292 1.34468,2.026981 1.76159,0.151858 3.43467,-0.627495 5.02824,-1.2742 0.89945,-0.431692 1.85631,-0.787999 2.68916,-1.334541 0.62056,-0.546426 1.34023,-0.999878 1.75693,-1.738303 1.25362,-1.786104 2.63471,-3.593241 3.18114,-5.742822 0.24722,-0.840487 -0.0899,-1.911492 -1.02702,-2.116215 -0.90221,-0.271798 -2.23857,-0.242326 -2.59436,0.827668 -0.38382,1.418391 0.21541,2.869957 0.67367,4.19797 0.53375,1.318441 1.09444,2.645709 1.80619,3.873617 0.55903,0.631807 1.01851,1.369662 1.77102,1.796046 1.7861,1.253622 3.59324,2.634713 5.74282,3.181138 0.84049,0.247226 1.91149,-0.08992 2.11621,-1.027011 0.2718,-0.90221 0.24233,-2.238578 -0.82766,-2.594366 -1.41839,-0.383819 -2.86996,0.215419 -4.19797,0.673669 -1.31844,0.533756 -2.64572,1.094436 -3.87362,1.806196 -0.63179,0.559039 -1.36964,1.018532 -1.79603,1.771029 -1.25363,1.786109 -2.63471,3.59324 -3.18114,5.742823 -0.24722,0.840485 0.0899,1.911492 1.02701,2.116219 0.90221,0.271794 2.23858,0.242325 2.59437,-0.827671 0.38382,-1.418387 -0.21542,-2.869952 -0.67367,-4.197968 -0.53376,-1.318437 -1.09444,-2.645709 -1.80619,-3.873621 -0.55903,-0.631807 -1.01852,-1.369661 -1.77102,-1.79605 -1.7861,-1.253617 -3.59324,-2.634707 -5.74282,-3.181132 -0.84049,-0.247229 -1.91149,0.08993 -2.11622,1.027014 -0.0667,0.215487 -0.10366,0.439194 -0.12372,0.66353 z m 10.04317,25.188318 c -0.37614,0.757369 -0.20419,1.840822 0.68299,2.14293 1.52823,0.580796 3.21337,0.311031 4.79424,0.139115 0.90915,-0.156331 1.85028,-0.231093 2.72927,-0.506415 0.69015,-0.328938 1.44492,-0.550112 2.00236,-1.101385 1.56684,-1.271248 3.25237,-2.528949 4.28224,-4.302398 0.43254,-0.684924 0.4037,-1.722724 -0.37789,-2.141908 -0.7336,-0.47001 -1.92954,-0.781946 -2.5167,0.07962 -0.70025,1.164316 -0.53462,2.606882 -0.46311,3.903893 0.14108,1.307602 0.30388,2.62987 0.62617,3.901999 0.33729,0.703344 0.55923,1.475816 1.12058,2.045426 1.27125,1.56684 2.52895,3.25237 4.30239,4.28224 0.68493,0.43254 1.72273,0.4037 2.14191,-0.37789 0.47001,-0.73359 0.78195,-1.92954 -0.0796,-2.5167 -1.16432,-0.700247 -2.60689,-0.534615 -3.9039,-0.46311 -1.3076,0.14108 -2.62987,0.30388 -3.902,0.62617 -0.70333,0.33732 -1.4758,0.55926 -2.04541,1.1206 -1.56685,1.27125 -3.25237,2.52894 -4.28225,4.3024 -0.43254,0.68492 -0.4037,1.72272 0.37789,2.14191 0.7336,0.47 1.92954,0.78194 2.51671,-0.0796 0.70024,-1.16432 0.53461,-2.60688 0.4631,-3.90389 -0.14109,-1.30761 -0.30388,-2.62988 -0.62616,-3.90201 -0.3373,-0.703338 -0.55924,-1.475809 -1.12058,-2.045423 -1.27125,-1.56684 -2.52895,-3.252367 -4.3024,-4.282242 -0.68492,-0.432543 -1.72273,-0.403698 -2.14191,0.377891 -0.11382,0.174773 -0.20332,0.364365 -0.27793,0.558799 z m -1.04585,26.467647 c -0.57548,0.6326 -0.70807,1.73407 0.0713,2.27347 1.32578,0.98789 3.0396,1.19185 4.6249,1.46214 0.92761,0.0995 1.86374,0.28728 2.79494,0.26274 0.76235,-0.12896 1.55773,-0.13522 2.25253,-0.51717 1.8759,-0.80293 3.8635,-1.55983 5.35608,-2.99986 0.61029,-0.54653 0.86945,-1.56399 0.2252,-2.18804 -0.5835,-0.66021 -1.66048,-1.29461 -2.47006,-0.61906 -1.00336,0.93875 -1.24149,2.38778 -1.53088,3.66919 -0.22465,1.31096 -0.43224,2.6422 -0.47081,3.96881 0.13344,0.77749 0.13554,1.59031 0.52392,2.29973 0.80293,1.8759 1.55983,3.86351 2.99986,5.35608 0.54652,0.61029 1.56398,0.86945 2.18803,0.22521 0.66021,-0.58351 1.29462,-1.66049 0.61907,-2.47006 -0.93875,-1.00337 -2.38779,-1.24149 -3.66919,-1.53089 -1.31096,-0.22465 -2.6422,-0.43224 -3.96881,-0.47081 -0.77749,0.13346 -1.5903,0.13557 -2.29972,0.52394 -1.87592,0.80293 -3.86351,1.55983 -5.35609,2.99986 -0.61029,0.54653 -0.86945,1.56399 -0.22521,2.18804 0.58351,0.66021 1.66049,1.29461 2.47006,0.61906 1.00337,-0.93874 1.24149,-2.38778 1.53089,-3.66919 0.22464,-1.31096 0.43223,-2.6422 0.47081,-3.96881 -0.13344,-0.77749 -0.13554,-1.59031 -0.52391,-2.29973 -0.80294,-1.8759 -1.55984,-3.8635 -2.99987,-5.35608 -0.54652,-0.61029 -1.56398,-0.86945 -2.18804,-0.2252 -0.15908,0.1385 -0.29861,0.29815 -0.42499,0.46663 z m -11.33331,22.99925 c -0.8124,0.50421 -1.29198,1.64812 -0.61893,2.46661 1.12345,1.46797 2.90401,2.21166 4.52608,2.98735 0.96705,0.39086 1.91629,0.87917 2.92517,1.13768 0.85926,0.0946 1.71649,0.3312 2.58051,0.13304 2.26293,-0.28949 4.63189,-0.4953 6.67754,-1.58718 0.82349,-0.40099 1.41348,-1.41584 0.91162,-2.28403 -0.42548,-0.88849 -1.38951,-1.90021 -2.46679,-1.42145 -1.3662,0.7025 -2.06561,2.18788 -2.76887,3.47731 -0.64268,1.34102 -1.27322,2.70906 -1.72058,4.12384 -0.0944,0.87692 -0.34082,1.75162 -0.14022,2.63333 0.28948,2.26294 0.4953,4.6319 1.58718,6.67755 0.40099,0.82349 1.41583,1.41348 2.28402,0.91162 0.88849,-0.42548 1.90022,-1.38951 1.42145,-2.46679 -0.7025,-1.3662 -2.18788,-2.06561 -3.4773,-2.76887 -1.34102,-0.64268 -2.70907,-1.27322 -4.12385,-1.72058 -0.87691,-0.0944 -1.75162,-0.34079 -2.63333,-0.1402 -2.26294,0.28948 -4.63189,0.4953 -6.67754,1.58718 -0.82349,0.40099 -1.41349,1.41583 -0.91163,2.28402 0.42548,0.88849 1.38952,1.90022 2.4668,1.42145 1.36619,-0.70249 2.0656,-2.18788 2.76886,-3.4773 0.64268,-1.34102 1.27322,-2.70907 1.72059,-4.12384 0.0944,-0.87692 0.34082,-1.75162 0.14022,-2.63333 -0.28949,-2.26294 -0.4953,-4.6319 -1.58718,-6.67755 -0.40099,-0.82349 -1.41583,-1.41348 -2.28403,-0.91162 -0.21344,0.10027 -0.41233,0.22926 -0.59979,0.37176 z m -18.28175,18.55114 c -0.90381,0.25819 -1.66503,1.2108 -1.24882,2.16581 0.66736,1.69029 2.15091,2.87252 3.47599,4.04236 0.80925,0.62974 1.57545,1.34684 2.45985,1.86269 0.78704,0.32059 1.53395,0.77496 2.40423,0.82003 2.21762,0.33507 4.51298,0.77777 6.74101,0.29567 0.88654,-0.15761 1.71743,-0.95848 1.47646,-1.91442 -0.16329,-0.95459 -0.80266,-2.17059 -1.95009,-2.0077 -1.48081,0.2967 -2.54176,1.51305 -3.55362,2.54309 -0.96847,1.09511 -1.93272,2.21904 -2.73634,3.43645 -0.32517,0.80378 -0.7935,1.56457 -0.84103,2.45225 -0.33507,2.21761 -0.77778,4.51297 -0.29567,6.741 0.15761,0.88654 0.95848,1.71743 1.91442,1.47646 0.95458,-0.16329 2.17058,-0.80266 2.0077,-1.95009 -0.29671,-1.48081 -1.51306,-2.54175 -2.54309,-3.55362 -1.09511,-0.96846 -2.21905,-1.93272 -3.43645,-2.73634 -0.80379,-0.32514 -1.56458,-0.79347 -2.45225,-0.84101 -2.21763,-0.33507 -4.51298,-0.77777 -6.74101,-0.29567 -0.88654,0.15762 -1.71743,0.95848 -1.47646,1.91442 0.16328,0.95459 0.80265,2.17059 1.95009,2.0077 1.4808,-0.2967 2.54174,-1.51306 3.55361,-2.54309 0.96846,-1.09512 1.93272,-2.21905 2.73635,-3.43645 0.32516,-0.80378 0.7935,-1.56457 0.84103,-2.45224 0.33506,-2.21762 0.77777,-4.51298 0.29567,-6.74101 -0.15761,-0.88654 -0.95848,-1.71743 -1.91443,-1.47646 -0.22879,0.0374 -0.45156,0.10585 -0.66715,0.19017 z m -24.06958,9.06442 c -1.02961,0.001 -2.11714,0.77655 -1.9649,1.90746 0.19642,1.98085 1.40504,3.67109 2.45041,5.30078 0.66382,0.90604 1.2561,1.89121 2.03324,2.69979 0.73309,0.57368 1.38379,1.27627 2.28717,1.58462 2.23594,1.01776 4.52153,2.17222 7.01338,2.33216 0.98126,0.0997 2.09671,-0.49501 2.12938,-1.57437 0.11411,-1.05465 -0.195,-2.52742 -1.4527,-2.69977 -1.64905,-0.13128 -3.13142,0.83219 -4.50623,1.61407 -1.34859,0.86346 -2.70139,1.75854 -3.91297,2.80025 -0.58351,0.74935 -1.30498,1.4105 -1.62113,2.33147 -1.01776,2.23593 -2.17222,4.52152 -2.33216,7.01337 -0.0997,0.98126 0.495,2.09672 1.57437,2.12939 1.05465,0.11411 2.52742,-0.195 2.69976,-1.45271 0.13128,-1.64905 -0.83218,-3.13141 -1.61406,-4.50623 -0.86346,-1.34859 -1.75854,-2.70139 -2.80026,-3.91296 -0.74936,-0.58349 -1.41052,-1.30496 -2.33147,-1.62112 -2.23595,-1.01776 -4.52153,-2.17222 -7.01338,-2.33216 -0.98126,-0.0997 -2.09671,0.495 -2.12939,1.57437 -0.11411,1.05465 0.195,2.52742 1.45271,2.69977 1.64904,0.13128 3.13141,-0.83219 4.50622,-1.61407 1.34859,-0.86346 2.70139,-1.75855 3.91298,-2.80025 0.58351,-0.74935 1.30498,-1.4105 1.62114,-2.33146 1.01775,-2.23594 2.17221,-4.52153 2.33215,-7.01338 0.0997,-0.98126 -0.495,-2.09671 -1.57437,-2.12939 -0.25226,-0.0292 -0.50748,-0.0238 -0.75989,3.7e-4 z m -25.464513,-0.23973 c -1.056335,-0.29933 -2.39805,0.17865 -2.571922,1.38298 -0.376581,2.08897 0.369798,4.17525 0.966415,6.15179 0.416449,1.123 0.736427,2.30626 1.29754,3.36236 0.584482,0.80231 1.046848,1.71281 1.883415,2.29269 1.996282,1.69633 4.003594,3.54737 6.512675,4.43857 0.97734,0.38859 2.29494,0.10415 2.64342,-0.99336 0.4248,-1.0484 0.53754,-2.64914 -0.70213,-3.19292 -1.65303,-0.61587 -3.45456,-0.0603 -5.092797,0.34047 -1.63515,0.49206 -3.283833,1.01534 -4.830471,1.7302 -0.817153,0.5983 -1.750054,1.06587 -2.343069,1.9182 -1.696332,1.99628 -3.547368,4.00359 -4.43857,6.51267 -0.388594,0.97734 -0.104154,2.29493 0.993361,2.64342 1.048397,0.4248 2.649141,0.53754 3.192921,-0.70213 0.615863,-1.65303 0.06026,-3.45457 -0.340478,-5.0928 -0.492063,-1.63515 -1.015332,-3.28384 -1.730204,-4.83047 -0.598314,-0.81713 -1.065889,-1.75003 -1.918205,-2.34305 -1.996288,-1.69634 -4.003592,-3.54737 -6.512679,-4.43857 -0.977333,-0.38859 -2.294934,-0.10416 -2.643421,0.99335 -0.424796,1.0484 -0.537538,2.64915 0.702129,3.19293 1.653027,0.61586 3.454563,0.0603 5.092798,-0.34048 1.635147,-0.49207 3.283835,-1.01534 4.830476,-1.7302 0.817153,-0.59829 1.750052,-1.06586 2.343073,-1.91818 1.696327,-1.99629 3.547362,-4.0036 4.438564,-6.51268 0.388598,-0.97734 0.104153,-2.29494 -0.993364,-2.64342 -0.250209,-0.10356 -0.51353,-0.17254 -0.779477,-0.22137 z m -23.50478,-9.26755 c -0.956293,-0.59069 -2.411364,-0.49593 -2.919979,0.64125 -0.956057,1.95146 -0.805602,4.21489 -0.77187,6.3283 0.09545,1.22246 0.07903,2.47725 0.335666,3.67437 0.350753,0.95377 0.550953,1.97985 1.212245,2.78522 1.490457,2.22962 2.948435,4.61467 5.169403,6.19516 0.853496,0.65645 2.230599,0.7455 2.881222,-0.23757 0.712012,-0.91332 1.271487,-2.45796 0.203157,-3.34071 -1.455169,-1.06954 -3.384763,-1.02718 -5.110172,-1.09154 -1.747956,0.0264 -3.517984,0.0798 -5.241205,0.3504 -0.972253,0.3602 -2.021856,0.55924 -2.844575,1.23237 -2.229623,1.49046 -4.614669,2.94843 -6.195161,5.1694 -0.656451,0.8535 -0.745506,2.2306 0.237566,2.88122 0.913324,0.71201 2.457961,1.27149 3.340715,0.20316 1.069541,-1.45517 1.027172,-3.38476 1.091533,-5.11017 -0.02642,-1.74796 -0.07978,-3.51799 -0.350396,-5.24121 -0.360222,-0.97223 -0.559274,-2.02184 -1.232392,-2.84456 -1.490462,-2.22963 -2.948434,-4.61467 -5.169405,-6.19516 -0.853495,-0.65645 -2.230598,-0.74551 -2.881224,0.23756 -0.712009,0.91333 -1.271487,2.45796 -0.203155,3.34072 1.455164,1.06954 3.38476,1.02716 5.11017,1.09153 1.747955,-0.0264 3.517986,-0.0798 5.241208,-0.35039 0.972252,-0.3602 2.021855,-0.55924 2.844577,-1.23236 2.22962,-1.49047 4.614664,-2.94844 6.195157,-5.16941 0.656454,-0.85349 0.745505,-2.2306 -0.237567,-2.88123 -0.217365,-0.17206 -0.457325,-0.31377 -0.705518,-0.43635 z m -17.59273,-18.34636 c -0.850079,-0.93046 -2.448392,-1.27474 -3.345845,-0.2044 -1.629861,1.81122 -2.162113,4.2984 -2.774216,6.58797 -0.272161,1.34767 -0.674897,2.69587 -0.765446,4.06567 0.08562,1.13622 -0.01332,2.30424 0.452737,3.37572 0.923259,2.86189 1.7638,5.88144 3.674067,8.26742 0.719036,0.96984 2.176862,1.48844 3.18018,0.62787 1.048122,-0.76651 2.125453,-2.26067 1.244166,-3.54049 -1.241163,-1.59997 -3.335154,-2.14635 -5.176191,-2.74519 -1.89321,-0.50785 -3.81849,-0.99342 -5.75995,-1.23033 -1.15906,0.0901 -2.352092,-0.0173 -3.445906,0.45623 -2.861894,0.92326 -5.881439,1.7638 -8.267423,3.67406 -0.969844,0.71904 -1.488438,2.17686 -0.627873,3.18018 0.766511,1.04812 2.26067,2.12546 3.540493,1.24417 1.599965,-1.24116 2.14635,-3.33516 2.745189,-5.17619 0.507849,-1.89321 0.993423,-3.81849 1.23033,-5.75995 -0.09016,-1.15905 0.01723,-2.35209 -0.456258,-3.4459 -0.923262,-2.8619 -1.763799,-5.88144 -3.674067,-8.26743 -0.719037,-0.96983 -2.176861,-1.48844 -3.180181,-0.62788 -1.048121,0.76652 -2.125454,2.26068 -1.244166,3.5405 1.241159,1.59996 3.335155,2.14634 5.176192,2.74519 1.89321,0.50784 3.818492,0.99341 5.75995,1.23034 1.159059,-0.0901 2.352089,0.0173 3.445904,-0.45623 2.861895,-0.92327 5.881438,-1.7638 8.267422,-3.67407 0.969847,-0.71903 1.488439,-2.17686 0.627874,-3.18019 -0.181624,-0.25226 -0.396931,-0.47871 -0.626982,-0.68707 z M 42.051004,121.83569 c -0.546862,-1.09524 -1.948581,-1.84174 -3.071539,-1.08033 -2.004151,1.25891 -3.162534,3.44109 -4.342991,5.41743 -0.612494,1.18672 -1.347121,2.33923 -1.795825,3.5949 -0.222035,1.08429 -0.624939,2.14922 -0.474336,3.27413 0.101833,2.91915 0.08448,5.9636 1.234934,8.70049 0.413967,1.09721 1.638099,1.96922 2.804203,1.43193 1.182961,-0.43751 2.586629,-1.54707 2.103475,-2.97701 -0.734272,-1.82469 -2.545358,-2.89177 -4.106178,-3.9406 -1.633747,-0.97771 -3.303381,-1.94311 -5.054225,-2.68051 -1.106816,-0.22389 -2.192864,-0.64135 -3.340628,-0.48973 -2.919153,0.10184 -5.963603,0.0845 -8.700493,1.23493 -1.09721,0.41397 -1.969217,1.6381 -1.431924,2.8042 0.437513,1.18296 1.547071,2.58663 2.977008,2.10348 1.824692,-0.73427 2.891764,-2.54536 3.940603,-4.10618 0.977698,-1.63375 1.943112,-3.30338 2.680508,-5.05423 0.223853,-1.10681 0.641308,-2.19286 0.4897,-3.34062 -0.101833,-2.91916 -0.08448,-5.96361 -1.234933,-8.7005 -0.413969,-1.0972 -1.638098,-1.96922 -2.804202,-1.43193 -1.182961,0.43752 -2.586631,1.54708 -2.103476,2.97701 0.73427,1.82469 2.545361,2.89176 4.106179,3.9406 1.633751,0.9777 3.303385,1.94311 5.054224,2.68052 1.106815,0.22389 2.192861,0.64135 3.340623,0.48973 2.919156,-0.10184 5.963605,-0.0845 8.700495,-1.23494 1.097212,-0.41396 1.969218,-1.6381 1.431927,-2.80421 -0.102629,-0.28395 -0.243587,-0.55274 -0.403129,-0.80856 z M 39.457989,97.080879 c -0.207751,-1.104647 -1.258074,-2.116098 -2.441101,-1.725836 -2.086231,0.608199 -3.657531,2.244274 -5.196606,3.693024 -0.839089,0.894124 -1.777439,1.727343 -2.489206,2.723513 -0.468526,0.90177 -1.091919,1.741 -1.241569,2.77228 -0.643549,2.60356 -1.423835,5.28782 -1.095526,7.9939 0.08989,1.07299 0.95185,2.15066 2.116667,1.96917 1.154632,-0.0892 2.673037,-0.71633 2.605645,-2.10054 -0.189973,-1.79593 -1.521268,-3.19335 -2.63613,-4.51178 -1.197139,-1.27393 -2.42906,-2.54602 -3.789989,-3.63717 -0.921201,-0.47582 -1.775423,-1.11737 -2.827138,-1.27186 -2.603559,-0.64355 -5.287825,-1.42384 -7.993905,-1.09553 -1.072987,0.0899 -2.150658,0.95184 -1.969162,2.11666 0.08914,1.15463 0.716326,2.67304 2.100538,2.60565 1.795925,-0.18998 3.193344,-1.52127 4.511776,-2.63614 1.273931,-1.19713 2.54603,-2.42905 3.637168,-3.78999 0.475793,-0.921203 1.117344,-1.775429 1.271847,-2.827137 0.64355,-2.603569 1.423835,-5.287827 1.095527,-7.99391 -0.0899,-1.072983 -0.951849,-2.150658 -2.116665,-1.969168 -1.154633,0.08915 -2.673039,0.71633 -2.605646,2.100543 0.189972,1.79592 1.521272,3.193337 2.636132,4.511772 1.197144,1.273928 2.429063,2.546025 3.789985,3.637175 0.9212,0.475823 1.775421,1.117376 2.827131,1.271876 2.603565,0.64354 5.287829,1.423829 7.993909,1.095519 1.072988,-0.08989 2.15066,-0.951848 1.969167,-2.116669 -0.01929,-0.276554 -0.07623,-0.549349 -0.152849,-0.815352 z m 7.199963,-24.349692 c 0.09607,-1.049385 -0.591536,-2.2309 -1.758423,-2.182506 -2.037239,0.01319 -3.873862,1.085351 -5.633366,1.996862 -0.98602,0.590979 -2.04592,1.101574 -2.94331,1.817234 -0.653835,0.692942 -1.431271,1.289757 -1.830795,2.181291 -1.248263,2.182585 -2.64053,4.402862 -3.038748,6.927226 -0.194222,0.9906 0.30654,2.183501 1.403446,2.318683 1.064028,0.215847 2.594117,0.03986 2.888476,-1.225609 0.289453,-1.668166 -0.552489,-3.269803 -1.219535,-4.744688 -0.752651,-1.455869 -1.53714,-2.919 -2.484381,-4.252062 -0.708592,-0.665401 -1.314269,-1.463061 -2.222989,-1.872193 -2.182582,-1.248263 -4.402858,-2.640533 -6.927222,-3.038751 -0.9906,-0.194223 -2.1835,0.306539 -2.318682,1.403445 -0.215847,1.064028 -0.03986,2.594117 1.225608,2.888476 1.668166,0.289452 3.269803,-0.552492 4.744688,-1.219536 1.455867,-0.752652 2.919003,-1.537136 4.252064,-2.484383 0.665375,-0.708606 1.463032,-1.314287 1.872173,-2.222997 1.248267,-2.182591 2.640531,-4.402861 3.03875,-6.927228 0.194218,-0.990596 -0.306539,-2.1835 -1.403442,-2.318687 -1.064031,-0.215843 -2.59412,-0.03985 -2.888479,1.225613 -0.289452,1.66816 0.552496,3.269797 1.219537,4.744684 0.752658,1.455865 1.537143,2.919001 2.484377,4.252068 0.708591,0.665401 1.314267,1.46306 2.222981,1.872199 2.18259,1.248255 4.402863,2.640525 6.927227,3.038743 0.9906,0.194227 2.183503,-0.306539 2.318689,-1.403448 0.05356,-0.254323 0.0722,-0.514919 0.07136,-0.774436 z M 62.765658,52.626971 c 0.361987,-0.937486 0.03962,-2.200691 -1.043346,-2.460831 -1.872121,-0.519572 -3.836589,-0.01544 -5.688394,0.361464 -1.058668,0.284752 -2.164125,0.476491 -3.174034,0.898739 -0.780578,0.464972 -1.649444,0.809513 -2.248581,1.523015 -1.714585,1.676229 -3.571096,3.34945 -4.595166,5.561022 -0.436675,0.857949 -0.288666,2.082836 0.682203,2.4931 0.919658,0.475675 2.369077,0.713562 2.969337,-0.370377 0.700856,-1.4546 0.346566,-3.143444 0.119623,-4.670379 -0.310429,-1.531834 -0.648165,-3.078639 -1.169133,-4.548611 -0.476309,-0.795271 -0.823701,-1.685 -1.550459,-2.297435 -1.676227,-1.714584 -3.349445,-3.571098 -5.561017,-4.595167 -0.857949,-0.436677 -2.082836,-0.288667 -2.4931,0.682201 -0.475674,0.919659 -0.713563,2.369077 0.370376,2.969338 1.454601,0.700855 3.143445,0.346564 4.670381,0.119622 1.531832,-0.310431 3.07864,-0.648161 4.548612,-1.169135 0.795251,-0.476327 1.684979,-0.823724 2.29742,-1.550471 1.714589,-1.676234 3.571095,-3.349449 4.595167,-5.561023 0.436671,-0.857947 0.288667,-2.082836 -0.682197,-2.493103 -0.919663,-0.475672 -2.369081,-0.713561 -2.969341,0.370379 -0.700855,1.454596 -0.34656,3.143441 -0.119621,4.670377 0.310436,1.531832 0.648168,3.07864 1.169128,4.548615 0.476308,0.795271 0.823699,1.684998 1.55045,2.297438 1.676236,1.71458 3.349452,3.571092 5.561024,4.595162 0.857948,0.43668 2.082838,0.288667 2.493106,-0.682203 0.115501,-0.219302 0.200607,-0.453472 0.267562,-0.691737 z m 23.549733,-12.3107 c 0.627241,-0.832534 0.664193,-2.184275 -0.34239,-2.751203 -1.720242,-1.049753 -3.823193,-1.104417 -5.777633,-1.254034 -1.137007,-0.01642 -2.294292,-0.138913 -3.421685,-0.0043 -0.910726,0.242313 -1.875349,0.339418 -2.675605,0.881179 -2.186354,1.185607 -4.513447,2.327928 -6.162865,4.243623 -0.679178,0.731984 -0.8792,1.996006 -0.02707,2.680887 0.782478,0.735602 2.160967,1.384347 3.067493,0.473338 1.112097,-1.252246 1.238018,-3.037688 1.445027,-4.625454 0.125111,-1.616351 0.227228,-3.255388 0.124734,-4.869784 -0.249452,-0.928603 -0.343479,-1.914848 -0.89469,-2.732135 -1.185606,-2.186352 -2.327924,-4.513447 -4.243618,-6.162865 -0.731984,-0.679179 -1.996006,-0.879201 -2.680887,-0.02707 -0.7356,0.782479 -1.384348,2.160968 -0.473339,3.067494 1.252247,1.112096 3.037689,1.238015 4.625456,1.445026 1.616349,0.125109 3.255388,0.227232 4.869785,0.124733 0.928588,-0.249477 1.914834,-0.343509 2.732123,-0.894708 2.18636,-1.18561 4.513447,-2.327927 6.162867,-4.243623 0.679173,-0.731984 0.879201,-1.996005 0.02707,-2.680889 -0.782483,-0.735599 -2.160971,-1.384347 -3.067497,-0.473337 -1.112095,1.252242 -1.23801,3.037687 -1.445024,4.625453 -0.125103,1.616351 -0.227225,3.25539 -0.124741,4.869786 0.249452,0.928602 0.343479,1.914847 0.894681,2.732136 1.185616,2.18635 2.327932,4.513444 4.243627,6.162861 0.731981,0.679183 1.996007,0.879202 2.680893,0.02707 0.177478,-0.186002 0.328853,-0.395464 0.463282,-0.614165 z M 111.916,36.641887 c 0.77137,-0.583876 1.14767,-1.781158 0.39311,-2.542896 -1.269,-1.374001 -3.13237,-1.956912 -4.83905,-2.586864 -1.01081,-0.303437 -2.01278,-0.706715 -3.05336,-0.872904 -0.87453,-0.015 -1.76029,-0.173316 -2.61226,0.107051 -2.252829,0.503068 -4.6203,0.93175 -6.579249,2.222923 -0.792198,0.480926 -1.291792,1.558486 -0.705059,2.38629 0.51167,0.855391 1.577445,1.784623 2.61806,1.201628 1.310791,-0.835397 1.876668,-2.397238 2.464725,-3.762022 0.522213,-1.411103 1.029653,-2.848297 1.348183,-4.315462 0.0132,-0.892299 0.17973,-1.796578 -0.10475,-2.666148 -0.50307,-2.252829 -0.931747,-4.620301 -2.22292,-6.57925 -0.480925,-0.792198 -1.558485,-1.291792 -2.386289,-0.705059 -0.85539,0.51167 -1.784624,1.577445 -1.201629,2.618059 0.835398,1.310792 2.39724,1.876667 3.762024,2.464726 1.411104,0.522206 2.848294,1.029656 4.315464,1.348186 0.89229,0.01314 1.79657,0.179692 2.66614,-0.104773 2.25284,-0.50307 4.6203,-0.93175 6.57925,-2.222923 0.7922,-0.480927 1.2918,-1.558486 0.70507,-2.386291 -0.51168,-0.855389 -1.57745,-1.784623 -2.61807,-1.201627 -1.31078,0.835394 -1.87666,2.397238 -2.46472,3.762022 -0.5222,1.411104 -1.02965,2.848299 -1.34819,4.315462 -0.0132,0.892297 -0.17972,1.796576 0.10475,2.666146 0.50307,2.25283 0.93175,4.6203 2.22292,6.579249 0.48092,0.792201 1.55849,1.291793 2.3863,0.705061 0.20567,-0.120963 0.394,-0.269498 0.56955,-0.430584 z"
       inkscape:transform-center-y="-79.399754"
       inkscape:transform-center-x="1.1104861"
       style="color:#000000;font-style:normal;font-variant:normal;font-weight:normal;font-stretch:normal;font-size:medium;line-height:normal;font-family:sans-serif;font-variant-ligatures:normal;font-variant-position:normal;font-variant-caps:normal;font-variant-numeric:normal;font-variant-alternates:normal;font-variant-east-asian:normal;font-feature-settings:normal;font-variation-settings:normal;text-indent:0;text-align:start;text-decoration:none;text-decoration-line:none;text-decoration-style:solid;text-decoration-color:#000000;letter-spacing:normal;word-spacing:normal;text-transform:none;writing-mode:lr-tb;direction:ltr;text-orientation:mixed;dominant-baseline:auto;baseline-shift:baseline;text-anchor:start;white-space:normal;shape-padding:0;shape-margin:0;inline-size:0;clip-rule:nonzero;display:inline;overflow:visible;visibility:visible;isolation:auto;mix-blend-mode:normal;color-interpolation:sRGB;color-interpolation-filters:linearRGB;solid-color:#000000;solid-opacity:1;vector-effect:none;fill:#000000;fill-opacity:1;fill-rule:evenodd;stroke:none;stroke-width:0.756202;stroke-linecap:round;stroke-linejoin:miter;stroke-miterlimit:4;stroke-dasharray:none;stroke-dashoffset:28.3465;stroke-opacity:1;color-rendering:auto;image-rendering:auto;shape-rendering:auto;text-rendering:auto;enable-background:accumulate;stop-color:#000000"
       id="path1085" />
    <g
       transform="matrix(1.0418426,0,0,1.0721006,-1.645795,-7.7234258)"
       style="display:inline"
       id="g1205">
      <rect
         style="fill:#000000;fill-rule:evenodd;stroke-width:0.663165;stroke-linecap:round;stroke-miterlimit:4;stroke-dasharray:none;stroke-dashoffset:28.3465"
         id="rect1184"
         width="8.662405"
         height="1.4773183"
         x="39.332958"
         y="104.79671"
         inkscape:transform-center-x="61.350933"
         inkscape:transform-center-y="-1.5844157" />
      <rect
         transform="matrix(-0.98928608,-0.14598992,0.13865565,-0.99034065,0,0)"
         inkscape:transform-center-y="0.16577875"
         inkscape:transform-center-x="0.057537278"
         y="-81.621719"
         x="-62.641617"
         height="1.474841"
         width="8.6771955"
         id="rect1207"
         style="fill:#000000;fill-rule:evenodd;stroke-width:0.663174;stroke-linecap:round;stroke-miterlimit:4;stroke-dasharray:none;stroke-dashoffset:28.3465" />
      <rect
         style="fill:#000000;fill-rule:evenodd;stroke-width:0.663182;stroke-linecap:round;stroke-miterlimit:4;stroke-dasharray:none;stroke-dashoffset:28.3465"
         id="rect1209"
         width="8.7156048"
         height="1.4683825"
         x="-76.890656"
         y="-54.910912"
         inkscape:transform-center-x="-0.14464576"
         inkscape:transform-center-y="0.11224355"
         transform="matrix(-0.95801075,-0.28673228,0.27659676,-0.96098607,0,0)" />
      <rect
         transform="matrix(-0.90828224,-0.41835795,0.41226045,-0.91106604,0,0)"
         inkscape:transform-center-y="-0.21985582"
         inkscape:transform-center-x="-0.23522667"
         y="-26.852301"
         x="-89.514183"
         height="1.4605736"
         width="8.7619123"
         id="rect1211"
         style="fill:#000000;fill-rule:evenodd;stroke-width:0.663173;stroke-linecap:round;stroke-miterlimit:4;stroke-dasharray:none;stroke-dashoffset:28.3465" />
      <rect
         style="fill:#000000;fill-rule:evenodd;stroke-width:0.663168;stroke-linecap:round;stroke-miterlimit:4;stroke-dasharray:none;stroke-dashoffset:28.3465"
         id="rect1213"
         width="8.7961817"
         height="1.4548644"
         x="-100.18457"
         y="0.20224121"
         inkscape:transform-center-x="-0.14659752"
         inkscape:transform-center-y="0.054562357"
         transform="matrix(-0.84247972,-0.53872806,0.54243295,-0.8400991,0,0)" />
      <rect
         transform="matrix(-0.76232052,-0.64719967,0.66251926,-0.74904488,0,0)"
         inkscape:transform-center-y="-0.3049414"
         inkscape:transform-center-x="0.3998047"
         y="27.615627"
         x="-106.18858"
         height="1.508878"
         width="7.5375657"
         id="rect1215"
         style="fill:#000000;fill-rule:evenodd;stroke-width:0.663233;stroke-linecap:round;stroke-miterlimit:4;stroke-dasharray:none;stroke-dashoffset:28.3465" />
      <rect
         style="fill:#000000;fill-rule:evenodd;stroke-width:0.663385;stroke-linecap:round;stroke-miterlimit:4;stroke-dasharray:none;stroke-dashoffset:28.3465"
         id="rect1217"
         width="8.7671986"
         height="1.4606271"
         x="-114.1682"
         y="53.740185"
         inkscape:transform-center-x="0.032887119"
         inkscape:transform-center-y="0.095522418"
         transform="matrix(-0.66843162,-0.7437736,0.76760476,-0.64092349,0,0)" />
      <rect
         transform="matrix(-0.56054327,-0.82812514,0.85389051,-0.52045268,0,0)"
         inkscape:transform-center-y="-0.35569292"
         inkscape:transform-center-x="0.25612199"
         y="79.81237"
         x="-116.87037"
         height="1.4731021"
         width="8.6970739"
         id="rect1219"
         style="fill:#000000;fill-rule:evenodd;stroke-width:0.663541;stroke-linecap:round;stroke-miterlimit:4;stroke-dasharray:none;stroke-dashoffset:28.3465" />
      <rect
         style="fill:#000000;fill-rule:evenodd;stroke-width:0.663581;stroke-linecap:round;stroke-miterlimit:4;stroke-dasharray:none;stroke-dashoffset:28.3465"
         id="rect1221"
         width="8.6045055"
         height="1.4891169"
         x="-118.06892"
         y="104.19229"
         inkscape:transform-center-x="0.27590653"
         inkscape:transform-center-y="-0.39124769"
         transform="matrix(-0.43822176,-0.89886689,0.91962794,-0.3927906,0,0)" />
      <rect
         transform="matrix(-0.30195484,-0.95332223,0.96503294,-0.26212865,0,0)"
         inkscape:transform-center-y="0.06231215"
         inkscape:transform-center-x="-0.014012039"
         y="126.69376"
         x="-118.36334"
         height="1.5047678"
         width="8.5117216"
         id="rect1223"
         style="fill:#000000;fill-rule:evenodd;stroke-width:0.66345;stroke-linecap:round;stroke-miterlimit:4;stroke-dasharray:none;stroke-dashoffset:28.3465" />
      <rect
         style="fill:#000000;fill-rule:evenodd;stroke-width:0.663257;stroke-linecap:round;stroke-miterlimit:4;stroke-dasharray:none;stroke-dashoffset:28.3465"
         id="rect1225"
         width="8.4431686"
         height="1.5160986"
         x="-116.42553"
         y="147.56541"
         inkscape:transform-center-x="-0.051328228"
         inkscape:transform-center-y="0.03582038"
         transform="matrix(-0.15421452,-0.98803739,0.99139436,-0.13090919,0,0)" />
      <rect
         transform="matrix(1.0984796e-4,-0.99999999,1,9.9833009e-5,0,0)"
         inkscape:transform-center-y="0.10268698"
         inkscape:transform-center-x="0.21453148"
         y="165.31323"
         x="-112.79653"
         height="1.5202236"
         width="8.4179258"
         id="rect1227"
         style="fill:#000000;fill-rule:evenodd;stroke-width:0.663165;stroke-linecap:round;stroke-miterlimit:4;stroke-dasharray:none;stroke-dashoffset:28.3465" />
      <rect
         style="fill:#000000;fill-rule:evenodd;stroke-width:0.663257;stroke-linecap:round;stroke-miterlimit:4;stroke-dasharray:none;stroke-dashoffset:28.3465"
         id="rect1229"
         width="8.4432049"
         height="1.5160929"
         x="-107.73678"
         y="180.51404"
         inkscape:transform-center-x="-0.21861979"
         inkscape:transform-center-y="-0.11410633"
         transform="matrix(0.15443064,-0.98800363,0.9913681,0.13110797,0,0)" />
      <rect
         transform="matrix(0.30216087,-0.95325695,0.96497979,0.26232424,0,0)"
         inkscape:transform-center-y="0.14332466"
         inkscape:transform-center-x="0.11630877"
         y="190.48782"
         x="-100.19084"
         height="1.504758"
         width="8.5117836"
         id="rect1231"
         style="fill:#000000;fill-rule:evenodd;stroke-width:0.66345;stroke-linecap:round;stroke-miterlimit:4;stroke-dasharray:none;stroke-dashoffset:28.3465" />
      <rect
         style="fill:#000000;fill-rule:evenodd;stroke-width:0.663581;stroke-linecap:round;stroke-miterlimit:4;stroke-dasharray:none;stroke-dashoffset:28.3465"
         id="rect1233"
         width="8.604579"
         height="1.4891044"
         x="-90.174789"
         y="196.32211"
         inkscape:transform-center-x="0.14111347"
         inkscape:transform-center-y="0.39642549"
         transform="matrix(0.43841284,-0.89877371,0.91954705,0.39297992,0,0)" />
      <rect
         transform="matrix(0.56071641,-0.82800792,0.85378154,0.52063143,0,0)"
         inkscape:transform-center-y="-0.020944023"
         inkscape:transform-center-x="0.16421637"
         y="197.94998"
         x="-76.819786"
         height="1.4730895"
         width="8.6971483"
         id="rect1235"
         style="fill:#000000;fill-rule:evenodd;stroke-width:0.663541;stroke-linecap:round;stroke-miterlimit:4;stroke-dasharray:none;stroke-dashoffset:28.3465" />
      <rect
         style="fill:#000000;fill-rule:evenodd;stroke-width:0.663385;stroke-linecap:round;stroke-miterlimit:4;stroke-dasharray:none;stroke-dashoffset:28.3465"
         id="rect1237"
         width="8.7672606"
         height="1.4606166"
         x="-61.545883"
         y="195.28012"
         inkscape:transform-center-x="-0.13361647"
         inkscape:transform-center-y="0.0027848369"
         transform="matrix(0.66858511,-0.74363563,0.76746867,0.64108645,0,0)" />
      <rect
         transform="matrix(0.76245301,-0.64704359,0.66235863,0.74918692,0,0)"
         inkscape:transform-center-y="-0.05599678"
         inkscape:transform-center-x="-0.17870696"
         y="188.51402"
         x="-40.286842"
         height="1.4584136"
         width="4.6035995"
         id="rect1239"
         style="fill:#000000;fill-rule:evenodd;stroke-width:0.663233;stroke-linecap:round;stroke-miterlimit:4;stroke-dasharray:none;stroke-dashoffset:28.3465" />
      <rect
         style="fill:#000000;fill-rule:evenodd;stroke-width:0.663168;stroke-linecap:round;stroke-miterlimit:4;stroke-dasharray:none;stroke-dashoffset:28.3465"
         id="rect1241"
         width="8.7962046"
         height="1.4548607"
         x="-26.829763"
         y="177.96263"
         inkscape:transform-center-x="0.13006622"
         inkscape:transform-center-y="0.12947719"
         transform="matrix(0.84258982,-0.53855584,0.54225262,0.8402155,0,0)" />
      <rect
         transform="matrix(0.90836798,-0.41817175,0.41206547,0.91115424,0,0)"
         inkscape:transform-center-y="0.35284551"
         inkscape:transform-center-x="0.11519331"
         y="164.28209"
         x="-9.346673"
         height="1.4605727"
         width="8.7619181"
         id="rect1243"
         style="fill:#000000;fill-rule:evenodd;stroke-width:0.663173;stroke-linecap:round;stroke-miterlimit:4;stroke-dasharray:none;stroke-dashoffset:28.3465" />
      <rect
         style="fill:#000000;fill-rule:evenodd;stroke-width:0.663183;stroke-linecap:round;stroke-miterlimit:4;stroke-dasharray:none;stroke-dashoffset:28.3465"
         id="rect1245"
         width="8.7156019"
         height="1.4683834"
         x="7.8203602"
         y="147.24626"
         inkscape:transform-center-x="0.81683808"
         inkscape:transform-center-y="-0.2113438"
         transform="matrix(0.95806982,-0.28653484,0.27639222,0.96104492,0,0)" />
      <rect
         transform="matrix(0.98931629,-0.14578506,0.13844583,0.99037001,0,0)"
         inkscape:transform-center-y="-0.03673456"
         inkscape:transform-center-x="0.61921914"
         y="127.4102"
         x="23.921635"
         height="1.4748417"
         width="8.6771898"
         id="rect1247"
         style="fill:#000000;fill-rule:evenodd;stroke-width:0.663174;stroke-linecap:round;stroke-miterlimit:4;stroke-dasharray:none;stroke-dashoffset:28.3465" />
    </g>
  </g>
</svg>
