<?xml version="1.0" encoding="UTF-8" standalone="no"?>
<svg
   xmlns:dc="http://purl.org/dc/elements/1.1/"
   xmlns:cc="http://creativecommons.org/ns#"
   xmlns:rdf="http://www.w3.org/1999/02/22-rdf-syntax-ns#"
   xmlns:svg="http://www.w3.org/2000/svg"
   xmlns="http://www.w3.org/2000/svg"
   xmlns:sodipodi="http://sodipodi.sourceforge.net/DTD/sodipodi-0.dtd"
   xmlns:inkscape="http://www.inkscape.org/namespaces/inkscape"
   sodipodi:docname="bigCD-3-3.svg"
   inkscape:version="1.0beta2 (2b71d25, 2019-12-03)"
   id="svg8"
   version="1.1"
   viewBox="0 0 210 297"
   height="297mm"
   width="210mm">
  <style
     id="style10" />
  <defs
     id="defs2">
    <inkscape:path-effect
       effect="fillet_chamfer"
       id="path-effect47"
       is_visible="true"
       lpeversion="1"
       satellites_param="F,0,0,1,0,7.9375,0,1 @ F,0,0,1,0,7.9375,0,1 @ F,0,0,1,0,7.9375,0,1 @ F,0,0,1,0,7.9375,0,1 | F,0,0,1,0,7.9375,0,1 @ F,0,0,1,0,7.9375,0,1 @ F,0,0,1,0,7.9375,0,1 @ F,0,0,1,0,7.9375,0,1 @ F,0,0,1,0,7.9375,0,1 @ F,0,0,1,0,7.9375,0,1 | F,0,0,1,0,7.9375,0,1 @ F,0,0,1,0,7.9375,0,1 @ F,0,0,1,0,7.9375,0,1 @ F,0,0,1,0,7.9375,0,1 @ F,0,0,1,0,7.9375,0,1 @ F,0,0,1,0,7.9375,0,1 | F,0,0,1,0,7.9375,0,1 @ F,0,0,1,0,7.9375,0,1 @ F,0,0,1,0,7.9375,0,1 @ F,0,0,1,0,7.9375,0,1 @ F,0,0,1,0,7.9375,0,1 @ F,0,0,1,0,7.9375,0,1 | F,0,0,1,0,7.9375,0,1 @ F,0,0,1,0,7.9375,0,1 @ F,0,0,1,0,7.9375,0,1 @ F,0,0,1,0,7.9375,0,1 | F,0,0,1,0,7.9375,0,1 @ F,0,0,1,0,7.9375,0,1 @ F,0,0,1,0,7.9375,0,1 @ F,0,0,1,0,7.9375,0,1 | F,0,0,1,0,7.9375,0,1 @ F,0,0,1,0,7.9375,0,1 @ F,0,0,1,0,7.9375,0,1 @ F,0,0,1,0,7.9375,0,1 @ F,0,0,1,0,7.9375,0,1 | F,0,0,1,0,7.9375,0,1 @ F,0,0,1,0,7.9375,0,1 @ F,0,0,1,0,7.9375,0,1 @ F,0,0,1,0,7.9375,0,1 | F,0,0,1,0,7.9375,0,1 @ F,0,0,1,0,7.9375,0,1 @ F,0,0,1,0,7.9375,0,1 @ F,0,0,1,0,7.9375,0,1 | F,0,0,1,0,7.9375,0,1 @ F,0,0,1,0,7.9375,0,1 @ F,0,0,1,0,7.9375,0,1 @ F,0,0,1,0,7.9375,0,1 | F,0,0,1,0,7.9375,0,1 @ F,0,0,1,0,7.9375,0,1 @ F,0,0,1,0,7.9375,0,1 @ F,0,0,1,0,7.9375,0,1 | F,0,0,1,0,7.9375,0,1 @ F,0,0,1,0,7.9375,0,1 @ F,0,0,1,0,7.9375,0,1 @ F,0,0,1,0,7.9375,0,1 | F,0,0,1,0,7.9375,0,1 @ F,0,0,1,0,7.9375,0,1 @ F,0,0,1,0,7.9375,0,1 @ F,0,0,1,0,7.9375,0,1 | F,0,0,1,0,7.9375,0,1 @ F,0,0,1,0,7.9375,0,1 @ F,0,0,1,0,7.9375,0,1 @ F,0,0,1,0,7.9375,0,1 | F,0,0,1,0,7.9375,0,1 @ F,0,0,1,0,7.9375,0,1 @ F,0,0,1,0,7.9375,0,1 @ F,0,0,1,0,7.9375,0,1 | F,0,0,1,0,7.9375,0,1 @ F,0,0,1,0,7.9375,0,1 @ F,0,0,1,0,7.9375,0,1 @ F,0,0,1,0,7.9375,0,1 @ F,0,0,1,0,7.9375,0,1 @ F,0,0,1,0,7.9375,0,1 @ F,0,0,1,0,7.9375,0,1 | F,0,0,1,0,7.9375,0,1 @ F,0,0,1,0,7.9375,0,1 @ F,0,0,1,0,7.9375,0,1 @ F,0,0,1,0,7.9375,0,1 | F,0,0,1,0,7.9375,0,1 @ F,0,0,1,0,7.9375,0,1 @ F,0,0,1,0,7.9375,0,1 @ F,0,0,1,0,7.9375,0,1 @ F,0,0,1,0,7.9375,0,1 @ F,0,0,1,0,7.9375,0,1 | F,0,0,1,0,7.9375,0,1 @ F,0,0,1,0,7.9375,0,1 @ F,0,0,1,0,7.9375,0,1 @ F,0,0,1,0,7.9375,0,1 @ F,0,0,1,0,7.9375,0,1 | F,0,0,1,0,7.9375,0,1 @ F,0,0,1,0,7.9375,0,1 @ F,0,0,1,0,7.9375,0,1 @ F,0,0,1,0,7.9375,0,1 @ F,0,0,1,0,7.9375,0,1 @ F,0,0,1,0,7.9375,0,1 | F,0,0,1,0,7.9375,0,1 @ F,0,0,1,0,7.9375,0,1 @ F,0,0,1,0,7.9375,0,1 @ F,0,0,1,0,7.9375,0,1 @ F,0,0,1,0,7.9375,0,1 @ F,0,0,1,0,7.9375,0,1 @ F,0,0,1,0,7.9375,0,1 | F,0,0,1,0,7.9375,0,1 @ F,0,0,1,0,7.9375,0,1 @ F,0,0,1,0,7.9375,0,1 @ F,0,0,1,0,7.9375,0,1 @ F,0,0,1,0,7.9375,0,1 @ F,0,0,1,0,7.9375,0,1 @ F,0,0,1,0,7.9375,0,1 | F,0,0,1,0,7.9375,0,1 @ F,0,0,1,0,7.9375,0,1 @ F,0,0,1,0,7.9375,0,1 @ F,0,0,1,0,7.9375,0,1 | F,0,0,1,0,7.9375,0,1 @ F,0,0,1,0,7.9375,0,1 @ F,0,0,1,0,7.9375,0,1 @ F,0,0,1,0,7.9375,0,1 @ F,0,0,1,0,7.9375,0,1 | F,0,0,1,0,7.9375,0,1 @ F,0,0,1,0,7.9375,0,1 @ F,0,0,1,0,7.9375,0,1 @ F,0,0,1,0,7.9375,0,1 @ F,0,0,1,0,7.9375,0,1 | F,0,0,1,0,7.9375,0,1 @ F,0,0,1,0,7.9375,0,1 @ F,0,0,1,0,7.9375,0,1 @ F,0,0,1,0,7.9375,0,1 @ F,0,0,1,0,7.9375,0,1 | F,0,0,1,0,7.9375,0,1 @ F,0,0,1,0,7.9375,0,1 @ F,0,0,1,0,7.9375,0,1 @ F,0,0,1,0,7.9375,0,1 @ F,0,0,1,0,7.9375,0,1 @ F,0,0,1,0,7.9375,0,1 @ F,0,0,1,0,7.9375,0,1 | F,0,0,1,0,7.9375,0,1 @ F,0,0,1,0,7.9375,0,1 @ F,0,0,1,0,7.9375,0,1 @ F,0,0,1,0,7.9375,0,1 | F,0,0,1,0,7.9375,0,1 @ F,0,0,1,0,7.9375,0,1 @ F,0,0,1,0,7.9375,0,1 @ F,0,0,1,0,7.9375,0,1 @ F,0,0,1,0,7.9375,0,1 @ F,0,0,1,0,7.9375,0,1 @ F,0,0,1,0,7.9375,0,1 | F,0,0,1,0,7.9375,0,1 @ F,0,0,1,0,7.9375,0,1 @ F,0,0,1,0,7.9375,0,1 @ F,0,0,1,0,7.9375,0,1 @ F,0,0,1,0,7.9375,0,1 @ F,0,0,1,0,7.9375,0,1 @ F,0,0,1,0,7.9375,0,1 | F,0,0,1,0,7.9375,0,1 @ F,0,0,1,0,7.9375,0,1 @ F,0,0,1,0,7.9375,0,1 @ F,0,0,1,0,7.9375,0,1 | F,0,0,1,0,7.9375,0,1 @ F,0,0,1,0,7.9375,0,1 @ F,0,0,1,0,7.9375,0,1 @ F,0,0,1,0,7.9375,0,1 @ F,0,0,1,0,7.9375,0,1 | F,0,0,1,0,7.9375,0,1 @ F,0,0,1,0,7.9375,0,1 @ F,0,0,1,0,7.9375,0,1 @ F,0,0,1,0,7.9375,0,1 @ F,0,0,1,0,7.9375,0,1 @ F,0,0,1,0,7.9375,0,1 @ F,0,0,1,0,7.9375,0,1 | F,0,0,1,0,7.9375,0,1 @ F,0,0,1,0,7.9375,0,1 @ F,0,0,1,0,7.9375,0,1 @ F,0,0,1,0,7.9375,0,1 @ F,0,0,1,0,7.9375,0,1 @ F,0,0,1,0,7.9375,0,1 | F,0,0,1,0,7.9375,0,1 @ F,0,0,1,0,7.9375,0,1 @ F,0,0,1,0,7.9375,0,1 @ F,0,0,1,0,7.9375,0,1 @ F,0,0,1,0,7.9375,0,1 @ F,0,0,1,0,7.9375,0,1 @ F,0,0,1,0,7.9375,0,1 | F,0,0,1,0,7.9375,0,1 @ F,0,0,1,0,7.9375,0,1 @ F,0,0,1,0,7.9375,0,1 @ F,0,0,1,0,7.9375,0,1 @ F,0,0,1,0,7.9375,0,1 | F,0,0,1,0,7.9375,0,1 @ F,0,0,1,0,7.9375,0,1 @ F,0,0,1,0,7.9375,0,1 @ F,0,0,1,0,7.9375,0,1 @ F,0,0,1,0,7.9375,0,1 | F,0,0,1,0,7.9375,0,1 @ F,0,0,1,0,7.9375,0,1 @ F,0,0,1,0,7.9375,0,1 @ F,0,0,1,0,7.9375,0,1 | F,0,0,1,0,7.9375,0,1 @ F,0,0,1,0,7.9375,0,1 @ F,0,0,1,0,7.9375,0,1 @ F,0,0,1,0,7.9375,0,1 @ F,0,0,1,0,7.9375,0,1 | F,0,0,1,0,7.9375,0,1 @ F,0,0,1,0,7.9375,0,1 @ F,0,0,1,0,7.9375,0,1 @ F,0,0,1,0,7.9375,0,1 | F,0,0,1,0,7.9375,0,1 @ F,0,0,1,0,7.9375,0,1 @ F,0,0,1,0,7.9375,0,1 @ F,0,0,1,0,7.9375,0,1 @ F,0,0,1,0,7.9375,0,1 | F,0,0,1,0,7.9375,0,1 @ F,0,0,1,0,7.9375,0,1 @ F,0,0,1,0,7.9375,0,1 @ F,0,0,1,0,7.9375,0,1 | F,0,0,1,0,7.9375,0,1 @ F,0,0,1,0,7.9375,0,1 @ F,0,0,1,0,7.9375,0,1 @ F,0,0,1,0,7.9375,0,1 @ F,0,0,1,0,7.9375,0,1 @ F,0,0,1,0,7.9375,0,1 @ F,0,0,1,0,7.9375,0,1 | F,0,0,1,0,7.9375,0,1 @ F,0,0,1,0,7.9375,0,1 @ F,0,0,1,0,7.9375,0,1 @ F,0,0,1,0,7.9375,0,1 @ F,0,0,1,0,7.9375,0,1 | F,0,0,1,0,7.9375,0,1 @ F,0,0,1,0,7.9375,0,1 @ F,0,0,1,0,7.9375,0,1 @ F,0,0,1,0,7.9375,0,1 @ F,0,0,1,0,7.9375,0,1 @ F,0,0,1,0,7.9375,0,1 | F,0,0,1,0,7.9375,0,1 @ F,0,0,1,0,7.9375,0,1 @ F,0,0,1,0,7.9375,0,1 @ F,0,0,1,0,7.9375,0,1 @ F,0,0,1,0,7.9375,0,1 | F,0,0,1,0,7.9375,0,1 @ F,0,0,1,0,7.9375,0,1 @ F,0,0,1,0,7.9375,0,1 @ F,0,0,1,0,7.9375,0,1 | F,0,0,1,0,7.9375,0,1 @ F,0,0,1,0,7.9375,0,1 @ F,0,0,1,0,7.9375,0,1 @ F,0,0,1,0,7.9375,0,1 | F,0,0,1,0,7.9375,0,1 @ F,0,0,1,0,7.9375,0,1 @ F,0,0,1,0,7.9375,0,1 @ F,0,0,1,0,7.9375,0,1 | F,0,0,1,0,7.9375,0,1 @ F,0,0,1,0,7.9375,0,1 @ F,0,0,1,0,7.9375,0,1 @ F,0,0,1,0,7.9375,0,1 @ F,0,0,1,0,7.9375,0,1 @ F,0,0,1,0,7.9375,0,1 @ F,0,0,1,0,7.9375,0,1 @ F,0,0,1,0,7.9375,0,1 | F,0,0,1,0,7.9375,0,1 @ F,0,0,1,0,7.9375,0,1 @ F,0,0,1,0,7.9375,0,1 @ F,0,0,1,0,7.9375,0,1 @ F,0,0,1,0,7.9375,0,1 | F,0,0,1,0,7.9375,0,1 @ F,0,0,1,0,7.9375,0,1 @ F,0,0,1,0,7.9375,0,1 @ F,0,0,1,0,7.9375,0,1 @ F,0,0,1,0,7.9375,0,1 | F,0,0,1,0,7.9375,0,1 @ F,0,0,1,0,7.9375,0,1 @ F,0,0,1,0,7.9375,0,1 @ F,0,0,1,0,7.9375,0,1 @ F,0,0,1,0,7.9375,0,1 @ F,0,0,1,0,7.9375,0,1 @ F,0,0,1,0,7.9375,0,1 | F,0,0,1,0,7.9375,0,1 @ F,0,0,1,0,7.9375,0,1 @ F,0,0,1,0,7.9375,0,1 @ F,0,0,1,0,7.9375,0,1 @ F,0,0,1,0,7.9375,0,1 @ F,0,0,1,0,7.9375,0,1 | F,0,0,1,0,7.9375,0,1 @ F,0,0,1,0,7.9375,0,1 @ F,0,0,1,0,7.9375,0,1 @ F,0,0,1,0,7.9375,0,1 @ F,0,0,1,0,7.9375,0,1 | F,0,0,1,0,7.9375,0,1 @ F,0,0,1,0,7.9375,0,1 @ F,0,0,1,0,7.9375,0,1 @ F,0,0,1,0,7.9375,0,1 | F,0,0,1,0,7.9375,0,1 @ F,0,0,1,0,7.9375,0,1 @ F,0,0,1,0,7.9375,0,1 @ F,0,0,1,0,7.9375,0,1 @ F,0,0,1,0,7.9375,0,1 | F,0,0,1,0,7.9375,0,1 @ F,0,0,1,0,7.9375,0,1 @ F,0,0,1,0,7.9375,0,1 @ F,0,0,1,0,7.9375,0,1 @ F,0,0,1,0,7.9375,0,1 @ F,0,0,1,0,7.9375,0,1 @ F,0,0,1,0,7.9375,0,1 | F,0,0,1,0,7.9375,0,1 @ F,0,0,1,0,7.9375,0,1 @ F,0,0,1,0,7.9375,0,1 @ F,0,0,1,0,7.9375,0,1 @ F,0,0,1,0,7.9375,0,1 | F,0,0,1,0,7.9375,0,1 @ F,0,0,1,0,7.9375,0,1 @ F,0,0,1,0,7.9375,0,1 @ F,0,0,1,0,7.9375,0,1 | F,0,0,1,0,7.9375,0,1 @ F,0,0,1,0,7.9375,0,1 @ F,0,0,1,0,7.9375,0,1 @ F,0,0,1,0,7.9375,0,1 @ F,0,0,1,0,7.9375,0,1 @ F,0,0,1,0,7.9375,0,1 @ F,0,0,1,0,7.9375,0,1 @ F,0,0,1,0,7.9375,0,1 | F,0,0,1,0,7.9375,0,1 @ F,0,0,1,0,7.9375,0,1 @ F,0,0,1,0,7.9375,0,1 @ F,0,0,1,0,7.9375,0,1 | F,0,0,1,0,7.9375,0,1 @ F,0,0,1,0,7.9375,0,1 @ F,0,0,1,0,7.9375,0,1 @ F,0,0,1,0,7.9375,0,1 @ F,0,0,1,0,7.9375,0,1 @ F,0,0,1,0,7.9375,0,1 | F,0,0,1,0,7.9375,0,1 @ F,0,0,1,0,7.9375,0,1 @ F,0,0,1,0,7.9375,0,1 @ F,0,0,1,0,7.9375,0,1 @ F,0,0,1,0,7.9375,0,1 @ F,0,0,1,0,7.9375,0,1 | F,0,0,1,0,7.9375,0,1 @ F,0,0,1,0,7.9375,0,1 @ F,0,0,1,0,7.9375,0,1 @ F,0,0,1,0,7.9375,0,1 | F,0,0,1,0,7.9375,0,1 @ F,0,0,1,0,7.9375,0,1 @ F,0,0,1,0,7.9375,0,1 @ F,0,0,1,0,7.9375,0,1 @ F,0,0,1,0,7.9375,0,1 @ F,0,0,1,0,7.9375,0,1 | F,0,0,1,0,7.9375,0,1 @ F,0,0,1,0,7.9375,0,1 @ F,0,0,1,0,7.9375,0,1 @ F,0,0,1,0,7.9375,0,1 @ F,0,0,1,0,7.9375,0,1 | F,0,0,1,0,7.9375,0,1 @ F,0,0,1,0,7.9375,0,1 @ F,0,0,1,0,7.9375,0,1 @ F,0,0,1,0,7.9375,0,1 | F,0,0,1,0,7.9375,0,1 @ F,0,0,1,0,7.9375,0,1 @ F,0,0,1,0,7.9375,0,1 @ F,0,0,1,0,7.9375,0,1 | F,0,0,1,0,7.9375,0,1 @ F,0,0,1,0,7.9375,0,1 @ F,0,0,1,0,7.9375,0,1 @ F,0,0,1,0,7.9375,0,1 | F,0,0,1,0,7.9375,0,1 @ F,0,0,1,0,7.9375,0,1 @ F,0,0,1,0,7.9375,0,1 @ F,0,0,1,0,7.9375,0,1 @ F,0,0,1,0,7.9375,0,1 | F,0,0,1,0,7.9375,0,1 @ F,0,0,1,0,7.9375,0,1 @ F,0,0,1,0,7.9375,0,1 @ F,0,0,1,0,7.9375,0,1 @ F,0,0,1,0,7.9375,0,1 | F,0,0,1,0,7.9375,0,1 @ F,0,0,1,0,7.9375,0,1 @ F,0,0,1,0,7.9375,0,1 @ F,0,0,1,0,7.9375,0,1 @ F,0,0,1,0,7.9375,0,1 | F,0,0,1,0,7.9375,0,1 @ F,0,0,1,0,7.9375,0,1 @ F,0,0,1,0,7.9375,0,1 @ F,0,0,1,0,7.9375,0,1 | F,0,0,1,0,7.9375,0,1 @ F,0,0,1,0,7.9375,0,1 @ F,0,0,1,0,7.9375,0,1 @ F,0,0,1,0,7.9375,0,1 @ F,0,0,1,0,7.9375,0,1 | F,0,0,1,0,7.9375,0,1 @ F,0,0,1,0,7.9375,0,1 @ F,0,0,1,0,7.9375,0,1 @ F,0,0,1,0,7.9375,0,1 | F,0,0,1,0,7.9375,0,1 @ F,0,0,1,0,7.9375,0,1 @ F,0,0,1,0,7.9375,0,1 @ F,0,0,1,0,7.9375,0,1 | F,0,0,1,0,7.9375,0,1 @ F,0,0,1,0,7.9375,0,1 @ F,0,0,1,0,7.9375,0,1 @ F,0,0,1,0,7.9375,0,1 | F,0,0,1,0,7.9375,0,1 @ F,0,0,1,0,7.9375,0,1 @ F,0,0,1,0,7.9375,0,1 @ F,0,0,1,0,7.9375,0,1 @ F,0,0,1,0,7.9375,0,1 | F,0,0,1,0,7.9375,0,1 @ F,0,0,1,0,7.9375,0,1 @ F,0,0,1,0,7.9375,0,1 @ F,0,0,1,0,7.9375,0,1 | F,0,0,1,0,7.9375,0,1 @ F,0,0,1,0,7.9375,0,1 @ F,0,0,1,0,7.9375,0,1 @ F,0,0,1,0,7.9375,0,1 @ F,0,0,1,0,7.9375,0,1 | F,0,0,1,0,7.9375,0,1 @ F,0,0,1,0,7.9375,0,1 @ F,0,0,1,0,7.9375,0,1 @ F,0,0,1,0,7.9375,0,1 @ F,0,0,1,0,7.9375,0,1 | F,0,0,1,0,7.9375,0,1 @ F,0,0,1,0,7.9375,0,1 @ F,0,0,1,0,7.9375,0,1 @ F,0,0,1,0,7.9375,0,1 | F,0,0,1,0,7.9375,0,1 @ F,0,0,1,0,7.9375,0,1 @ F,0,0,1,0,7.9375,0,1 @ F,0,0,1,0,7.9375,0,1 @ F,0,0,1,0,7.9375,0,1 @ F,0,0,1,0,7.9375,0,1 | F,0,0,1,0,7.9375,0,1 @ F,0,0,1,0,7.9375,0,1 @ F,0,0,1,0,7.9375,0,1 @ F,0,0,1,0,7.9375,0,1 @ F,0,0,1,0,7.9375,0,1 @ F,0,0,1,0,7.9375,0,1 | F,0,0,1,0,7.9375,0,1 @ F,0,0,1,0,7.9375,0,1 @ F,0,0,1,0,7.9375,0,1 @ F,0,0,1,0,7.9375,0,1 @ F,0,0,1,0,7.9375,0,1"
       unit="px"
       method="auto"
       mode="F"
       radius="30"
       chamfer_steps="1"
       flexible="false"
       use_knot_distance="true"
       apply_no_radius="true"
       apply_with_radius="true"
       only_selected="false"
       hide_knots="false" />
  </defs>
  <sodipodi:namedview
     inkscape:document-rotation="0"
     inkscape:window-maximized="1"
     inkscape:window-y="22"
     inkscape:window-x="0"
     inkscape:window-height="756"
     inkscape:window-width="1280"
     showgrid="false"
     inkscape:current-layer="g32"
     inkscape:document-units="mm"
     inkscape:cy="454.92678"
     inkscape:cx="384.78092"
     inkscape:zoom="0.54281862"
     inkscape:pageshadow="2"
     inkscape:pageopacity="0.0"
     borderopacity="1.0"
     bordercolor="#666666"
     pagecolor="#ffffff"
     id="base"
     inkscape:snap-global="false" />
  <metadata
     id="metadata5">
    <rdf:RDF>
      <cc:Work
         rdf:about="">
        <dc:format>image/svg+xml</dc:format>
        <dc:type
           rdf:resource="http://purl.org/dc/dcmitype/StillImage" />
        <dc:title></dc:title>
      </cc:Work>
    </rdf:RDF>
  </metadata>
  <g
     id="layer1"
     inkscape:groupmode="layer"
     inkscape:label="Ebene 1"
     style="display:inline">
    <g
       id="g32"
       style="display:inline">
      <path
         sodipodi:nodetypes="csssssssc"
         inkscape:connector-curvature="0"
         d="m 112.25,107 c 0,2.00203 -0.81148,3.81453 -2.12348,5.12652 -1.31199,1.312 -3.12449,2.12348 -5.12652,2.12348 -2.00203,0 -3.81453,-0.81148 -5.126524,-2.12348 C 98.561484,110.81453 97.75,109.00203 97.75,107 c 0,-2.00203 0.811484,-3.81453 2.123476,-5.12652 C 101.18547,100.56148 102.99797,99.75 105,99.75 c 2.00203,0 3.81453,0.81148 5.12652,2.12348 1.312,1.31199 2.12348,3.12449 2.12348,5.12652"
         inkscape:label="path815"
         style="opacity:1;fill:none;fill-opacity:1;fill-rule:nonzero;stroke:#000000;stroke-width:0.5;stroke-miterlimit:4;stroke-dasharray:none;stroke-opacity:0.990991"
         id="path815" />
      <path
         sodipodi:nodetypes="csssssssc"
         inkscape:connector-curvature="0"
         d="m 204.75,107 c 0,27.5452 -11.1649,52.4827 -29.2161,70.5339 C 157.4827,195.5851 132.5452,206.75 105,206.75 77.454798,206.75 52.517298,195.5851 34.466099,177.5339 16.414899,159.4827 5.25,134.5452 5.25,107 5.25,79.454798 16.414899,54.517298 34.466099,36.466099 52.517298,18.414899 77.454798,7.25 105,7.25 c 27.5452,0 52.4827,11.164899 70.5339,29.216099 C 193.5851,54.517298 204.75,79.454798 204.75,107"
         inkscape:label="path815"
         style="display:inline;opacity:1;fill:none;fill-opacity:1;fill-rule:nonzero;stroke:#000000;stroke-width:0.5;stroke-miterlimit:4;stroke-dasharray:none;stroke-opacity:0.990991"
         id="path815-7" />
    </g>
    <path
       id="path26"
       style="color:#000000;font-style:normal;font-variant:normal;font-weight:normal;font-stretch:normal;font-size:medium;line-height:normal;font-family:sans-serif;font-variant-ligatures:normal;font-variant-position:normal;font-variant-caps:normal;font-variant-numeric:normal;font-variant-alternates:normal;font-variant-east-asian:normal;font-feature-settings:normal;font-variation-settings:normal;text-indent:0;text-align:start;text-decoration:none;text-decoration-line:none;text-decoration-style:solid;text-decoration-color:#000000;letter-spacing:normal;word-spacing:normal;text-transform:none;writing-mode:lr-tb;direction:ltr;text-orientation:mixed;dominant-baseline:auto;baseline-shift:baseline;text-anchor:start;white-space:normal;shape-padding:0;shape-margin:0;inline-size:0;clip-rule:nonzero;display:inline;overflow:visible;visibility:visible;opacity:1;isolation:auto;mix-blend-mode:normal;color-interpolation:sRGB;color-interpolation-filters:linearRGB;solid-color:#000000;solid-opacity:1;vector-effect:none;fill:#000000;fill-opacity:1;fill-rule:evenodd;stroke:none;stroke-width:15.1635;stroke-linecap:round;stroke-linejoin:miter;stroke-miterlimit:4;stroke-dasharray:none;stroke-dashoffset:0;stroke-opacity:1;color-rendering:auto;image-rendering:auto;shape-rendering:auto;text-rendering:auto;enable-background:accumulate;stop-color:#000000;stop-opacity:1"
       d="m 357.564,77.178742 c -29.7442,4.601528 -58.67358,13.193303 -85.94248,25.385238 -4.00189,1.78925 -8.60663,6.59376 -10.12734,10.7049 -0.70481,1.9054 -1.37515,3.8181 -2.0125,5.73929 -1.38023,4.16045 0.79296,5.89789 4.70667,3.92323 25.26404,-12.74693 52.22916,-22.18284 80.10464,-27.932363 4.29328,-0.885521 9.86997,-4.390926 12.50784,-7.892128 1.22039,-1.619814 2.4513,-3.228714 3.69239,-4.826557 2.68905,-3.462044 1.40291,-5.771804 -2.92922,-5.10161 z m 109.4194,6.673371 c -2.02605,1.184198 -4.01692,2.402185 -5.97554,3.654142 -3.69334,2.360798 -3.07373,4.943616 1.24287,5.707357 8.59626,1.520947 17.17711,3.41044 25.72112,5.690355 4.23543,1.130203 11.05341,3.142973 15.22498,4.489963 14.44988,4.6658 28.35247,10.31478 41.66247,16.8484 3.93509,1.93167 10.4801,2.55221 14.70057,1.36715 1.88295,-0.5287 3.7672,-1.04322 5.6524,-1.54394 4.2368,-1.12532 4.62839,-3.77138 0.79373,-5.89548 -18.36056,-10.17034 -37.9047,-18.697309 -58.5128,-25.323738 -4.17322,-1.341878 -10.9911,-3.354503 -15.22499,-4.490542 -3.52526,-0.945902 -7.05635,-1.828854 -10.59196,-2.650642 -4.26984,-0.992443 -10.90848,-0.06495 -14.69285,2.146975 z M 166.81386,112.27342 c -13.04522,9.88883 -38.52298,36.3074 -49.66897,48.06179 -3.01574,3.18035 -5.88431,9.30475 -6.29687,13.66891 -0.11052,1.16919 -0.21284,2.33057 -0.30708,3.48442 -0.35682,4.36904 1.57541,5.05408 4.25566,1.58524 17.31203,-22.40567 37.14694,-42.57598 58.94259,-60.23839 3.40579,-2.75993 4.80906,-9.14741 0.73433,-10.26149 -0.23186,-0.0634 -0.59012,-0.13966 -0.79774,-0.1325 v 1e-5 z m 247.75389,16.52023 c -0.8162,0.94005 -1.63089,1.88915 -2.44443,2.84713 -2.8376,3.34136 -1.5198,6.08995 2.86185,6.22045 19.24807,0.57324 38.61772,3.25939 57.7783,8.23802 4.24271,1.10241 10.36966,2.91114 13.69942,3.97302 8.80994,-4.35942 10.51845,-5.1718 12.23248,-5.97115 3.97288,-1.85278 3.91197,-4.55793 -0.22566,-6.00573 -2.05807,-0.72014 -4.12906,-1.41791 -6.2129,-2.09285 -4.17032,-1.35074 -10.99291,-3.349 -15.23376,-4.45859 -16.33733,-4.27455 -32.81514,-6.97194 -49.25257,-8.19872 -4.37145,-0.32625 -10.32877,2.13834 -13.20273,5.44842 z m -96.09824,8.04858 c -21.88967,7.19791 -42.85339,16.99664 -62.35089,29.15843 -3.71937,2.32 -6.99619,7.83403 -7.28079,12.20844 -0.0757,1.16443 -0.14644,2.33472 -0.21247,3.51084 -0.24569,4.3768 2.49182,5.82732 6.11093,3.35386 16.83345,-11.50471 34.96012,-21.0928 53.96435,-28.56442 4.07964,-1.60394 8.95592,-6.00567 10.93347,-9.91794 0.86892,-1.71903 1.75096,-3.43108 2.64592,-5.13594 2.03751,-3.8814 0.35375,-5.98259 -3.81052,-4.61327 z m -145.84038,33.44016 c -20.46372,20.29517 -38.34844,43.38976 -52.89539,68.92987 -2.16957,3.80911 -2.93618,10.38473 -1.61087,14.56297 0.55366,1.74549 1.13336,3.4807 1.7385,5.20709 1.45001,4.13668 4.2978,4.21898 6.28489,0.31159 12.56282,-24.7033 28.33412,-47.21499 46.61542,-67.21337 2.95769,-3.23549 5.35092,-9.3428 5.34996,-13.72649 -4.1e-4,-1.88759 0.0123,-3.77336 0.0378,-5.65705 0.0593,-4.38329 -2.4078,-5.50147 -5.52031,-2.41461 z m 226.74291,-2.40875 c -2.66689,0.0774 -5.32904,0.20059 -7.98543,0.3682 -4.37486,0.27604 -9.98395,3.51849 -12.51544,7.09743 -0.8986,1.27042 -1.80208,2.55189 -2.70981,3.84256 -2.52184,3.58575 -1.04677,5.92983 3.30463,5.40009 14.64538,-1.7829 29.54408,-2.1146 44.47463,-0.88928 4.36882,0.35854 10.70318,-1.38819 14.23669,-3.98254 1.53802,-1.12924 3.08617,-2.24505 4.64396,-3.34762 3.57812,-2.53249 3.0422,-5.18532 -1.28982,-5.85545 -8.7626,-1.3555 -17.53821,-2.20147 -26.28776,-2.54894 -4.3801,-0.17394 -11.48995,-0.21167 -15.87165,-0.0845 z m 240.2302,23.71351 c 19.84507,21.75075 36.67916,46.09881 50.10291,72.23395 2.00283,3.89937 6.88286,8.31784 10.96944,9.90423 1.88763,0.73277 3.76709,1.47826 5.63812,2.23619 4.06299,1.64588 5.93653,-0.22043 4.11941,-4.20974 -12.58342,-27.62566 -28.7219,-53.5776 -48.01767,-77.04287 -2.78427,-3.38591 -8.60154,-6.75422 -12.93977,-7.38192 -2.47189,-0.35766 -4.93129,-0.66047 -7.38106,-0.91041 -4.36075,-0.4449 -5.44598,1.93225 -2.49138,5.17057 z m -60.15991,-1.11707 c -1.18615,0.24762 -2.37573,0.50364 -3.56895,0.76772 -4.28008,0.94725 -4.91051,3.97337 -1.52436,6.75724 17.19787,14.13898 32.52794,30.29711 45.74794,47.99881 2.62302,3.51224 8.16116,7.03169 12.46145,7.88262 1.86799,0.36964 3.73259,0.75333 5.59373,1.15027 4.28726,0.91436 5.86657,-1.28574 3.43835,-4.93539 -13.65785,-20.52796 -29.88312,-39.36568 -48.37042,-55.91974 -3.26574,-2.92423 -9.48664,-4.59735 -13.77774,-3.70153 z m -286.26993,5.79927 c -13.91022,7.44724 -27.07958,16.25445 -39.26453,26.30599 -3.3815,2.78945 -5.99868,8.70673 -5.93085,13.08997 0.0238,1.53816 0.0495,3.0869 0.0767,4.64665 0.0766,4.38309 2.6554,5.41441 5.86881,2.43293 10.27746,-9.5357 21.44299,-18.05962 33.30241,-25.47749 3.71642,-2.32456 7.70524,-7.5275 8.93686,-11.73457 0.52293,-1.78626 1.06152,-3.56815 1.61543,-5.34547 1.30431,-4.18512 -0.74032,-5.98702 -4.60488,-3.91801 z m 229.96334,10.13077 c -1.32174,0.4403 -2.65146,0.88584 -3.98848,1.33602 -4.15457,1.39887 -4.39866,4.25938 -0.64222,6.51868 13.10628,7.88274 25.25267,17.0438 36.33401,27.26633 3.22197,2.97227 9.29315,5.43844 13.67636,5.50124 1.849,0.0265 3.69798,0.0684 5.54668,0.12557 4.38156,0.13548 5.57654,-2.32582 2.55715,-5.5037 -11.80043,-12.41984 -24.94786,-23.63855 -39.30192,-33.37832 -3.62734,-2.46129 -10.02252,-3.25127 -14.18158,-1.86582 z m -127.21631,2.75813 c -12.57728,0.59459 -25.01012,2.40499 -37.12506,5.35 -4.25942,1.03542 -9.3518,5.16309 -11.24837,9.115 -0.70144,1.46158 -1.40632,2.97075 -2.11315,4.52317 -1.81647,3.98952 0.13906,6.02013 4.31316,4.68176 10.1805,-3.26421 20.66824,-5.64732 31.33206,-7.08828 4.34393,-0.58698 10.20515,-3.58479 13.16773,-6.81575 1.33316,-1.45393 2.68114,-2.89339 4.04361,-4.31841 3.02937,-3.16844 2.00858,-5.65449 -2.36998,-5.44749 z m 73.29315,16.81536 c -1.46489,0.72353 -2.97459,1.49637 -4.52358,2.31457 -3.87606,2.04738 -3.55446,4.86578 0.56844,6.35436 10.67926,3.85574 20.80673,8.66121 30.32538,14.2896 3.77315,2.23106 10.21975,3.45676 14.53538,2.68771 1.84116,-0.32809 3.68514,-0.63808 5.5317,-0.93014 4.3298,-0.68484 5.05283,-3.32028 1.47922,-5.85881 -10.36214,-7.36079 -21.51837,-13.77498 -33.39185,-19.07859 -4.00233,-1.78775 -10.59487,-1.71973 -14.52469,0.2213 z m -292.02711,13.71137 c -12.7614,17.75284 -23.49419,37.21924 -31.76514,58.18615 -1.60859,4.07779 -0.94177,10.45351 1.43598,14.13631 0.62705,0.97123 1.26112,1.94449 1.90217,2.92001 2.4074,3.66351 5.45419,3.19639 6.88035,-0.94872 6.51431,-18.93372 15.11964,-36.67574 25.49455,-53.0487 2.34632,-3.70278 3.64843,-10.12075 2.88012,-14.43657 -0.31637,-1.77711 -0.61987,-3.55631 -0.9102,-5.33742 -0.70524,-4.32657 -3.3592,-5.03047 -5.91783,-1.47106 z m 103.43757,13.51633 c -9.09871,7.38846 -17.54523,15.60853 -25.19234,24.59161 -2.8414,3.33781 -4.4337,9.65722 -3.55514,13.95182 0.3042,1.48703 0.62751,3.00285 0.96861,4.54382 0.94739,4.28003 3.7595,4.75747 6.35293,1.22363 5.92553,-8.07422 12.51851,-15.58068 19.67223,-22.47089 3.15713,-3.04083 6.04988,-8.92553 6.4519,-13.29067 0.17067,-1.85313 0.3599,-3.70384 0.5674,-5.55193 0.48912,-4.35624 -1.86274,-5.76061 -5.26559,-2.99739 z m 144.63281,-0.16792 c -1.72995,1.23234 -3.46063,2.48327 -5.18854,3.7493 -3.53612,2.5909 -2.81551,4.95603 1.53432,5.49579 4.35081,0.53989 8.69944,1.28638 13.03256,2.24728 4.27921,0.94895 11.12422,2.88727 15.26844,4.31473 1.31652,0.45347 5.5235,-0.81466 9.49854,-2.66227 0.50164,-0.23317 0.99438,-0.45894 1.47781,-0.67718 3.99423,-1.80309 8.86331,-3.51549 10.73821,-4.13971 -10.62237,-4.65201 -14.06781,-5.9546 -17.57961,-7.14149 -4.15255,-1.40344 -10.99748,-3.33765 -15.27178,-4.30892 -3.84938,-0.87472 -9.93953,0.57907 -13.50995,3.12247 z m -63.10462,-1.33951 c -8.01534,2.19547 -15.84004,5.00712 -23.3956,8.39537 -3.99957,1.79359 -8.31195,6.78656 -9.65604,10.95913 -0.67496,2.09537 -1.33749,4.20158 -1.98591,6.31467 -1.28599,4.19084 0.7001,5.64158 4.49332,3.4452 6.68811,-3.87262 13.68739,-7.21582 20.91955,-9.98832 4.09278,-1.56899 8.98615,-5.86087 10.98609,-9.76163 0.79654,-1.55359 1.57727,-3.02945 2.33718,-4.42019 2.10162,-3.84625 0.52901,-6.1022 -3.69859,-4.94423 z m 32.62117,27.64592 c -1.92259,0.13246 -6.16781,2.60998 -9.4088,5.56167 -0.60088,0.54723 -1.19643,1.09388 -1.78634,1.63977 -3.21739,2.97729 -8.29991,7.95653 -11.15642,11.28013 -0.51129,0.5949 2.48215,0.0339 6.75939,-0.92242 8.2083,-1.83519 16.65883,-2.75038 25.17959,-2.66747 4.38258,0.0426 10.79046,-1.74002 14.39247,-4.23839 1.74565,-1.2108 3.49142,-2.39606 5.2311,-3.55296 3.65021,-2.42739 3.19982,-5.12959 -1.12742,-5.82647 -4.07157,-0.65571 -8.14953,-1.10278 -12.21977,-1.3468 -4.37515,-0.26231 -11.49116,-0.2283 -15.8638,0.0729 z m -51.38556,14.81645 c -6.83982,3.66858 -13.3378,7.96056 -19.38946,12.82611 -3.41587,2.74637 -6.77719,8.64159 -7.57754,12.95154 -0.45716,2.46187 -1.40432,7.97196 -1.76228,12.33979 -0.29614,3.61351 1.75422,3.67009 4.60874,0.34444 5.2155,-6.07629 11.09272,-11.52838 17.48311,-16.28508 3.51577,-2.61696 7.54104,-7.91511 8.91075,-12.07925 0.68302,-2.07648 1.38566,-4.13707 2.10399,-6.17579 1.45677,-4.1345 -0.51478,-5.99345 -4.37731,-3.92176 z m -150.98749,7.19265 c -3.92974,8.32101 -7.38599,16.9554 -10.3167,25.88724 -1.36663,4.16506 -3.3423,10.99527 -4.40491,15.24804 -0.18318,0.73311 -0.36242,1.46656 -0.53778,2.2003 -1.01893,4.26347 0.41972,10.59723 3.05823,14.09803 0.99608,1.32161 2.00127,2.65275 3.01429,3.99233 2.64417,3.49653 5.24498,2.80019 5.98763,-1.51993 0.83614,-4.86391 1.85079,-9.72076 3.0495,-14.56176 1.0536,-4.25498 3.02997,-11.08541 4.40858,-15.24647 1.1043,-3.33311 2.2876,-6.62179 3.54596,-9.86569 1.58532,-4.08679 1.66873,-10.63683 0.13183,-14.74222 -0.63369,-1.69271 -1.25291,-3.39104 -1.8578,-5.09462 -1.46679,-4.13097 -4.20688,-4.35899 -6.07883,-0.39525 z M 42.884766,295.68555 c -8.152779,21.93641 -13.106721,56.88678 -15.298629,73.46099 -0.574636,4.34514 -1.058343,8.86514 -1.105671,10.09174 6.129624,10.56136 8.335729,14.09157 10.572346,17.48413 2.412789,3.65978 4.368003,3.00041 4.342244,-1.38318 -0.172467,-29.35017 3.33008,-59.00925 10.830339,-88.31535 1.086873,-4.24679 -0.381134,-10.8481 -4.603501,-11.79399 -0.854153,-0.19134 -1.573068,-0.19278 -1.573066,-0.19278 z m 457.246094,3.01572 c 11.26135,11.13954 16.34375,17.20182 20.92946,23.61604 2.54925,3.56573 7.95817,7.1516 12.22356,8.16098 2.43462,0.57614 7.78379,2.18117 11.93976,3.57538 0.53916,0.18088 -0.63625,-2.84058 -2.82411,-6.63889 -4.51322,-7.83531 -9.65128,-15.30689 -15.36997,-22.3221 -2.76959,-3.3975 -8.71124,-6.1812 -13.09366,-6.28769 -3.56258,-0.0866 -6.45152,-0.10766 -6.45152,-0.10772 z m -220.46158,7.08376 c -4.88897,6.15762 -9.32701,12.72372 -13.24482,19.66954 -2.15343,3.81779 -2.6397,10.40212 -1.23688,14.55531 0.71984,2.13115 1.45603,4.26054 2.20709,6.38349 1.46207,4.1327 3.88109,4.10064 5.59317,0.0657 2.98826,-7.04251 6.53989,-13.73485 10.58636,-20.04382 2.36637,-3.68946 3.74883,-10.03097 2.98963,-14.34834 -0.2721,-1.54737 -0.52143,-3.04981 -0.74744,-4.50117 -0.67445,-4.33111 -3.42154,-5.21357 -6.14711,-1.78074 z m 184.28427,-5.39919 c -3.02338,0.27669 -5.99642,0.5882 -8.90305,0.93545 -4.35262,0.51999 -8.71156,1.19827 -9.75362,1.37595 14.6033,7.07989 21.4744,11.61203 27.75021,16.79321 3.37987,2.79035 9.49336,5.30608 13.87364,5.47787 1.95328,0.0766 3.88813,0.16997 5.79959,0.2788 4.37655,0.24917 5.68583,-2.2222 2.71203,-5.44215 -5.2016,-5.63213 -10.9098,-10.8218 -17.08447,-15.4789 -3.49932,-2.63929 -10.0289,-4.33973 -14.39433,-3.94023 z m 92.92871,7.70597 c 6.3721,9.83348 11.84692,20.2469 16.34746,31.08573 1.68096,4.04834 6.1066,8.91057 10.00974,10.90598 1.73359,0.88626 3.45801,1.78987 5.17315,2.7104 3.8625,2.07301 5.99071,0.42127 4.63961,-3.74882 -4.08862,-12.61935 -9.36278,-24.82054 -15.73842,-36.4078 -2.11316,-3.84051 -4.41142,-7.01548 -4.97005,-7.18421 -9.09431,-2.19958 -10.55144,-2.47551 -12.06721,-2.73941 -4.31847,-0.75186 -5.77804,1.6995 -3.39428,5.37813 z m -169.69476,1.12103 c -7.44689,1.18732 -14.71165,3.23424 -21.63635,6.06648 -4.05639,1.65908 -8.91089,6.42716 -10.74002,10.41037 -1.63378,3.55783 -3.09509,7.14169 -4.39047,10.70709 -1.49677,4.11973 0.13098,5.1317 3.67452,2.55388 4.54587,-3.30699 9.43465,-6.14155 14.57068,-8.45723 3.99482,-1.80115 9.63223,-5.66517 12.60513,-8.8861 2.93428,-3.17908 7.9821,-8.12279 11.2396,-11.05588 1.40262,-1.26292 -0.99522,-2.02864 -5.32309,-1.33861 z m 26.87456,4.04118 c -3.53824,1.78766 -6.96113,3.72022 -10.24971,5.75565 -3.72707,2.30683 -3.07722,4.08813 1.30255,4.22892 3.44826,0.11085 6.9078,0.44352 10.35794,1.01087 4.32381,0.71101 11.20303,2.57794 15.30136,4.12903 0.31395,0.11882 4.04508,-0.5278 8.37538,-1.20755 0.63008,-0.0989 4.65614,-0.71268 9.0154,-1.1723 0.36412,-0.0384 0.72888,-0.0759 1.09423,-0.11238 4.36176,-0.43613 5.00417,-2.70323 1.21175,-4.89966 -4.94382,-2.86328 -10.19019,-5.31901 -15.71254,-7.30847 -4.12315,-1.48539 -10.20397,-3.11079 -13.50451,-3.77972 z m 198.07841,10.63264 c 6.121,14.7523 10.76359,30.14541 13.80356,45.91648 0.82968,4.30432 4.22579,9.93462 7.67557,12.63931 1.54315,1.20986 3.07581,2.43343 4.59816,3.66999 3.4026,2.76385 5.79232,1.53197 5.25137,-2.8181 -2.26042,-18.17703 -6.52128,-35.99441 -12.61322,-53.115 -1.46953,-4.12992 -6.14876,-8.56049 -10.32039,-9.90761 -1.3202,-0.42632 -2.64967,-0.85255 -3.98837,-1.279 -4.17694,-1.33059 -6.08663,0.84506 -4.40668,4.89393 z m -279.77864,13.91763 c -4.74306,4.96271 -8.96059,10.47102 -12.52955,16.46868 -2.24099,3.76601 -3.17842,10.501 -2.19541,14.7725 0.59908,2.60322 1.26613,5.16339 1.99131,7.66969 1.21829,4.21049 3.04386,8.95495 3.83276,10.66958 1.39453,-6.375 1.39453,-6.375 1.39453,-6.375 3.49785,-10.21997 4.67751,-12.81267 5.98948,-15.31496 2.03469,-3.88071 4.11779,-10.38047 4.49212,-14.74755 0.12792,-1.49242 0.28117,-3.00239 0.45951,-4.52741 0.50913,-4.35365 1.58411,-10.67022 2.28545,-14.11516 z m 61.79055,-4.5211 c -0.86431,0.0911 -1.72604,0.19782 -2.58477,0.31989 -4.33802,0.61664 -10.11271,4.2474 -12.44682,7.95167 -0.10309,0.1636 -0.2077,0.33035 -0.31406,0.50047 -2.32382,3.71695 -5.99825,9.92446 -6.68247,14.22555 -0.002,0.0111 3.02985,-1.87108 7.05853,-3.59046 1.00398,-0.42849 2.02084,-0.82869 3.04912,-1.19995 4.11999,-1.48753 9.78278,-5.05631 13.13876,-7.86138 1.01086,-0.84492 4.70028,-3.66712 8.55983,-5.73622 0.57028,-0.30573 1.15296,-0.60665 1.74758,-0.90271 3.92267,-1.95305 3.7647,-3.78569 -0.61115,-4.00815 -1.65037,-0.0839 -6.55723,-0.15793 -10.91455,0.30129 z m 273.17378,11.00532 c 5.89219,22.60612 9.00758,46.0277 9.07584,69.69859 0.0127,4.38359 2.32625,10.54191 5.23278,13.82348 1.30531,1.47373 2.59882,2.95681 3.88069,4.44867 2.85688,3.32491 5.41482,2.52904 5.65199,-1.84816 1.42163,-26.23663 -0.76076,-52.3188 -6.19966,-77.56927 -0.92306,-4.28535 -4.92455,-9.38363 -8.87821,-11.27684 -1.19784,-0.57359 -2.40488,-1.14046 -3.62118,-1.70118 -3.98097,-1.83523 -6.24788,0.18282 -5.14225,4.42471 z m -210.39072,0.14263 c 4.84242,4.39191 9.15258,9.32658 12.87456,14.67351 2.50366,3.59672 5.63935,7.3954 7.34625,8.28399 8.76367,4.86784 10.57069,5.94937 12.37228,7.06187 3.72977,2.30316 5.64284,0.87585 4.0128,-3.19247 -2.99823,-7.48313 -6.84913,-14.60274 -11.473,-21.18559 -2.5191,-3.58635 -8.23006,-7.28992 -12.52103,-8.18319 -3.61176,-0.75188 -7.23279,-1.33802 -10.83198,-1.77505 -4.3512,-0.52833 -5.02581,1.37297 -1.77988,4.31693 z m -32.57482,-3.06443 c -1.81581,0.52314 -3.56697,1.17697 -5.79688,2.07299 -4.06693,1.63417 -9.0202,3.67749 -10.78054,4.97824 7.78711,1.43945 7.78711,1.43945 7.78711,1.43945 10.30112,3.72059 14.86267,4.54598 17.84961,4.47852 10.31668,0.82655 12.82089,1.313 15.40553,1.94572 4.25688,1.04208 5.33622,-0.5285 2.14969,-3.53605 -3.60827,-3.40559 -7.57301,-6.46389 -11.85971,-9.1062 -3.72993,-2.29911 -10.54636,-3.48512 -14.75481,-2.27267 z m -65.36718,5.41464 c -2.84761,2.07701 -5.54194,4.36656 -8.05208,6.85554 -3.11113,3.08491 -5.19612,9.45559 -4.86848,13.82614 0.19712,2.62939 0.74122,8.40132 2.71612,12.28295 0.6126,1.20404 2.47,-1.19547 4.71829,-4.9538 0.29981,-0.50116 0.60761,-0.99649 0.92322,-1.48584 2.37369,-3.6805 4.33233,-9.91478 5.04919,-14.22442 0.51558,-3.09952 2.32736,-8.96522 4.2343,-12.9074 1.00581,-2.07928 -1.18062,-1.97515 -4.72056,0.60683 z m -68.85587,3.26942 c -1.61506,3.47927 -3.07232,7.06267 -4.3595,10.74516 -1.44622,4.13746 -3.33946,10.99823 -4.21105,15.29358 -0.4246,2.09256 0.77014,7.03498 2.72406,10.95903 0.0302,0.0606 1.61705,3.30945 3.8909,7.0559 0.57134,0.94135 1.15777,1.87246 1.75832,2.79321 2.39433,3.67096 4.39714,2.9256 4.55441,-1.45423 0.18309,-5.0993 0.75257,-10.21778 1.73017,-15.31359 0.82572,-4.30411 2.7214,-11.16751 4.2095,-15.28981 0.10451,-0.28952 -1.04348,-3.85711 -2.43642,-8.01352 -0.69794,-2.08257 -1.37067,-4.16792 -2.01803,-6.24943 -1.30182,-4.18585 -3.99695,-4.5018 -5.84236,-0.5263 z m -208.613322,1.27686 c -4.044697,29.10922 -3.896864,58.28213 0.05558,86.72901 0.603274,4.34194 4.036804,9.97767 7.668252,12.43266 1.446241,0.97771 2.906773,1.93573 4.382022,2.87526 3.697339,2.35469 6.027505,0.65524 5.226266,-3.65455 -4.90907,-26.40544 -6.366001,-53.59925 -4.028557,-80.86232 0.374464,-4.36761 -1.41013,-10.69494 -4.037795,-14.2038 -1.167916,-1.55957 -2.323437,-3.12623 -3.466876,-4.69943 -2.577333,-3.546 -4.606345,-6.46402 -4.606343,-6.46402 z m 136.647632,-4.08352 c -4.6443,18.68523 -6.20518,29.77617 -6.76302,40.82228 -0.22109,4.37785 2.35585,10.37346 5.63871,13.2784 1.19489,1.05734 2.42034,2.1249 3.6731,3.20059 3.32585,2.85573 5.79724,1.56178 5.68266,-2.82008 -0.25295,-9.67319 0.32386,-19.42768 1.77714,-29.15963 0.6474,-4.33528 -0.60363,-10.7836 -2.90343,-14.51547 -0.98436,-1.59732 -1.9519,-3.20398 -2.9028,-4.81964 -2.22347,-3.77787 -4.05814,-6.49111 -4.20236,-5.98645 z m 286.52657,13.45221 c 3.44977,7.43673 6.14546,15.23806 8.02234,23.26277 0.99819,4.26778 4.36279,9.95692 7.75761,12.73029 1.51323,1.23622 2.99685,2.47066 4.44768,3.69911 3.34548,2.83267 5.87574,1.6477 5.43998,-2.7137 -0.78205,-7.82735 -2.25083,-15.54367 -4.36452,-23.0565 -1.18708,-4.21932 -5.35496,-9.5067 -9.08397,-11.81132 -2.97929,-1.84126 -5.94277,-3.61773 -8.87217,-5.31239 -3.7944,-2.19507 -5.19135,-0.77426 -3.34695,3.20174 z m -107.07437,-0.55786 c -0.65888,1.00028 -1.30225,2.01804 -1.92856,3.04156 -2.28783,3.73882 -0.49328,5.88416 3.87903,5.73285 0.0319,-0.001 0.0638,-0.002 0.0957,-0.003 4.37208,-0.13949 9.54804,-2.56459 12.45143,-5.83862 0.32218,-0.3633 0.64798,-0.71292 0.9776,-1.04925 3.05428,-3.11656 3.47605,-5.90152 -0.23792,-6.82653 -9.3203,-1.41858 -12.82712,1.28424 -15.23725,4.94318 z m 28.63738,7.88079 c -1.07336,0.35733 -2.15213,0.74364 -3.22894,1.15123 -4.09914,1.55158 -4.02228,4.50897 -0.54249,7.16113 3.36585,2.56534 8.91599,3.77543 13.25605,3.24145 0.79746,-0.0981 1.58154,-0.15723 2.35432,-0.17858 4.3611,-0.1205 6.09915,-2.01401 3.40427,-5.46679 -0.61907,-0.79317 -1.26025,-1.56947 -1.92298,-2.32777 -2.88215,-3.29781 -9.16494,-4.96401 -13.32023,-3.58067 z m 21.72904,4.29832 c 1.34567,1.85989 2.58812,3.79495 3.72226,5.79381 2.16193,3.8103 3.62914,7.2289 3.81458,7.35734 9.14874,7.96799 12.1558,11.44419 15.07662,15.37389 2.61458,3.51769 4.46778,2.96569 3.91858,-1.3816 -0.72025,-5.7012 -2.06728,-11.28613 -3.99114,-16.64753 -1.47998,-4.12441 -6.10032,-9.16295 -10.02305,-11.11862 -3.61443,-1.80197 -6.07126,-2.61829 -9.86548,-3.5929 -4.24583,-1.0906 -5.22023,0.66646 -2.65237,4.21561 z m 276.8409,8.58694 c 3.20524,29.82977 2.3669,60.32043 -2.94922,90.63103 -0.75728,4.31774 0.44578,10.79518 2.72414,14.54028 1.05494,1.73408 2.09509,3.47305 3.12092,5.21632 2.22324,3.7781 4.84059,3.43363 5.81149,-0.84116 6.93378,-30.52871 9.44965,-61.36501 7.93348,-91.72013 -0.21868,-4.37821 -2.76328,-10.65449 -5.72246,-13.88835 -2.0063,-2.19253 -4.03994,-4.30993 -6.10299,-6.35673 -3.11175,-3.08725 -5.2837,-1.93983 -4.81536,2.41874 z m -391.42923,2.64986 c -0.15116,0.54583 -1.20808,4.43366 -1.77823,8.7774 -8.1e-4,0.006 -0.002,0.0122 -0.002,0.0183 -0.56893,4.34399 1.73041,10.638 4.55627,13.98932 0.65698,0.77915 3.64512,4.1261 7.52426,6.1058 2.34791,1.19824 3.36422,-1.52032 2.86711,-5.87144 -0.0378,-0.33054 -0.0723,-0.66162 -0.10364,-0.99319 -0.41189,-4.35983 -2.90336,-10.29227 -5.12751,-14.04844 -0.0225,-0.038 -0.0449,-0.0761 -0.0673,-0.11421 -2.21367,-3.77584 -4.43951,-10.59942 -5.21363,-14.90964 -0.0454,-0.25261 -1.48561,2.82371 -2.65493,7.04605 z m 215.05818,7.55814 c 1.12669,8.16465 1.59717,16.45327 1.37309,24.78246 -0.11788,4.38167 1.38669,9.876 3.36578,12.48388 7.24224,9.96627 9.86457,9.43279 10.44107,5.08753 1.28409,-9.6785 1.68998,-19.36684 1.26813,-28.96001 -0.19256,-4.37911 -3.29025,-10.16641 -6.74007,-12.87114 -1.52767,-1.19773 -3.07672,-2.39628 -4.64517,-3.59346 -3.4846,-2.65976 -5.66203,-1.27138 -5.06283,3.07074 z m -240.86872,0.41366 c -0.65129,6.77673 -0.51171,13.54391 0.35779,20.17442 0.56981,4.34516 3.97818,10.23882 7.36523,13.02096 1.00082,0.82208 2.00698,1.62591 3.01681,2.41108 3.4603,2.6905 9.279,6.40504 12.93612,8.32239 -5.06847,-11.42979 -6.40522,-15.83203 -7.33529,-20.33622 -0.8861,-4.2912 -3.34152,-10.68066 -5.72488,-14.35892 -1.57355,-2.42848 -3.11172,-4.98086 -4.60479,-7.63935 -2.14641,-3.82181 -4.25088,-8.10163 -4.89754,-9.45067 z m 177.01872,3.74428 c 1.20176,7.03653 1.56633,14.2543 1.01036,21.49133 -0.33565,4.36933 0.56637,11.08006 2.28967,15.11057 1.14085,2.66826 2.2384,5.38477 3.29197,8.13143 1.56993,4.09282 4.06114,4.15175 5.35035,-0.0371 0.54548,-1.77235 1.90325,-6.65097 2.72011,-10.95679 0.84028,-4.42924 1.37618,-8.87359 1.62193,-13.30605 0.24261,-4.37595 -1.89676,-10.85803 -4.66715,-14.25425 -2.40405,-2.94713 -4.93976,-5.7629 -7.56958,-8.44122 -3.07088,-3.12751 -4.78543,-2.05776 -4.04766,2.26203 z m -237.35208,0.89763 c -0.11312,7.94037 0.41243,15.83497 1.54237,23.61017 0.63038,4.33768 4.22864,9.90264 7.82963,12.4026 1.99759,1.38682 4.00545,2.75771 6.01916,4.10911 3.63999,2.4428 5.49324,0.99342 4.36352,-3.24164 -1.97018,-7.3858 -3.32783,-14.9561 -4.03056,-22.62524 -0.39996,-4.36484 -3.15669,-10.2716 -6.35671,-13.26763 -1.19165,-1.11569 -2.34229,-2.21254 -3.44816,-3.28629 -3.14493,-3.05354 -5.85681,-2.08387 -5.91925,2.29892 z m 189.42119,1.47961 c 1.11676,4.09079 4.82527,8.60207 8.36925,11.15639 1.02116,0.736 1.95949,1.53657 2.82576,2.40267 3.08847,3.0879 5.29982,2.88786 5.40983,-1.49073 0.0409,-1.62869 0.01,-3.25285 -0.0917,-4.86783 -0.27439,-4.37148 -4.07475,-9.80678 -8.16615,-11.35631 -1.12894,-0.42757 -2.29808,-0.82803 -3.4932,-1.20393 -4.18067,-1.31495 -6.00654,1.13728 -4.85382,5.35974 z m -309.69236,6.63389 c 0.71923,21.72642 4.06861,43.17125 9.83038,63.86726 1.17568,4.223 5.54718,8.91417 9.65724,10.43872 1.11852,0.41489 2.24422,0.82773 3.37737,1.23871 4.12104,1.49466 6.26432,-0.68942 4.90366,-4.85649 -5.89641,-18.05809 -9.83356,-36.80736 -11.62941,-55.88501 -0.41083,-4.36429 -3.27961,-10.27125 -6.48612,-13.26037 -1.38893,-1.29477 -2.76756,-2.6004 -4.136,-3.91646 -3.1596,-3.03867 -5.66215,-2.00756 -5.51712,2.37364 z m 332.87667,8.52341 c -0.0798,1.39676 -0.20751,2.79501 -0.38467,4.19239 -0.55099,4.34577 -2.03529,9.75099 -2.84824,12.11981 1.61625,11.936 1.73042,16.35078 1.57064,20.99453 -0.15073,4.38052 1.76264,5.17833 4.16968,1.51671 3.13019,-4.76167 5.77489,-9.91209 7.84201,-15.41157 1.54174,-4.10171 2.43317,-7.6635 2.46651,-7.79108 -1.59375,-4.85937 -1.59375,-4.85937 -1.59375,-4.85937 -4.44411,-9.32039 -5.37968,-10.94667 -6.38521,-12.44843 -2.43761,-3.64054 -4.89214,-6.24493 -4.89215,-6.24493 z m -22.92236,5.2829 c -4.32752,10.9461 -4.21889,16.59559 -3.34248,20.87162 0.30774,1.5015 0.46163,3.01656 0.47732,4.55878 0.0445,4.37272 1.79575,5.5916 4.72183,2.33189 1.26303,-1.40703 2.46004,-2.87948 3.58491,-4.4142 2.58942,-3.53286 3.61521,-10.29509 1.54042,-14.13114 -0.62234,-1.15063 -1.32842,-2.31337 -2.09796,-3.47815 -2.41542,-3.65597 -4.79788,-6.07979 -4.88404,-5.7388 z m -154.74375,7.24059 c 1.74982,7.70639 4.25834,15.2081 7.4678,22.38251 1.78978,4.00087 4.71772,7.80632 6.26032,8.60936 9.5067,4.34065 11.8599,5.22531 14.23558,6.02561 4.15351,1.39921 5.33289,-0.47637 2.83521,-4.07766 -4.33736,-6.25384 -7.98217,-12.9881 -10.86196,-20.05363 -1.6542,-4.05854 -5.70691,-9.37577 -9.31667,-11.86283 -1.9379,-1.33518 -3.85844,-2.69476 -5.75592,-4.07171 -3.54787,-2.57462 -5.83485,-1.2258 -4.86436,3.04835 z m 305.36142,0.2969 c -0.7071,10.32237 -2.27674,20.67004 -4.75969,30.94196 -1.0299,4.26071 -2.74646,10.16874 -3.72517,13.21786 4.31052,8.80753 5.09771,10.50221 5.86892,12.20412 1.80932,3.99282 4.53869,3.98699 6.03788,-0.13216 0.70294,-1.93138 1.37884,-3.87871 2.02695,-5.84177 1.37427,-4.16249 3.34022,-10.99604 4.38335,-15.25359 1.48835,-6.0747 2.68003,-12.17322 3.58683,-18.27823 0.64403,-4.33591 -1.13733,-10.70224 -3.78754,-14.19419 -0.29731,-0.39174 -2.69536,-3.54162 -5.64811,-6.77982 -1.95352,-2.14235 -3.68385,-0.25737 -3.98342,4.11582 z m -251.22516,1.16148 c 0.96017,2.2677 2.0448,4.47947 3.24744,6.62373 2.14315,3.82119 7.4495,7.43259 11.34247,8.40586 11.34307,-0.48406 11.22676,-3.5912 8.31054,-6.85769 -0.0478,-0.0535 -0.0955,-0.1072 -0.14307,-0.16096 -2.90223,-3.27946 -8.43137,-6.25396 -12.5531,-7.68555 -0.68774,-0.23887 -1.3725,-0.5081 -2.05611,-0.80664 -4.01109,-1.75164 -8.72262,-5.19771 -10.80045,-6.99502 z m 175.96036,12.68906 c -0.35333,1.39292 -1.59827,5.94959 -3.05763,10.08243 -1.47178,4.168 -3.16363,8.20996 -5.0571,12.11868 -1.91081,3.9445 -2.75875,10.4505 -1.71708,14.70859 0.4125,1.68621 0.80557,3.35162 1.17936,4.99239 0.9737,4.27412 3.78685,4.90538 6.16325,1.22238 4.09731,-6.3501 7.68957,-13.09873 10.70671,-20.21118 1.71169,-4.03507 1.65447,-10.73083 0.0615,-14.81485 -1.12992,-2.89678 -2.28171,-5.75718 -3.45307,-8.56458 -1.68799,-4.0456 -3.74825,-3.78222 -4.82589,0.46614 z m -336.08396,4.8986 c 3.16034,14.56531 7.73043,28.76582 13.60694,42.37993 1.73722,4.02461 6.66821,8.27382 10.86199,9.55035 1.67669,0.51036 3.36696,1.02379 5.07068,1.54034 4.19519,1.27191 5.85422,-0.80085 3.86372,-4.70637 -6.06497,-11.89999 -11.02686,-24.37434 -14.79606,-37.23599 -1.23277,-4.20659 -5.14768,-9.47075 -8.8521,-11.81458 -1.58518,-1.00296 -3.16141,-2.02027 -4.72857,-3.05169 -3.66174,-2.40998 -5.95609,-0.94585 -5.0266,3.33801 z m 144.66924,3.51681 c 3.29119,5.30319 7.13016,10.26353 11.46902,14.77312 3.03835,3.15791 9.29608,5.81557 13.67597,5.98636 0.2973,0.0116 0.5942,0.0223 0.89066,0.032 4.38082,0.1439 11.48,-0.27224 15.81215,-0.94051 1.1488,-0.17722 -1.19134,-1.78448 -4.94472,-4.04462 -3.48858,-2.10069 -6.76272,-4.49157 -9.80247,-7.13131 -3.30822,-2.87289 -9.13472,-6.43301 -13.26811,-7.89016 -3.44832,-1.21564 -6.98449,-2.64245 -10.56774,-4.2588 -3.99562,-1.80236 -5.57563,-0.24966 -3.26476,3.47392 z m 93.91577,-2.44634 c -3.78321,1.95448 -7.63617,6.59733 -9.77686,10.39927 -0.90043,1.59917 -1.98938,3.09638 -3.25924,4.52684 -2.90574,3.27322 -5.9058,5.35522 -5.95255,5.39066 9.93668,-1.1426 11.95921,-1.5886 13.95083,-2.13372 4.22533,-1.15651 8.05248,-3.48307 8.74448,-4.58894 2.62641,-8.26267 2.72662,-9.0716 2.80523,-9.90012 0.41378,-4.36125 0.18889,-7.92996 0.18887,-7.92996 z m 27.52613,7.02858 c -2.268,2.36273 -4.70747,4.55098 -7.29185,6.55177 -3.4644,2.6821 -8.17864,7.64902 -10.58186,11.31322 -2.21163,3.37206 -4.772,6.80202 -7.62793,10.23716 -2.80218,3.3705 -1.76234,5.19783 2.39771,3.82046 5.73724,-1.89956 11.25225,-4.4082 16.43697,-7.46993 3.77332,-2.22827 7.90104,-7.67588 9.20819,-11.85967 0.24967,-0.79911 1.24213,-4.91597 1.95636,-9.24083 0.0856,-0.51816 0.16198,-1.01107 0.22984,-1.48379 0.62185,-4.33229 -1.69356,-5.02896 -4.72743,-1.86839 z m 31.17631,2.29046 c -3.67283,6.15989 -8.04812,11.80137 -12.9872,16.85817 -3.06214,3.13512 -6.50745,8.91483 -7.5752,13.16631 -0.64467,2.56692 -1.33726,5.13789 -2.06932,7.70253 -1.20319,4.21519 0.79577,5.82002 4.40333,3.33111 6.58833,-4.54539 12.68486,-9.80847 18.14243,-15.71899 2.97322,-3.21999 5.43235,-9.57624 5.4051,-13.9589 -0.0219,-3.52021 -0.21163,-7.02717 -0.54835,-10.49997 -0.42298,-4.36258 -2.52652,-4.64426 -4.77079,-0.88026 z m -102.49816,-3.09954 c -1.09733,0.39552 -2.23367,0.71891 -3.4127,0.97842 -4.27457,0.94084 -9.07603,0.88892 -10.55175,0.83177 8.51303,5.41729 10.46172,6.39149 12.47521,7.26549 4.01849,1.74433 9.67075,1.7683 12.40369,0.66615 6.44856,-4.60988 6.47816,-4.63959 6.50774,-4.6694 3.08513,-3.10814 1.48123,-6.03341 -2.82581,-6.81826 -1.68944,-0.30786 -5.17803,-1.18717 -7.71513,-2.13343 l 0,-5e-5 z m -144.37127,20.01438 c 4.33271,10.03255 9.52655,19.67573 15.5191,28.7988 2.40655,3.66374 8.02983,6.9315 12.39835,7.29541 1.53546,0.1279 3.09463,0.24734 4.67546,0.35807 4.37296,0.30629 5.61431,-2.23208 2.94452,-5.70859 -5.58267,-7.26956 -10.5779,-14.98113 -14.93673,-23.04369 -2.08463,-3.85595 -6.96844,-8.242 -11.05536,-9.82726 -1.75594,-0.68111 -3.5038,-1.38013 -5.24354,-2.09661 -4.05333,-1.6693 -6.03971,0.19967 -4.3018,4.22387 z m 395.92479,0.53824 c -0.73765,2.79098 -2.37581,8.4544 -3.74432,12.61885 -3.86525,11.7622 -8.61962,23.026 -14.15818,33.75128 -2.01132,3.89488 -2.7739,10.40322 -1.66925,14.64541 0.46255,1.77633 0.91064,3.55657 1.34502,5.34028 1.03722,4.25919 3.73478,4.75303 5.99411,0.99655 9.41385,-15.65194 17.20347,-32.53127 23.06166,-50.50024 1.35874,-4.16768 2.44931,-8.00326 2.59635,-8.51649 -5.33395,-7.52506 -6.08961,-8.57526 -6.85207,-9.62993 -2.56831,-3.5526 -5.45322,-2.94374 -6.57332,1.29429 z m -219.64435,0.50307 c -3.88184,0.58188 -7.82905,0.83414 -11.79664,0.73603 -4.37987,-0.10831 -11.17651,0.74205 -15.34067,2.10808 -3.61456,1.18574 -7.46532,2.23851 -11.49821,3.14956 -4.27553,0.96587 -4.59736,3.1364 -0.49358,4.67336 0.0975,0.0365 0.19515,0.0729 0.29288,0.10907 4.10945,1.52172 10.99581,3.35785 15.32058,4.06359 0.80286,0.13102 1.60614,0.24976 2.4096,0.35646 4.34399,0.5769 10.93734,-1.19154 14.52716,-3.70667 2.56456,-1.79681 7.26197,-5.67959 10.38041,-8.76018 2.31332,-2.28524 0.53142,-3.37879 -3.80153,-2.7293 z m -127.49113,13.36929 c 4.41142,6.18697 9.29574,12.04192 14.61856,17.49732 3.06105,3.13729 9.24813,5.49152 13.62989,5.361 2.3937,-0.0713 4.7831,-0.16135 7.16228,-0.27002 4.37913,-0.2 5.00895,-2.47117 1.59679,-5.22224 -5.80154,-4.67753 -11.17016,-9.83404 -16.06595,-15.39155 -2.89733,-3.28895 -8.60887,-6.39901 -12.96558,-6.88411 -1.55391,-0.17303 -3.07329,-0.35474 -4.55467,-0.544 -4.34821,-0.55551 -5.96604,1.88466 -3.42132,5.4536 z m 253.14124,2.76076 c -4.27865,7.15743 -9.11156,13.90177 -14.42171,20.19994 -2.82544,3.35115 -5.23804,6.28901 -5.22894,6.72524 0.0307,9.57513 4.7e-4,11.21189 -0.0447,12.84725 -0.12111,4.38193 2.33239,5.57975 5.46935,2.51815 7.02257,-6.85386 13.48156,-14.32536 19.27467,-22.3625 2.56308,-3.55591 3.63228,-9.99545 2.48053,-14.22512 -0.45066,-1.65499 -0.91629,-3.32433 -1.3957,-5.00515 -1.20238,-4.21559 -2.24118,-7.61443 -2.2412,-7.61443 z m -199.69266,-5.89884 c -2.30852,0.0818 -4.62078,0.13322 -6.92905,0.15732 -4.38336,0.0457 -5.43632,2.51141 -2.12303,5.3805 5.85378,5.06899 12.2596,9.56522 19.16178,13.37472 3.83717,2.11784 10.60611,3.08201 14.87085,2.07285 3.44091,-0.81422 6.82909,-1.80877 10.15151,-2.95564 4.14303,-1.43013 5.53531,-3.25266 3.25757,-3.8776 -13.29399,-4.51606 -18.72919,-7.13341 -23.83333,-10.1977 -3.7574,-2.25578 -10.17548,-4.10967 -14.5563,-3.95445 z m 97.91506,10.87631 c -6.93879,2.70091 -14.20545,4.61336 -21.63817,5.65851 -4.3398,0.61024 -10.58017,3.10945 -13.99227,5.86137 -1.98151,1.59811 -3.99381,3.17143 -6.02614,4.71611 -3.48994,2.65257 -2.85511,5.17736 1.52247,5.39094 8.18063,0.39913 16.31855,-0.12737 24.26555,-1.51026 4.31794,-0.75139 10.19298,-4.24142 12.89531,-7.69178 2.21658,-2.83016 4.28198,-5.76498 6.20093,-8.77361 2.35693,-3.69532 0.85637,-5.241 -3.22768,-3.65128 z m 41.0962,11.77644 c -6.13224,4.62335 -12.68268,8.68403 -19.5504,12.13377 -3.91671,1.96741 -8.49331,6.65217 -10.19739,10.69105 -0.66419,1.57421 -1.32994,3.11784 -1.99478,4.62626 -1.76799,4.01125 0.10583,6.19546 4.21876,4.6801 7.17764,-2.6445 14.13165,-5.85437 20.78311,-9.59526 3.82042,-2.14867 7.80798,-7.49153 8.95957,-11.72127 0.73562,-2.70187 1.44117,-5.39576 2.11253,-8.07153 1.06682,-4.25187 -0.8316,-5.38175 -4.3314,-2.74312 z m 186.66448,16.24 c -9.55687,22.46999 -21.90093,43.19736 -36.49975,61.9227 -2.69527,3.45711 -4.60821,9.72618 -4.26799,14.09663 0.14419,1.85214 0.27488,3.70443 0.39293,5.55656 0.27884,4.37481 2.8411,5.31352 5.71728,2.00538 17.13508,-19.70851 31.80678,-41.80274 43.36235,-65.97228 1.89083,-3.95486 1.86352,-10.44759 -0.0958,-14.36886 -0.60059,-1.202 -1.21354,-2.40292 -1.83842,-3.60325 -2.02421,-3.88824 -5.05493,-3.67079 -6.77062,0.36312 z m -605.415017,-0.0707 c 12.387743,31.96901 24.510042,55.46983 38.94815,77.46906 2.405262,3.66489 7.697082,7.97852 11.789171,9.55035 3.564746,1.36927 7.079666,2.62513 10.551066,3.77178 4.16232,1.37486 5.38605,-0.44434 2.76537,-3.9584 -18.034198,-24.1819 -32.988725,-50.60303 -44.498019,-78.50748 -1.67147,-4.0525 -6.226022,-8.9164 -10.546797,-9.59577 -1.956712,-0.30765 -6.416085,-0.4575 -9.008941,1.27046 z m 303.839537,9.69766 c -1.38152,0.80553 -2.74313,1.58516 -4.08101,2.33732 -3.82111,2.14823 -3.65513,5.0636 0.52571,6.38008 2.31065,0.72759 7.62296,2.23359 11.90483,3.17039 3.49448,0.76454 6.99827,1.38837 10.50439,1.87627 4.34134,0.60413 10.72603,-1.26978 14.17648,-3.97373 2.11653,-1.65862 4.21184,-3.33031 6.27751,-5.01099 3.40035,-2.76662 2.55619,-4.83529 -1.82679,-4.85551 -7.62439,-0.0352 -15.30046,-0.76957 -22.93541,-2.24741 -4.30312,-0.83293 -10.75876,0.11554 -14.54571,2.32358 z m 185.86129,7.90156 c -8.42511,9.3004 -17.71242,17.74613 -27.68944,25.25809 -3.50186,2.63665 -7.03753,8.15131 -7.91075,12.44709 -0.36503,1.79575 -0.74652,3.58811 -1.14425,5.3769 -0.95144,4.27913 1.24317,5.92653 4.93138,3.5575 11.4796,-7.37365 22.26905,-15.82553 32.17791,-25.26504 3.17387,-3.02352 5.56956,-9.13415 5.47778,-13.51695 -0.0759,-3.62323 -0.21267,-9.83565 -0.63525,-13.84744 z m -420.46234,9.649 c 13.43505,24.53553 30.03367,47.3168 49.42901,67.60199 3.02943,3.16842 9.11206,5.59984 13.48612,5.31317 1.52674,-0.10007 3.05445,-0.21818 4.58376,-0.35373 4.36639,-0.387 5.25426,-3.23184 2.09076,-6.26639 -18.75361,-17.98925 -35.05393,-38.33463 -48.5843,-60.38361 -2.29276,-3.73626 -7.50067,-7.72473 -11.71341,-8.93698 -1.82002,-0.52373 -3.63502,-1.05991 -5.44475,-1.60818 -4.19539,-1.271 -5.9526,0.78878 -3.84719,4.63373 z m 190.25309,1.3917 c -1.76605,0.49009 -3.53605,0.96187 -5.30969,1.41564 -4.24682,1.0865 -4.73814,3.79836 -0.95065,6.00496 9.05867,5.27761 18.67754,9.80004 28.80685,13.45532 4.12314,1.48789 10.59265,0.73103 14.31902,-1.5778 1.35992,-0.84259 2.7329,-1.70569 4.11709,-2.58817 3.69638,-2.35659 3.17112,-5.0679 -1.05863,-6.21796 -0.91061,-0.24759 -5.07199,-1.41237 -9.22312,-2.82005 -5.48361,-1.85954 -10.80965,-3.99722 -15.96987,-6.39107 -3.97629,-1.84461 -10.50703,-2.45304 -14.731,-1.28087 z m 143.34158,3.75155 c -8.03496,3.30157 -16.34176,5.97282 -24.83315,7.97093 -4.26679,1.00402 -9.83165,4.52383 -12.49511,8.00548 -1.19689,1.56456 -2.4102,3.11466 -3.63942,4.65045 -2.73923,3.42238 -1.50594,5.82312 2.83767,5.23393 10.3146,-1.39911 20.45758,-3.6997 30.30673,-6.84394 4.17578,-1.33308 8.88139,-5.85737 10.48619,-9.93674 0.62375,-1.58556 1.24481,-3.19398 1.86209,-4.82344 1.55294,-4.09941 -0.47059,-5.92263 -4.525,-4.25667 z m -267.03456,9.43391 c 12.63394,16.16999 27.12846,30.93221 43.28237,43.87634 3.42083,2.74112 9.69926,3.94019 13.90908,2.71776 1.08671,-0.31555 2.17778,-0.63621 3.2733,-0.96174 4.20214,-1.24864 4.64926,-4.30058 1.10957,-6.88636 -14.72533,-10.75702 -28.12377,-23.07335 -40.05104,-36.62753 -2.89586,-3.29086 -8.69287,-6.32442 -13.05196,-6.78796 -1.8006,-0.19148 -3.5997,-0.39682 -5.39716,-0.61536 -4.35163,-0.52909 -5.77305,1.83058 -3.07416,5.28485 z m 69.21112,-3.70272 c -1.75913,0.13782 -3.51952,0.26055 -5.28095,0.3683 -4.37546,0.26766 -5.37404,2.85717 -2.10478,5.77731 10.60479,9.47231 22.18064,17.96113 34.63168,25.27725 3.77936,2.22071 10.27566,2.73498 14.41781,1.29973 1.69684,-0.58796 3.40666,-1.18116 5.13057,-1.77997 4.14106,-1.4384 4.24681,-4.0502 0.32302,-6.00434 -11.76966,-5.86155 -22.80576,-12.81151 -33.02403,-20.69139 -3.47122,-2.67685 -9.72307,-4.58929 -14.09332,-4.24689 z m 422.99604,27.83105 c -16.06764,25.60423 -35.47829,48.62847 -57.43625,68.70926 -3.23491,2.95835 -6.18511,8.83233 -6.6016,13.1962 -0.0808,0.84619 -0.16401,1.69149 -0.24983,2.53585 -0.44327,4.36121 -1.06754,9.32414 -1.14386,11.10498 29.05858,-24.15368 49.63384,-46.20695 67.15471,-70.82979 2.54153,-3.57171 4.46915,-10.07475 4.20617,-14.45034 -0.18673,-3.10696 -0.44367,-6.16164 -0.76927,-9.16954 -0.47172,-4.35797 -2.82996,-4.8097 -5.16007,-1.09662 z m -137.99127,9.20803 c -13.48051,10.44535 -28.03203,19.46973 -43.3699,26.92312 -3.9427,1.91595 -8.45084,6.67908 -10.10918,10.73695 -0.70786,1.7321 -1.42991,3.45853 -2.16541,5.17928 -1.72293,4.03089 0.13185,6.02064 4.18456,4.34987 17.97592,-7.41079 35.0988,-16.79094 50.99188,-27.95724 3.58681,-2.52005 6.52227,-8.21384 6.58572,-12.59711 0.0176,-1.21332 0.0321,-2.4332 0.0436,-3.65999 0.0411,-4.38355 -2.69616,-5.6598 -6.16125,-2.97488 z m -109.80275,4.55543 c -12.75826,2.61001 -25.81521,3.99973 -38.98258,4.07935 -4.38338,0.0265 -10.53469,2.31434 -13.82573,5.21007 -1.40062,1.23238 -2.81262,2.45188 -4.23564,3.65854 -3.34344,2.83509 -2.58644,5.45685 1.7859,5.76955 14.32112,1.02419 28.59761,0.58679 42.62403,-1.22093 4.34756,-0.56031 9.88355,-4.07485 12.38631,-7.67395 0.75354,-1.08363 1.51116,-2.17346 2.27339,-3.27007 2.50201,-3.59962 5.07371,-7.30567 5.71766,-8.29512 z m -102.39968,45.12131 c -1.56448,0.92922 -3.136,1.84661 -4.71448,2.75183 -3.80273,2.18078 -6.05429,4.15457 -4.96476,4.47219 26.95541,7.0749 46.4651,9.66192 65.82852,10.04975 4.38271,0.0878 10.13684,-2.75519 12.79486,-6.24114 0.7475,-0.98032 1.49601,-1.96834 2.24577,-2.96401 2.63703,-3.50188 1.19082,-6.13814 -3.19101,-6.01472 -17.73013,0.4994 -35.65496,-0.94613 -53.46252,-4.49843 -4.29886,-0.85754 -10.76738,0.20594 -14.53638,2.44453 z m 208.33963,9.18405 c -21.43066,12.47682 -44.431,22.26788 -68.37638,29.06497 -4.21703,1.19704 -9.49856,5.10892 -11.84485,8.81185 -1.03909,1.63992 -2.08956,3.27123 -3.15108,4.89386 -2.39987,3.66843 -0.92339,5.90951 3.35086,4.93631 26.59489,-6.05538 52.26311,-15.58381 76.26182,-28.23882 3.87756,-2.04472 7.78183,-7.25349 8.60199,-11.55959 0.26219,-1.3766 0.5121,-2.75969 0.75028,-4.14965 0.74035,-4.3206 -1.80428,-5.96449 -5.59264,-3.75893 z m -268.72626,19.63239 c -1.74524,0.65574 -3.49382,1.29902 -5.24551,1.92969 -4.12451,1.48496 -4.31249,4.19888 -0.333,6.03735 10.9724,5.06911 22.34453,9.52748 34.09147,13.31714 4.17191,1.34589 10.99204,3.35162 15.22914,4.47554 10.01322,2.65606 20.07631,4.76518 30.15388,6.35123 4.33033,0.68152 10.63368,-1.08918 13.93267,-3.9756 1.14369,-1.00065 2.27865,-2.01618 3.40578,-3.04651 3.23543,-2.95758 2.21863,-5.74041 -2.13825,-6.22387 -13.72294,-1.52278 -27.44685,-4.05761 -41.0715,-7.65306 -4.23852,-1.11851 -11.05884,-3.12425 -15.22795,-4.47874 -6.13126,-1.99197 -12.15325,-4.17958 -18.06606,-6.54734 -4.06947,-1.6296 -10.62708,-1.72767 -14.73067,-0.18583 z m -66.04652,18.67906 c -11.31328,3.9107 -10.82811,8.33144 -7.16104,10.73335 22.91001,15.00593 47.79805,27.52617 74.4218,37.07346 4.12637,1.47972 10.94509,1.71493 15.14895,0.47269 3.54986,-1.04898 6.99828,-2.15982 10.35288,-3.33282 4.13782,-1.44687 4.00071,-3.65815 -0.21063,-4.87514 -1.08365,-0.31316 -5.37087,-1.57365 -9.54379,-2.91648 -26.09255,-8.39645 -50.54124,-19.75119 -73.10948,-33.5798 -3.73778,-2.29031 -8.13928,-3.91794 -9.89869,-3.57526 z m 311.8416,29.16897 c -28.36711,11.15117 -58.25105,18.62551 -88.81586,22.00688 -4.35708,0.48202 -10.2438,3.45192 -13.20586,6.68349 -0.99539,1.08597 -4.36255,4.51053 -6.59429,8.27421 -0.6085,1.02621 2.5225,1.74312 6.89575,1.44107 29.83872,-2.06089 59.17448,-7.8631 87.30758,-17.069 4.16629,-1.36332 9.65763,-5.3886 12.15141,-8.99364 1.96194,-2.8362 3.81769,-5.66792 5.57316,-8.49964 2.30962,-3.72561 0.76787,-5.44713 -3.31189,-3.84337 z"
       transform="scale(0.26458333)"
       inkscape:connector-curvature="0"
       sodipodi:nodetypes="cccccccsccsccccccccccsccccccccccccccccccccccccccccccccccccccccccccccccccccccccccccccccccscccccccccccccccccccccccscccccccccccccccccccccccccccccccccccccccccccscscscccccccccccccccccccscccccccccsccccccccscccccccsccsccccccccccccccccccccccccccccccccccccccccccccccccccccccccccccccccccccccccccccccccccccccccccccccccccccccccccccccccscccccccccccscccccccccccccccccccccccccccccccccccccccccccccccccscccccccccccccccccccccccccccccccccccccccccccccccccccccccccccccccccccccccccccccccccccccccccccccccccccccccccccccccccccccccsccscccccccccccccc"
       inkscape:path-effect="#path-effect47"
       inkscape:original-d="m 365.42188,76.058594 c -35.15315,4.585058 -69.28139,14.740132 -101.00782,29.830076 -2.87244,6.80823 -5.27168,13.69141 -7.26758,20.70508 29.58815,-15.85398 61.6748,-27.09678 94.93946,-33.101562 4.30766,-5.953441 8.7583,-11.766873 13.33594,-17.433594 z m 108.50195,3.943359 c -6.87712,3.61651 -13.3453,7.590314 -19.50586,11.927735 13.78399,2.081452 27.54516,5.091831 41.19531,9.121092 19.79954,5.84444 38.61231,13.51881 56.32617,22.7793 6.96917,-2.10607 13.9627,-4.00945 20.96289,-5.73047 -22.5415,-13.2069 -46.95042,-23.904196 -72.99414,-31.591798 -8.62712,-2.546559 -17.295,-4.706391 -25.98437,-6.505859 z M 173.67578,108.44141 c -8.58131,0.29805 -61.9707,57.67187 -61.9707,57.67187 -0.81693,6.67389 -1.37375,13.09089 -1.69141,19.29492 19.99614,-27.10421 43.62519,-51.09106 69.94531,-71.5039 -1.13096,-2.7243 -2.98644,-4.80355 -5.9082,-5.4336 -0.11324,-0.0245 -0.23879,-0.034 -0.375,-0.0293 z m 246.17188,14.42578 c -4.31145,4.70981 -8.56068,9.67668 -12.79883,14.87695 24.41148,-0.006 49.09278,3.36072 73.36523,10.46875 2.0301,0.5945 4.04331,1.21981 6.04883,1.85938 6.40509,-3.26696 12.89472,-6.35504 19.46094,-9.25 -6.93261,-2.6474 -14.0178,-5.03973 -21.25195,-7.15821 -21.4531,-6.28239 -43.19889,-9.80021 -64.82422,-10.79687 z m -93.80469,11.59961 c -27.17513,8.11464 -53.04339,20.20479 -76.59961,35.82812 -0.5573,6.27253 -0.93296,12.72505 -1.19336,19.35352 20.76667,-15.10979 43.66966,-27.22134 67.87891,-35.93555 3.11995,-6.51298 6.4284,-12.93201 9.91406,-19.24609 z m -147.71094,30.29492 c -24.73473,23.37213 -45.96526,50.69897 -62.43945,81.39648 1.85541,6.91114 4.11687,13.63514 6.75,20.25782 14.25036,-29.96601 33.16197,-56.85642 55.54883,-80.125 -0.14386,-7.20238 -0.0909,-14.38348 0.14062,-21.5293 z m 228.97656,3.01758 c -7.98701,-0.0428 -15.9406,0.33288 -23.83398,1.09375 -3.85946,5.38108 -7.83343,11.03559 -11.86914,16.80859 19.72274,-3.11888 39.9842,-3.60522 60.23242,-1.19531 5.69357,-4.40237 11.54053,-8.61012 17.51563,-12.63281 -14.00523,-2.65637 -28.07358,-3.9994 -42.04493,-4.07422 z m 226.87305,18.00976 c 24.04909,25.10482 43.95655,53.92669 59.06641,85.13477 6.90387,2.5291 13.70594,5.22945 20.39257,8.08789 -14.04452,-32.77373 -33.03848,-63.33744 -56.33789,-90.375 -7.82962,-1.48676 -15.50742,-2.41583 -23.12109,-2.84766 z m -46.94726,3.16992 c -6.26763,1.11826 -12.62054,2.49658 -19.08985,4.08594 21.84474,16.90904 40.86861,37.00187 56.61133,59.375 7.09582,1.24357 14.14465,2.70429 21.14258,4.33789 -15.90551,-25.35004 -35.64226,-48.30343 -58.66406,-67.79883 z m -287.00391,3.67969 c -18.89412,9.32965 -36.54044,21.11799 -52.35938,35.08985 0.0729,6.63593 0.19118,13.46313 0.33203,20.51953 13.68876,-13.6591 29.13278,-25.43139 45.82422,-35.07032 1.83582,-6.91074 3.90987,-13.76038 6.20313,-20.53906 z m 230.44531,11.28125 c -6.16134,1.99803 -12.53329,4.14216 -19.04492,6.36719 18.1136,10.02424 34.51526,22.44032 48.94726,36.7168 7.13791,-0.0695 14.28073,0.0946 21.41407,0.48242 -14.87253,-16.70671 -32.08241,-31.43551 -51.31641,-43.56641 z m -126.82226,5.02539 c -17.96231,0.11494 -35.70611,2.72342 -52.73243,7.5918 -2.88986,5.42171 -5.88728,11.8226 -8.8789,18.87695 14.96232,-5.52008 30.6821,-9.1093 46.72265,-10.56445 4.76117,-5.49754 9.72993,-10.79894 14.88868,-15.9043 z m 72.57226,13.71875 c -5.41094,2.2614 -11.77694,5.50742 -18.6914,9.44922 16.09057,5.01623 31.01447,12.1536 44.58984,21.00781 7.0186,-1.45414 14.08386,-2.63872 21.18164,-3.56445 -14.15185,-10.93509 -29.91722,-20.05292 -47.08008,-26.89258 z m -294.51367,10.64453 c -16.40227,21.4641 -29.77474,45.59502 -39.29492,71.98829 3.30221,5.34895 6.82267,10.7454 10.55664,16.22656 7.55706,-24.41059 18.54656,-46.9414 32.3125,-67.23047 -1.38944,-6.96205 -2.58735,-13.96034 -3.57422,-20.98438 z m 104.97266,15.01563 c -13.60743,10.16219 -25.91388,22.10492 -36.47071,35.61914 1.02506,6.09708 2.47604,12.89592 4.23633,20.07422 8.5175,-12.80866 18.66385,-24.31776 30.05664,-34.35352 0.45097,-7.14895 1.18249,-14.2655 2.17774,-21.33984 z m 144.87695,0.16211 c -6.00724,4.1156 -12.0771,8.51067 -18.06055,13.03711 9.56173,0.64341 19.15194,2.26289 28.62891,4.9414 3.38041,0.95543 6.69476,2.0343 9.94922,3.2168 6.39108,-3.29952 11.9023,-5.76304 15.94922,-7.17187 1.12699,-0.39234 2.25779,-0.77193 3.38867,-1.14844 -7.98454,-3.81182 -16.37876,-7.01026 -25.16016,-9.49219 -4.87761,-1.37858 -9.78148,-2.49814 -14.69531,-3.38281 z m -61.90625,1.30078 c -13.31256,2.94701 -26.18076,7.58048 -38.25977,13.72656 -2.39147,7.02345 -4.66197,14.22776 -6.74609,21.45703 10.88708,-7.12292 22.73236,-12.78498 35.16211,-16.78906 3.57341,-7.56753 6.98714,-13.89405 9.84375,-18.39453 z m 32.84765,29.25977 c -3.82217,0.0169 -7.62798,0.21658 -11.4082,0.58007 -4.78023,4.15617 -9.31551,8.31126 -13.46484,12.38867 -2.23122,2.19257 -4.32942,4.50335 -6.32813,6.88868 13.05865,-3.91005 26.89946,-5.45722 40.78516,-4.30664 6.11353,-4.47133 12.32362,-8.66966 18.35937,-12.47071 -9.29013,-2.11671 -18.66108,-3.12104 -27.94336,-3.08007 z M 350.49414,290.625 c -11.87101,5.4439 -22.87638,12.69795 -32.51953,21.52539 -0.89179,4.18815 -1.6808,8.2868 -2.34375,12.24805 -0.80128,4.78795 -1.20755,9.61648 -1.30274,14.43164 7.91544,-10.76933 17.79377,-19.87955 28.95313,-27.00391 2.16897,-7.25119 4.6267,-14.39971 7.21289,-21.20117 z m -154.58008,3.60742 c -6.58579,12.76735 -12.04339,26.31714 -16.17187,40.58789 -1.69217,5.84923 -3.1197,11.72546 -4.31055,17.61524 4.02723,5.38449 8.24944,10.96625 12.57422,16.66601 1.33451,-10.06054 3.41848,-20.11111 6.30078,-30.07422 2.4719,-8.5445 5.46146,-16.81002 8.90625,-24.79101 -2.65664,-6.5805 -5.08637,-13.25572 -7.29883,-20.00391 z m -149.865232,0.80469 c -1.045694,-0.0197 -2.104338,0.18036 -3.164062,0.64844 -6.305973,2.78095 -15.090432,71.53526 -16.3125,81.33203 -0.03308,0.74042 -0.06324,1.48051 -0.0918,2.2207 4.873559,8.76319 9.878141,16.73892 15.050781,24.03711 -0.980854,-34.48842 3.093524,-69.48796 12.75,-103.91797 -2.469117,-2.47139 -5.298737,-4.26492 -8.232422,-4.32031 z m 461.435552,3.66016 c -2.43758,-0.0211 -4.89506,-0.0126 -7.35352,0.004 9.76996,8.91612 18.28205,19.09775 25.37695,30.18945 4.90858,0.87351 9.05069,1.81264 12.1543,2.75 2.86546,0.86545 5.71059,1.78268 8.53711,2.74219 -6.56694,-12.74176 -14.73561,-24.63812 -24.33008,-35.32031 -4.70774,-0.18806 -9.50366,-0.32302 -14.38476,-0.36523 z m -222.72071,1.00195 c -8.64729,9.80456 -16.10533,20.77222 -22.05273,32.76953 2.27972,7.14491 4.76308,14.33203 7.39453,21.38477 4.40189,-12.36097 10.49613,-23.74522 17.94726,-33.99024 -1.56916,-7.64438 -2.68252,-14.56071 -3.28906,-20.16406 z m 187.10156,0.0488 c -8.62572,0.60518 -16.96859,1.47435 -24.68164,2.62695 -0.63182,0.0944 -1.25771,0.21502 -1.88671,0.32227 12.69871,5.32359 24.02679,12.87257 33.68945,22.05664 7.46993,0.11004 14.77425,0.4799 21.65234,1.04101 -8.1748,-9.99652 -17.83013,-18.82291 -28.77344,-26.04687 z m 80.56446,1.77343 c 9.82911,13.87831 17.80534,29.05134 23.69336,45.04688 6.53736,3.11695 12.94998,6.48173 19.23242,10.07226 -5.05556,-17.88228 -12.46569,-35.02206 -22,-50.88281 -0.3452,-0.10422 -0.66545,-0.2001 -1.01172,-0.30469 -5.18379,-1.56564 -12.0035,-2.88442 -19.91406,-3.93164 z m -157.36133,6.76368 c -12.87352,0.98214 -25.3788,4.53562 -36.73438,10.29296 -4.44425,8.33326 -7.88756,16.98284 -10.41796,25.34961 8.15023,-7.25664 17.75985,-12.81819 28.13086,-16.3457 3.20725,-3.88272 6.78733,-7.77468 10.67773,-11.59765 2.64949,-2.60359 5.44795,-5.17296 8.34375,-7.69922 z m 26.18555,1.61328 c -8.67713,3.71491 -16.78397,8.3891 -24.07227,13.47265 8.61914,-0.56234 17.41139,0.22256 26.04492,2.56055 2.77884,0.75252 5.48357,1.64617 8.11524,2.66406 2.90612,-0.60376 5.89162,-1.14269 8.94922,-1.59961 5.45583,-0.8153 11.12753,-1.38566 16.8789,-1.75586 -8.90408,-6.1755 -18.95946,-10.96078 -29.98047,-13.94531 -1.97279,-0.53424 -3.95235,-0.99454 -5.93554,-1.39648 z m 187.72265,6.70898 c 8.79007,19.33304 15.00017,39.87719 18.33789,61.01367 5.81307,4.3328 11.47931,8.86637 17.00782,13.56446 -2.16648,-23.57252 -7.70239,-46.62755 -16.24415,-68.44141 -6.15443,-2.05 -12.52225,-4.08427 -19.10156,-6.13672 z m -270.89453,15.69727 c -9.04538,7.99231 -16.60478,17.74803 -22.00391,28.95898 1.37387,8.06322 3.45151,15.83221 5.96485,23.01172 0.52762,1.17797 0.96781,2.13098 1.41797,3.10938 0.37172,-2.13186 0.82552,-4.25828 1.39453,-6.375 2.17125,-8.07714 5.61251,-15.49522 10.03711,-22.13868 0.15935,-6.39814 0.841,-13.2432 2.02344,-20.30859 0.34624,-2.06893 0.73847,-4.15775 1.16601,-6.25781 z m 63.99414,0.58984 c -6.21321,-0.0467 -12.35921,0.73958 -18.29101,2.25 -3.05148,3.44688 -4.56773,6.32232 -9.15821,13.6582 -1.25231,2.0013 -2.04392,4.58322 -2.50586,7.49805 5.44939,-3.28268 11.45888,-5.65398 17.73829,-6.98437 1.92634,-2.57275 4.39691,-4.90415 7.37695,-7.17383 4.15671,-3.16586 9.5071,-5.95473 15.71875,-8.31446 -3.62668,-0.59308 -7.26321,-0.9064 -10.87891,-0.93359 z m 263.14063,3.74219 c 7.98415,27.45606 11.8477,56.23195 11.09375,85.28711 4.93348,5.34057 9.70395,10.8189 14.31836,16.40625 2.5865,-31.59292 -0.0937,-63.06085 -7.43555,-93.22461 -5.76582,-2.99342 -11.75563,-5.79343 -17.97656,-8.46875 z m -214.4043,2.74805 c 9.52535,7.11673 17.38131,16.18382 23.23633,26.42773 1.03403,0.51121 2.06978,1.03599 3.10742,1.57617 6.36364,3.31281 12.77525,7.1814 19.05664,11.3418 -4.02655,-12.76126 -10.46502,-24.68076 -18.95312,-34.9707 -8.77931,-2.44332 -17.74763,-3.82015 -26.44727,-4.375 z m -18.66797,0.46679 c -8.50007,1.14023 -10.17664,2.24746 -20.92969,6.58399 -1.15504,0.46582 -2.29973,1.14603 -3.43164,1.98242 2.60343,0.29186 5.20565,0.76359 7.78711,1.43945 4.42243,1.15786 8.57916,2.82997 12.45703,4.9082 1.71153,-0.24203 3.49937,-0.38692 5.39258,-0.42968 6.66984,-0.15065 14.55442,1.34138 23.02735,4.15429 -6.61586,-7.7251 -14.81675,-14.13707 -24.30274,-18.63867 z m -66.49219,2.61719 c -7.64216,4.37145 -14.47318,10.1295 -20.01172,17.07031 0.008,3.11721 0.35088,6.50221 0.7793,12.68555 0.20687,2.98542 1.55735,6.29026 3.54883,9.66406 2.25363,-5.54429 5.40366,-10.55143 9.25391,-14.90039 -0.50725,-4.23065 0.12204,-8.60944 1.57226,-13.4414 1.0575,-3.52346 2.70604,-7.24411 4.85742,-11.07813 z m -71.93359,0.5 c -4.32599,7.88688 -7.81575,16.37665 -10.30664,25.40234 -1.05526,3.82372 -1.90155,7.66793 -2.55078,11.51953 1.15092,2.49184 2.31315,4.91839 3.48437,7.26758 2.86753,5.75152 6.32082,11.16436 10.17383,16.22071 -0.43168,-10.27349 0.67785,-20.71518 3.50977,-30.97657 0.75957,-2.7523 1.62762,-5.44871 2.5957,-8.08593 -2.59774,-7.07863 -4.90207,-14.28308 -6.90625,-21.34766 z m -211.001953,0.51172 c -5.67569,34.38789 -5.444542,68.96395 0.05273,102.42383 5.649364,4.18532 11.519643,8.02293 17.638673,11.58984 -6.676227,-31.36354 -8.469918,-63.95436 -4.796876,-96.54492 -4.470075,-5.7241 -8.762873,-11.55644 -12.894531,-17.46875 z m 135.728513,2.85351 c -0.0887,0.30466 -0.18614,0.60472 -0.27343,0.91016 -4.61367,16.14355 -6.87315,32.53153 -6.99219,48.75586 4.62795,4.3519 9.91841,8.95798 15.61719,13.65234 -1.08539,-14.83473 -0.22843,-29.93038 2.74218,-44.90625 -3.94385,-6.00013 -7.63842,-12.14415 -11.09375,-18.41211 z m 282.67774,7.27735 c 6.45902,11.81126 10.93762,24.73052 13.14843,38.13086 5.9643,4.63694 11.56992,9.32796 16.64844,13.84961 -0.52976,-13.21821 -3.02559,-26.21203 -7.29101,-38.54688 -7.61616,-4.90852 -15.21839,-9.47976 -22.50586,-13.43359 z m -98.80078,0.13476 c -3.98092,4.75283 -7.59723,10.8477 -10.58594,16.3125 5.08748,-1.32399 10.50266,-1.56133 15.82812,-0.50586 3.47146,-6.08624 7.33246,-9.92944 11.89063,-12.22461 -2.12169,-0.84069 -4.31507,-1.56528 -6.59375,-2.13281 -3.49634,-0.87079 -7.02771,-1.33864 -10.53906,-1.44922 z m 31.61523,12.28321 c -5.76696,0.97376 -12.31026,3.53011 -18.22656,6.20312 4.79494,2.23095 8.96933,5.44467 12.37304,9.33594 6.76597,-2.60385 12.41555,-2.77885 17.83594,-1.05274 -3.11734,-5.4633 -7.15897,-10.38532 -11.98242,-14.48632 z m 8.99805,0.17578 c 5.20643,5.51973 9.35183,12.0018 12.25195,19.03711 0.1138,0.0776 0.22578,0.14756 0.33984,0.22656 6.69609,4.6376 13.41695,12.31829 19.58594,21.9043 -0.25866,-11.1304 -2.92218,-22.01255 -7.63476,-31.88282 -11.3545,-6.48499 -12.23962,-6.23499 -24.54297,-9.28515 z m 280.95312,6.81833 c 4.59714,34.87786 3.67317,70.76904 -3.47461,106.3125 3.95204,6.21358 7.70291,12.50059 11.27539,18.83398 8.99917,-35.69637 11.89069,-71.90617 9.29493,-107.36133 -5.4837,-6.51477 -11.16708,-12.40996 -17.09571,-17.78515 z m -387.91211,3.02734 c -1.11327,2.73269 -2.07917,5.55783 -2.83984,8.49414 -1.35042,5.21279 -2.0179,10.4889 -2.06641,15.71875 1.56231,1.92061 3.4832,4.13305 6.29492,7.48828 2.29642,2.74028 6.17859,4.89084 10.70899,6.60743 -1.47668,-5.38229 -2.09247,-11.0301 -1.73438,-16.70704 -3.82186,-3.3551 -6.34648,-7.8171 -8.32226,-13.46093 -0.86399,-2.46803 -1.53457,-5.20392 -2.04102,-8.14063 z m 211.19532,7.23047 c 2.53028,13.23061 3.33256,26.86582 2.23828,40.53906 1.45503,1.65263 2.76483,3.20895 3.78906,4.5586 3.20656,4.22537 6.27179,8.53845 9.20703,12.92773 2.72474,-14.9443 3.31754,-29.97991 1.96484,-44.71875 -5.43484,-4.41984 -11.20167,-8.89275 -17.19921,-13.30664 z m -238.4668,0.38867 c -2.2679,12.06291 -1.94632,24.2517 0.61914,35.8457 4.98087,4.58016 10.1906,8.70347 15.4043,12.31446 2.69335,1.54699 4.73956,2.68156 6.53906,3.625 -4.6135,-8.67823 -7.55209,-18.27347 -8.5293,-28.17969 -4.55783,-6.08821 -8.91114,-13.27424 -12.84766,-21.16992 -0.4003,-0.80291 -0.79389,-1.6185 -1.18554,-2.43555 z m 174.22461,3.8457 c 3.14201,11.92942 3.85977,24.58461 1.71875,37.1211 3.43843,7.22615 6.53788,14.968 9.2832,22.82031 1.3628,-3.4678 2.55478,-7.04031 3.55664,-10.71484 2.61856,-9.60407 3.74901,-19.35513 3.53906,-28.97266 -5.29539,-7.51376 -11.50172,-14.29338 -18.09765,-20.25391 z m -235.34571,0.72266 c -0.90398,13.29403 0.004,26.52869 2.56446,39.36133 6.27172,4.51204 12.69613,8.90191 19.13086,13.05469 -4.0367,-12.24388 -6.36717,-25.09899 -6.78711,-38.15235 -5.75261,-5.10925 -10.82741,-9.98462 -14.90821,-14.26367 z m 186.28321,2 c 2.29533,4.64108 3.71841,9.73605 4.13476,14.97266 7.05172,2.47208 11.41822,6.56244 14.51367,12.39844 1.18541,-6.93939 1.00764,-13.93225 -0.38085,-20.6211 -4.67799,-3.08985 -11.52546,-5.20356 -18.26758,-6.75 z M 126.8418,396.3457 c 0.0952,27.12136 4.30682,53.89441 12.21484,79.41797 5.88492,2.30011 11.96449,4.52773 18.27734,6.71289 -8.22418,-22.81015 -13.29332,-46.83037 -14.82812,-71.30468 -5.36906,-4.78545 -10.58892,-9.73544 -15.66406,-14.82618 z m 332.96679,8.52735 c 0.46387,6.58611 -0.0985,13.30797 -1.84375,19.91015 -0.38964,1.47401 -0.84619,2.91264 -1.33398,4.33399 1.77935,8.08576 2.07867,18.05361 1.05469,28.91406 6.81223,-8.39467 12.0066,-18.27817 14.93945,-29.37305 0.0204,-0.0773 0.0345,-0.15513 0.0547,-0.23242 -0.5117,-1.64333 -1.03743,-3.27021 -1.59375,-4.85937 -4.82565,-10.77374 -6.22481,-12.73178 -11.27735,-18.69336 z m -22.72656,12.59375 c -0.0487,0.207 -0.0884,0.41443 -0.14062,0.62109 -1.25591,4.9695 -3.39067,9.49743 -6.1875,13.49805 3.67495,6.40273 4.04901,12.6425 2.35547,19.79101 5.43499,-4.60616 10.0473,-10.21285 13.50585,-16.64843 -0.7425,-5.30163 -4.79981,-11.49217 -9.5332,-17.26172 z m -156.38281,0.0684 c 2.06559,13.08406 6.30389,25.71099 12.44531,37.30859 0.93141,0.49956 1.86133,0.99767 2.78125,1.47656 6.96825,3.62754 14.34628,6.33929 21.8418,8.28907 -8.14854,-9.99804 -14.38186,-21.52361 -18.34766,-33.85157 -6.42237,-4.14519 -12.72851,-8.63393 -18.7207,-13.22265 z m 307.23437,0.16211 c -0.40415,15.51325 -2.73442,31.14255 -7.16406,46.54296 -0.53619,1.86415 -1.10619,3.70957 -1.69531,5.54493 3.25094,6.38204 6.26735,12.87896 9.04883,19.47656 2.75188,-6.74022 5.17194,-13.68683 7.22656,-20.83008 3.22244,-11.2034 5.41108,-22.51349 6.64062,-33.82031 -1.78078,-2.34502 -3.51102,-4.62394 -5.33789,-7.03125 -2.25336,-2.96932 -5.21497,-6.3036 -8.71875,-9.88281 z m -254.25195,1.61328 c 2.1595,7.47715 5.62183,14.52278 10.18555,20.77539 1.94723,0.48062 4.08093,0.98652 7.05664,1.73047 3.83824,0.95955 8.82753,0.1811 14.05469,-1.39258 -4.19198,-3.37508 -7.77489,-7.43748 -10.65625,-11.96094 -5.88385,-0.0137 -11.14155,-2.22579 -16.72071,-6.08984 -1.30705,-0.90526 -2.61519,-1.93392 -3.91992,-3.0625 z m 180.29688,12.41015 c -0.62587,3.43422 -1.40286,6.86079 -2.35352,10.26953 -2.65546,9.52155 -6.4357,18.45028 -11.14258,26.70899 1.93715,7.15699 3.54182,14.05935 4.82422,20.43945 7.51677,-10.2621 13.6585,-21.6996 18.08594,-34.14453 -2.97647,-8.03622 -6.12994,-15.90649 -9.41406,-23.27344 z m -339.31641,4.86914 c 3.60242,19.91465 9.83021,39.23093 18.42578,57.39649 6.53576,2.0031 13.29174,4.05437 20.25977,6.15625 -9.06821,-16.27769 -16.02308,-33.74594 -20.6211,-51.89649 -6.15181,-3.67547 -12.17571,-7.56525 -18.06445,-11.65625 z m 142.33203,4.38282 c 5.20205,10.28927 12.33956,19.56623 21.11133,27.15234 5.70919,0.53637 11.33663,0.72177 16.74609,0.59961 4.48746,-0.48179 7.47797,-0.87563 9.95117,-1.33203 -8.65644,-3.93689 -16.24311,-9.55594 -22.51562,-16.35156 -7.93421,-2.1379 -16.55519,-5.59469 -25.29297,-10.06836 z m 104.50195,0.23632 c -4.13779,3.1567 -8.83074,5.58872 -13.82031,7.19532 -1.31899,7.24816 -5.37603,12.415 -11.7832,17.29492 -0.0276,0.021 -0.0582,0.0415 -0.0859,0.0625 7.42827,-0.26449 14.70167,-1.89577 21.45117,-4.71484 0.45421,-0.7345 0.71522,-1.16256 1.24414,-2.00782 2.60741,-4.16685 3.22141,-10.84336 2.99414,-17.83008 z m 25.96094,5.21875 c -5.16343,6.89253 -11.64601,12.66326 -18.97265,17.08008 -3.86819,7.39731 -9.70989,15.27615 -16.90821,23.02539 11.0919,-2.54537 21.56751,-7.32166 30.71289,-13.95898 1.11814,-3.00396 2.13006,-5.99993 3.01758,-8.95703 1.92492,-9.15661 2.34592,-12.378 2.15039,-17.18946 z m 29.79492,1.34571 c -5.46641,11.37681 -13.21853,21.25459 -22.52343,29.2832 -1.61799,7.64124 -3.74353,15.41297 -6.14844,23.03516 11.44132,-6.74005 21.66327,-15.51884 29.99414,-26.01563 0.60683,-8.86268 0.0557,-17.74075 -1.32227,-26.30273 z m -99.37109,0.0117 c -5.0029,4.06367 -10.87466,5.55586 -18.17188,5.7207 -0.86908,0.0196 -1.76492,0.004 -2.67382,-0.0312 5.84381,4.39407 12.5357,7.8111 19.93945,9.94922 1.51418,-0.62274 2.85031,-1.17506 4.93945,-2.01758 4.0517,-1.634 7.9943,-5.80104 11.57617,-10.76758 -3.63927,-0.008 -7.31022,-0.45753 -10.93164,-1.38476 -1.6016,-0.41008 -3.16008,-0.90271 -4.67773,-1.46875 z m -154.24609,16.54296 c 5.80726,15.16058 13.54524,29.53292 23.00976,42.68946 6.36201,0.6913 13.25389,1.22693 20.5,1.58594 -9.33325,-11.05118 -17.24039,-23.26722 -23.5293,-36.29102 -6.77739,-2.4005 -13.43828,-5.07022 -19.98046,-7.98438 z m 400.81445,0.18165 c -0.97405,4.2588 -2.06135,8.50902 -3.29297,12.74414 -4.98804,17.1521 -11.84675,33.29884 -20.26758,48.32226 1.96368,6.84967 3.69341,13.76763 5.23242,20.72852 12.69046,-19.64561 22.77408,-41.34972 29.59961,-64.82031 0.0902,-0.31006 0.16895,-0.62146 0.25782,-0.93165 -3.6624,-5.23935 -7.51094,-10.57779 -11.5293,-16.04296 z m -213.77539,6.58593 c -8.82365,2.38027 -18.17104,3.03459 -27.4668,1.69727 -7.62187,3.22453 -16.76154,5.75063 -26.71875,7.46484 4.77394,2.32009 9.83011,4.22292 15.14649,5.64063 5.99136,1.59769 12.0494,2.46074 18.07421,2.6875 3.9379,-2.45319 7.68813,-5.04658 11.19922,-7.72071 5.16051,-4.66747 7.69712,-7.15348 9.76563,-9.76953 z m -139.69141,8.41211 c 6.91209,10.86513 15.21727,20.84388 24.74805,29.60742 7.71727,-0.0959 15.45755,-0.38762 23.02344,-0.87109 -10.44745,-7.40898 -19.6678,-16.30233 -27.46094,-26.28906 -7.45948,-0.63644 -14.33547,-1.4873 -20.31055,-2.44727 z m 261.46875,2.42578 c -6.42113,12.14624 -14.39459,23.21224 -23.58203,33.05274 0.008,0.2504 0.0341,0.5493 0.0391,0.78906 0.14485,6.94843 0.013,13.87733 -0.38086,20.77734 11.24485,-10.01199 21.22463,-21.51494 29.56836,-34.32031 -1.62968,-6.51871 -3.53787,-13.34935 -5.64453,-20.29883 z m -195.6582,0.61133 c -7.55285,0.51287 -15.24296,0.65783 -22.79297,0.54297 9.16822,9.13188 19.94119,16.76394 32.05664,22.35938 8.78702,-1.32413 17.30492,-3.90796 25.34961,-7.3125 -1.38582,-0.31224 -2.77065,-0.65269 -4.15039,-1.03125 -11.23197,-3.08174 -21.45404,-8.08887 -30.46289,-14.5586 z m 97.25976,8.10547 c -11.4138,5.55188 -23.95112,8.8871 -36.80664,9.61328 -5.87418,5.07365 -12.14811,9.94957 -18.50586,14.51563 13.52097,1.65383 27.05555,0.72589 39.9375,-2.47266 6.05129,-6.59305 11.1522,-13.96845 15.375,-21.65625 z m 40.00782,9.97852 c -9.84776,8.45131 -20.98688,15.34585 -32.93164,20.45117 -2.73235,6.922 -5.55753,13.43257 -8.29493,19.19336 12.39303,-3.80711 24.22366,-9.26759 35.10938,-16.21485 2.29468,-7.87991 4.36755,-15.77312 6.11719,-23.42968 z m 183.48242,13.86718 c -10.91331,27.86097 -26.05821,53.17149 -44.46875,75.46094 0.70948,7.12674 1.20127,14.26212 1.52344,21.38867 21.15246,-23.06487 38.85328,-49.61017 51.97461,-79.09961 -2.70676,-5.94698 -5.73352,-11.84407 -9.0293,-17.75 z m -602.984376,5.75196 c -2.035846,0.0563 -3.910808,0.51185 -5.431641,1.52539 10.888537,29.72339 25.477249,58.00698 43.373047,84.05859 8.78507,3.68718 17.25411,6.6954 25.49609,9.08399 -21.827774,-27.9534 -39.445541,-59.09167 -52.259762,-92.1875 -3.477764,-1.43867 -7.571991,-2.58022 -11.177734,-2.48047 z m 305.214846,7.14062 c -6.33158,3.9016 -12.3945,7.34897 -17.86328,10.20703 3.81275,1.43477 7.71288,2.72509 11.70507,3.84375 8.6444,2.42228 17.37806,3.95321 26.09375,4.66602 6.41371,-4.85945 12.71224,-9.87074 18.67188,-14.92578 -12.77874,0.75205 -25.79624,-0.441 -38.60742,-3.79102 z m 184.26172,5.99414 c -11.4573,13.73716 -24.73284,25.77853 -39.33008,35.89649 -1.23255,7.01747 -2.71868,13.98824 -4.44531,20.90039 16.28502,-9.64337 31.31317,-21.39522 44.57617,-35.01367 -0.0985,-4.75609 -0.19928,-9.53354 -0.30274,-14.4961 -0.0457,-2.194 -0.21959,-4.64363 -0.49804,-7.28711 z m -429.39649,8.63086 c 15.25642,29.55464 35.03283,56.7292 58.71289,80.27735 6.78549,-0.15846 13.56836,-0.69581 20.4043,-1.55664 -23.17711,-21.07412 -42.84442,-45.66017 -58.44922,-72.61915 -6.9613,-1.85369 -13.85507,-3.89429 -20.66797,-6.10156 z m 201.59571,6.16406 c -6.82061,2.11339 -13.70728,3.9436 -20.64258,5.50782 13.13697,8.46517 27.55856,15.30015 43.09765,20.1289 5.6061,-3.29368 11.50829,-6.99744 17.5625,-11.02343 -3.12628,-0.68599 -6.24698,-1.45847 -9.35547,-2.34375 -10.80805,-3.07809 -21.04823,-7.21994 -30.6621,-12.26954 z m 142.99218,2.79493 c -12.63857,5.91912 -26.04849,10.24276 -39.86718,12.79296 -4.24787,5.91354 -8.72831,11.628 -13.41602,17.1504 15.69384,-1.41582 31.06714,-4.92032 45.69922,-10.31446 2.56872,-6.15577 5.12153,-12.73964 7.58398,-19.6289 z m -279.0957,6.30078 c 15.26918,20.76774 33.5175,39.39592 54.3457,55.07031 6.03075,-1.64051 12.1954,-3.4618 18.50782,-5.42187 -19.51045,-13.3003 -36.84258,-29.27918 -51.68555,-47.24415 -7.07879,-0.58648 -14.13745,-1.40135 -21.16797,-2.40429 z m 81.91016,1.90039 c -7.01703,0.73326 -14.05954,1.22219 -21.11329,1.47461 14.01883,13.46066 29.8912,25.14398 47.3711,34.56445 6.51295,-2.24769 13.20045,-4.56814 20.1289,-6.98242 -16.95694,-7.61799 -32.49723,-17.45036 -46.38671,-29.05664 z m 419.22851,21.77929 c -18.20672,30.64738 -41.13588,57.76844 -67.49219,80.77149 -0.47707,6.15493 -1.07276,12.27283 -1.81445,18.33203 -0.12503,1.02278 -0.21418,2.10749 -0.26172,3.2168 27.42582,-21.89147 51.70977,-47.8645 71.68164,-77.34961 -0.18481,-8.70835 -0.89972,-16.99476 -2.11328,-24.97071 z m -135.93359,11.01954 c -17.2183,14.25866 -36.35099,26.11788 -56.75782,35.24023 -2.55027,6.69198 -5.32401,13.30052 -8.27929,19.82617 23.15598,-8.74225 45.01419,-20.71241 64.79883,-35.5332 0.16719,-6.32849 0.24368,-12.82201 0.23828,-19.5332 z m -108.25391,7.77539 c -17.73018,4.35568 -36.12456,6.34217 -54.66211,5.71093 -5.24668,4.86785 -10.6678,9.54582 -16.24414,14.03516 19.6497,2.14575 39.28652,1.51197 58.38086,-1.66602 3.68291,-5.28554 7.44024,-10.69594 11.33789,-16.30273 0.39143,-0.56307 0.78781,-1.16321 1.1875,-1.77734 z M 333.71875,642.4844 c -6.03359,3.76334 -12.17643,7.35322 -18.42383,10.75 0.65664,0.19709 1.30555,0.40936 1.96485,0.60156 24.41907,7.11863 49.24922,10.35286 73.76562,10.08594 3.92168,-4.98898 7.85742,-10.19412 11.8418,-15.60938 -22.87071,1.39397 -46.14586,-0.43165 -69.14844,-5.82812 z m 208.36523,9.22656 c -25.57936,15.82463 -53.56617,27.74626 -82.8457,35.21484 -3.75555,6.19941 -7.67516,12.28102 -11.74219,18.24024 31.97344,-6.42471 62.72746,-17.85265 90.9961,-33.69336 1.47954,-6.44293 2.6571,-13.01651 3.59179,-19.76172 z m -268.1289,20.85351 c -6.66436,2.65279 -13.38324,5.12529 -20.14258,7.40821 15.47157,7.64445 31.77532,14.06071 48.83789,19.07812 15.124,4.44736 30.38308,7.62611 45.6543,9.61914 5.26,-4.23973 10.3153,-8.7786 15.24414,-13.61133 -18.92162,-1.56695 -37.88167,-5.04142 -56.61719,-10.55078 -11.35631,-3.33943 -22.34829,-7.35193 -32.97656,-11.94336 z m -70.26953,20.89258 c -1.05971,0.21504 -2.12063,0.44412 -3.17969,0.65039 -4.76341,0.92849 -10.53958,2.95305 -13.75195,6.31055 26.80617,18.42458 56.44685,33.39558 88.51367,44.0918 9.08834,-2.36543 17.53103,-5.1035 25.4414,-8.21875 -3.20841,-0.84689 -6.41314,-1.73819 -9.61132,-2.68555 -31.59269,-9.35829 -60.8651,-23.01762 -87.41211,-40.14844 z m 316.01562,26.83203 c -32.95278,13.82324 -68.09174,22.6388 -104.06836,25.77539 -2.34966,2.65477 -4.71663,5.28513 -7.11719,7.86133 -2.13429,2.2912 -4.3415,5.20173 -5.8125,8.21484 35.24233,-1.64518 69.87276,-8.52176 102.74805,-20.07812 5.44213,-7.28437 10.15909,-14.51713 14.25,-21.77344 z" />
  </g>
</svg>
